SplineFontDB: 3.0
FontName: MedievalSharp-Oblique
FullName: Medieval Sharp Oblique
FamilyName: Medieval Sharp
Weight: Book
Copyright: Copyright (c) 2011, wmk69 (wmk69@o2.pl)\nwith Reserved Font Names 'MedievalSharp' and 'Medieval Sharp Oblique'.\n\nThis Font Software is licensed under the SIL Open Font License, Version 1.1.\nThis license is available with a FAQ at:\nhttp://scripts.sil.org/OFL
Version: 2.001
ItalicAngle: -13
UnderlinePosition: -81
UnderlineWidth: 122
Ascent: 1638
Descent: 410
LayerCount: 2
Layer: 0 1 "Warstwa t+AUIA-a"  1
Layer: 1 1 "Plan pierwszy"  0
XUID: [1021 783 23647091 8578152]
FSType: 0
OS2Version: 3
OS2_WeightWidthSlopeOnly: 0
OS2_UseTypoMetrics: 1
CreationTime: 1260698820
ModificationTime: 1316698947
PfmFamily: 17
TTFWeight: 400
TTFWidth: 5
LineGap: 0
VLineGap: 0
Panose: 2 1 5 4 2 2 2 1 2 4
OS2TypoAscent: 1951
OS2TypoAOffset: 0
OS2TypoDescent: -543
OS2TypoDOffset: 0
OS2TypoLinegap: 0
OS2WinAscent: 1951
OS2WinAOffset: 0
OS2WinDescent: 543
OS2WinDOffset: 0
HheadAscent: 1951
HheadAOffset: 0
HheadDescent: -543
HheadDOffset: 0
OS2SubXSize: 1434
OS2SubYSize: 1331
OS2SubXOff: 0
OS2SubYOff: 287
OS2SupXSize: 1434
OS2SupYSize: 1331
OS2SupXOff: 0
OS2SupYOff: 977
OS2StrikeYSize: 102
OS2StrikeYPos: 512
OS2Vendor: '    '
OS2CodePages: 20000093.00000000
OS2UnicodeRanges: 8000002f.4000204b.00000000.00000000
Lookup: 258 0 0 "'kern' Kerning poziomy w tablicy 0"  {"Podtablica 'kern' Kerning poziomy w tablicy 0"  } ['kern' ('DFLT' <'dflt' > 'grek' <'dflt' > 'latn' <'dflt' > ) ]
DEI: 91125
KernClass2: 20 15 "Podtablica 'kern' Kerning poziomy w tablicy 0" 
 90 A Agrave Aacute Acircumflex Atilde Adieresis Aring Amacron Abreve Aogonek Aringacute Delta

StartChar: .notdef
Encoding: 65536 -1 0
Width: 864
Flags: W
HStem: 0 88<258 646> 1422 88<566 954>
VStem: 150 564<0 564> 499 564<946 1510>
DStem2: 150 0 237.684 0 0.224951 0.97437<110.039 1479.13> 625.684 0 714 0 0.224951 0.97437<90.3148 1459.41>
LayerCount: 2
Fore
SplineSet
150 0 m 1,0,-1
 499 1510 l 1,1,-1
 1063 1510 l 1,2,-1
 714 0 l 1,3,-1
 150 0 l 1,0,-1
954 1422 m 1,4,-1
 566 1422 l 1,5,-1
 258 88 l 1,6,-1
 646 88 l 1,7,-1
 954 1422 l 1,4,-1
EndSplineSet
Validated: 1
EndChar

StartChar: exclam
Encoding: 33 33 4
Width: 612
GlyphClass: 2
Flags: W
HStem: 0 21G<191 270> 1490 20G<704.5 789>
VStem: 191 598
DStem2: 240 146 438 88 0.165112 0.986275<-41.8067 136.999>
LayerCount: 2
Fore
SplineSet
781 1510 m 1,0,-1
 789 1504 l 1,1,2
 681 1259 681 1259 583 925 c 0,3,4
 518 703 518 703 446 391 c 1,5,6
 365 375 365 375 308 334 c 1,7,8
 369 598 369 598 435 915 c 0,9,10
 492 1189 492 1189 497 1418 c 1,11,12
 628 1431 628 1431 781 1510 c 1,0,-1
200 0 m 1,13,-1
 191 6 l 1,14,15
 229 97 229 97 240 146 c 0,16,17
 249 187 249 187 254 263 c 1,18,19
 352 279 352 279 493 351 c 1,20,-1
 502 345 l 1,21,22
 470 263 470 263 455 203 c 0,23,24
 446 167 446 167 438 88 c 1,25,26
 340 71 340 71 200 0 c 1,13,-1
EndSplineSet
Validated: 1
EndChar

StartChar: quotedbl
Encoding: 34 34 5
Width: 828
GlyphClass: 2
Flags: W
HStem: 946 564
VStem: 416 609
LayerCount: 2
Fore
SplineSet
1017 1510 m 1,0,-1
 1025 1504 l 1,1,2
 945 1381 945 1381 902 1196 c 0,3,4
 886 1127 886 1127 873 1018 c 1,5,6
 795 994 795 994 700 946 c 1,7,-1
 692 952 l 1,8,9
 724 1047 724 1047 745 1138 c 0,10,11
 767 1235 767 1235 767 1311 c 0,12,13
 767 1372 767 1372 753 1418 c 1,14,15
 861 1431 861 1431 1017 1510 c 1,0,-1
741 1510 m 1,16,-1
 749 1504 l 1,17,18
 669 1381 669 1381 626 1196 c 0,19,20
 610 1127 610 1127 597 1018 c 1,21,22
 519 994 519 994 424 946 c 1,23,-1
 416 952 l 1,24,25
 448 1047 448 1047 469 1138 c 0,26,27
 491 1235 491 1235 491 1311 c 0,28,29
 491 1372 491 1372 477 1418 c 1,30,31
 585 1431 585 1431 741 1510 c 1,16,-1
EndSplineSet
Validated: 1
EndChar

StartChar: numbersign
Encoding: 35 35 6
Width: 1417
GlyphClass: 2
Flags: W
HStem: 477 222<377.82 557.98 1137.77 1310.52> 535 108<772 911> 755 222<442.479 614.226 1195.02 1374.52> 813 108<842 980>
DStem2: 554.722 168 662.338 168 0.224951 0.97437<511.703 655.528> 832.568 168 940.414 168 0.224951 0.97437<515.86 659.685>
LayerCount: 2
Fore
SplineSet
266 477 m 1,0,-1
 262 487 l 1,1,2
 358 605 358 605 398 699 c 1,3,4
 517 664 517 664 666 650 c 1,5,6
 681 714 681 714 681 714 c 128,-1,7
 681 714 681 714 701 807 c 1,8,9
 516 794 516 794 330 755 c 1,10,-1
 327 765 l 1,11,12
 422 883 422 883 463 977 c 1,13,14
 579 943 579 943 721 929 c 1,15,16
 735 1074 735 1074 735 1198 c 1,17,18
 833 1218 833 1218 967 1286 c 1,19,-1
 976 1280 l 1,20,21
 897 1103 897 1103 842 921 c 1,22,23
 886 919 886 919 934 919 c 0,24,25
 966 919 966 919 998 920 c 1,26,27
 1013 1071 1013 1071 1013 1198 c 1,28,29
 1111 1218 1111 1218 1245 1286 c 1,30,-1
 1254 1280 l 1,31,32
 1175 1105 1175 1105 1121 926 c 1,33,34
 1303 939 1303 939 1487 977 c 1,35,-1
 1490 967 l 1,36,37
 1395 849 1395 849 1354 755 c 1,38,39
 1235 790 1235 790 1087 804 c 1,40,41
 1075 759 1075 759 1071 740 c 0,42,43
 1060 691 1060 691 1051 647 c 1,44,45
 1236 660 1236 660 1422 699 c 1,46,-1
 1426 689 l 1,47,48
 1331 571 1331 571 1290 477 c 1,49,50
 1174 511 1174 511 1031 525 c 1,51,52
 1017 379 1017 379 1017 256 c 1,53,54
 918 236 918 236 785 168 c 1,55,-1
 776 174 l 1,56,57
 856 351 856 351 911 533 c 1,58,59
 867 535 867 535 819 535 c 0,60,61
 787 535 787 535 754 534 c 1,62,63
 739 383 739 383 739 256 c 1,64,65
 640 236 640 236 507 168 c 1,66,-1
 498 174 l 1,67,68
 578 349 578 349 632 528 c 1,69,70
 450 515 450 515 266 477 c 1,0,-1
772 643 m 1,71,72
 820 641 820 641 870 641 c 0,73,74
 906 641 906 641 942 642 c 1,75,76
 959 714 959 714 959 714 c 128,-1,77
 959 714 959 714 980 811 c 1,78,79
 933 813 933 813 883 813 c 0,80,81
 847 813 847 813 810 812 c 1,82,83
 801 775 801 775 791 732.5 c 128,-1,84
 781 690 781 690 772 643 c 1,71,72
EndSplineSet
Validated: 1
EndChar

StartChar: percent
Encoding: 37 37 7
Width: 1548
GlyphClass: 2
Flags: W
HStem: 0 21G<442 497 1074 1186.5> 1490 20G<709 822 1441 1496.5>
VStem: 414 141<1078.8 1270.02> 874 130<1086.03 1283.89> 892 141<231.798 423.022> 1352 130<239.026 436.886>
LayerCount: 2
Fore
SplineSet
650 847 m 1,0,-1
 640 847 l 1,1,2
 552 881 552 881 485 946 c 0,3,4
 414 1015 414 1015 414 1111 c 0,5,6
 414 1143 414 1143 422 1179 c 0,7,8
 449 1300 449 1300 572 1398 c 0,9,10
 650 1460 650 1460 768 1510 c 1,11,-1
 778 1510 l 1,12,13
 866 1476 866 1476 933 1411 c 0,14,15
 1004 1342 1004 1342 1004 1246 c 0,16,17
 1004 1214 1004 1214 996 1178 c 0,18,19
 969 1055 969 1055 847 959 c 0,20,21
 767 895 767 895 650 847 c 1,0,-1
644 1371 m 1,22,23
 580 1318 580 1318 560 1224 c 0,24,25
 555 1201 555 1201 555 1179 c 0,26,27
 555 1091 555 1091 650 1042 c 0,28,29
 712 1011 712 1011 777 988 c 1,30,31
 851 1065 851 1065 868 1135 c 0,32,33
 874 1160 874 1160 874 1183 c 0,34,35
 874 1270 874 1270 784 1318 c 0,36,37
 732 1346 732 1346 644 1371 c 1,22,23
1128 0 m 1,38,-1
 1118 0 l 1,39,40
 1030 34 1030 34 963 99 c 0,41,42
 892 168 892 168 892 264 c 0,43,44
 892 296 892 296 900 332 c 0,45,46
 927 453 927 453 1050 551 c 0,47,48
 1128 613 1128 613 1246 663 c 1,49,-1
 1256 663 l 1,50,51
 1344 629 1344 629 1411 564 c 0,52,53
 1482 495 1482 495 1482 399 c 0,54,55
 1482 367 1482 367 1474 331 c 0,56,57
 1447 208 1447 208 1325 112 c 0,58,59
 1245 48 1245 48 1128 0 c 1,38,-1
1122 524 m 1,60,61
 1058 471 1058 471 1038 377 c 0,62,63
 1033 354 1033 354 1033 332 c 0,64,65
 1033 244 1033 244 1128 195 c 0,66,67
 1190 164 1190 164 1255 141 c 1,68,69
 1329 218 1329 218 1346 288 c 0,70,71
 1352 313 1352 313 1352 336 c 0,72,73
 1352 423 1352 423 1262 471 c 0,74,75
 1210 499 1210 499 1122 524 c 1,60,61
497 6 m 1,76,-1
 486 0 l 1,77,78
 398 58 398 58 315 82 c 1,79,80
 605 395 605 395 950 830 c 0,81,82
 1212 1160 1212 1160 1441 1504 c 1,83,-1
 1453 1510 l 1,84,85
 1540 1452 1540 1452 1624 1428 c 1,86,87
 1281 1070 1281 1070 1045 771 c 0,88,89
 702 337 702 337 497 6 c 1,76,-1
EndSplineSet
Validated: 1
EndChar

StartChar: ampersand
Encoding: 38 38 8
Width: 1378
VWidth: 0
GlyphClass: 2
Flags: W
HStem: 0 21G<536.5 701 1077 1163.5> 1490 20G<886.5 1031.5>
VStem: 212 162<372 534.145> 402 171<982 1151.22> 1228 163<534.874 780.059>
LayerCount: 2
Fore
SplineSet
645 0 m 1,0,-1
 635 0 l 1,1,2
 438 96 438 96 348 155 c 0,3,4
 212 245 212 245 212 372 c 0,5,6
 212 403 212 403 220 435 c 0,7,8
 255 576 255 576 347 665 c 0,9,10
 441 756 441 756 537 792 c 1,11,12
 402 852 402 852 402 982 c 0,13,14
 402 1016 402 1016 411 1054 c 0,15,16
 454 1235 454 1235 644 1358 c 0,17,18
 791 1453 791 1453 982 1510 c 1,19,-1
 992 1510 l 1,20,21
 1071 1491 1071 1491 1150 1438 c 128,-1,22
 1229 1385 1229 1385 1283 1296 c 1,23,-1
 1062 1198 l 1,24,25
 1034 1265 1034 1265 934 1324 c 0,26,27
 830 1386 830 1386 727 1386 c 1,28,29
 615 1312 615 1312 580 1162 c 0,30,31
 573 1132 573 1132 573 1104 c 0,32,33
 573 986 573 986 701 919 c 0,34,35
 781 877 781 877 889 860 c 1,36,37
 972 604 972 604 1140 358 c 1,38,39
 1199 446 1199 446 1223 550 c 0,40,41
 1228 572 1228 572 1228 592 c 0,42,43
 1228 694 1228 694 1100 756 c 1,44,45
 1185 818 1185 818 1241 916 c 1,46,-1
 1253 920 l 1,47,48
 1391 850 1391 850 1391 714 c 0,49,50
 1391 680 1391 680 1382 642 c 0,51,52
 1344 459 1344 459 1177 305 c 1,53,54
 1254 192 1254 192 1349 92 c 1,55,56
 1241 79 1241 79 1086 0 c 1,57,-1
 1077 6 l 1,58,59
 1055 110 1055 110 1021 184 c 1,60,61
 757 28 757 28 645 0 c 1,0,-1
654 796 m 1,62,63
 417 699 417 699 377 511 c 0,64,65
 374 497 374 497 374 484 c 0,66,67
 374 389 374 389 537 293 c 0,68,69
 692 204 692 204 907 145 c 1,70,71
 962 178 962 178 1009 216 c 1,72,73
 881 524 881 524 654 796 c 1,62,63
EndSplineSet
Validated: 1
EndChar

StartChar: quotesingle
Encoding: 39 39 9
Width: 552
GlyphClass: 2
Flags: W
HStem: 946 564
VStem: 416 333
LayerCount: 2
Fore
SplineSet
741 1510 m 1,0,-1
 749 1504 l 1,1,2
 669 1381 669 1381 626 1196 c 0,3,4
 610 1127 610 1127 597 1018 c 1,5,6
 519 994 519 994 424 946 c 1,7,-1
 416 952 l 1,8,9
 448 1047 448 1047 469 1138 c 0,10,11
 491 1235 491 1235 491 1311 c 0,12,13
 491 1372 491 1372 477 1418 c 1,14,15
 585 1431 585 1431 741 1510 c 1,0,-1
EndSplineSet
Validated: 1
EndChar

StartChar: parenleft
Encoding: 40 40 10
Width: 856
GlyphClass: 2
Flags: W
HStem: 1710 10<1230.9 1241>
VStem: 258 164<166.508 658.297>
LayerCount: 2
Fore
SplineSet
1243 1720 m 1,0,-1
 1241 1710 l 1,1,2
 914 1553 914 1553 686 1200 c 0,3,4
 512 931 512 931 451 662 c 0,5,6
 422 534 422 534 422 421 c 0,7,8
 422 284 422 284 467 166 c 0,9,10
 561 -73 561 -73 765 -213 c 9,11,-1
 553 -324 l 1,12,13
 383 -176 383 -176 300 58 c 0,14,15
 258 176 258 176 258 324 c 0,16,17
 258 468 258 468 298 639 c 0,18,19
 371 953 371 953 573 1231 c 0,20,21
 855 1621 855 1621 1243 1720 c 1,0,-1
EndSplineSet
Validated: 1
EndChar

StartChar: parenright
Encoding: 41 41 11
Width: 856
GlyphClass: 2
Flags: W
HStem: -212 10<-37 -26.8669>
VStem: 782 164<847.778 1341.15>
LayerCount: 2
Fore
SplineSet
-39 -212 m 1,0,-1
 -37 -202 l 1,1,2
 288 -46 288 -46 518 308 c 0,3,4
 692 576 692 576 753 846 c 0,5,6
 782 974 782 974 782 1086 c 0,7,8
 782 1224 782 1224 737 1342 c 0,9,10
 644 1582 644 1582 439 1721 c 9,11,-1
 651 1832 l 1,12,13
 822 1684 822 1684 904 1450 c 0,14,15
 946 1331 946 1331 946 1183 c 0,16,17
 946 1040 946 1040 907 869 c 0,18,19
 835 557 835 557 632 276 c 0,20,21
 352 -114 352 -114 -39 -212 c 1,0,-1
EndSplineSet
Validated: 1
EndChar

StartChar: asterisk
Encoding: 42 42 12
Width: 1238
GlyphClass: 2
Flags: W
HStem: 1490 20G<1002 1077>
LayerCount: 2
Fore
SplineSet
1069 1510 m 1,0,-1
 1077 1504 l 1,1,2
 983 1294 983 1294 934 1125 c 1,3,4
 1074 1209 1074 1209 1211 1321 c 1,5,6
 1258 1249 1258 1249 1361 1181 c 1,7,-1
 1357 1169 l 1,8,9
 1136 1104 1136 1104 966 1027 c 1,10,11
 1100 950 1100 950 1291 885 c 1,12,-1
 1290 873 l 1,13,14
 1156 805 1156 805 1075 733 c 1,15,16
 991 844 991 844 890 927 c 1,17,18
 874 818 874 818 874 706 c 0,19,20
 874 667 874 667 876 631 c 1,21,22
 777 612 777 612 644 544 c 1,23,-1
 635 550 l 1,24,25
 729 760 729 760 777 929 c 1,26,27
 637 845 637 845 500 733 c 1,28,29
 454 805 454 805 352 873 c 1,30,-1
 354 885 l 1,31,32
 575 950 575 950 745 1027 c 1,33,34
 611 1104 611 1104 420 1169 c 1,35,-1
 423 1181 l 1,36,37
 556 1249 556 1249 636 1321 c 1,38,39
 720 1210 720 1210 821 1127 c 1,40,41
 838 1241 838 1241 838 1359 c 0,42,43
 838 1389 838 1389 837 1423 c 1,44,45
 935 1442 935 1442 1069 1510 c 1,0,-1
EndSplineSet
Validated: 1
EndChar

StartChar: plus
Encoding: 43 43 13
Width: 1266
GlyphClass: 2
Flags: W
HStem: 635 222<414.479 570.672 1039.99 1196.18> 692 109<475.781 739 871 1129.86>
LayerCount: 2
Fore
SplineSet
303 635 m 1,0,-1
 299 645 l 1,1,2
 394 763 394 763 435 857 c 1,3,4
 598 809 598 809 763 801 c 1,5,6
 788 934 788 934 788 1071 c 0,7,8
 788 1108 788 1108 786 1142 c 1,9,10
 884 1161 884 1161 1018 1229 c 1,11,-1
 1026 1223 l 1,12,13
 919 985 919 985 871 800 c 1,14,15
 1058 805 1058 805 1308 857 c 1,16,-1
 1312 847 l 1,17,18
 1216 729 1216 729 1176 635 c 1,19,20
 1012 683 1012 683 847 691 c 1,21,22
 823 559 823 559 823 423 c 0,23,24
 823 385 823 385 825 350 c 1,25,26
 726 331 726 331 593 263 c 1,27,-1
 584 269 l 1,28,29
 691 507 691 507 739 692 c 1,30,31
 553 687 553 687 303 635 c 1,0,-1
EndSplineSet
Validated: 1
EndChar

StartChar: comma
Encoding: 44 44 14
Width: 631
GlyphClass: 2
Flags: W
HStem: -222 16<73.2656 84.4226>
VStem: 304 195<-0.609375 179.438>
LayerCount: 2
Fore
SplineSet
455 297 m 1,0,-1
 463 291 l 1,1,2
 499 222 499 222 499 152 c 0,3,4
 499 121 499 121 492 90 c 0,5,6
 441 -136 441 -136 73 -222 c 1,7,8
 74 -215 74 -215 76 -206 c 1,9,10
 262 -114 262 -114 299 42 c 0,11,12
 304 63 304 63 304 82 c 0,13,14
 304 165 304 165 215 209 c 1,15,16
 314 225 314 225 455 297 c 1,0,-1
EndSplineSet
Validated: 1
EndChar

StartChar: hyphen
Encoding: 45 45 15
Width: 1266
GlyphClass: 2
Flags: W
HStem: 635 222<414.479 568.051 1042.32 1196.18> 693 106<484.28 1126.21>
LayerCount: 2
Fore
SplineSet
303 635 m 1,0,-1
 299 645 l 1,1,2
 394 763 394 763 435 857 c 1,3,4
 631 799 631 799 831 799 c 0,5,6
 1030 799 1030 799 1308 857 c 1,7,-1
 1312 847 l 1,8,9
 1216 729 1216 729 1176 635 c 1,10,11
 979 693 979 693 779.5 693 c 128,-1,12
 580 693 580 693 303 635 c 1,0,-1
EndSplineSet
Validated: 1
EndChar

StartChar: period
Encoding: 46 46 16
Width: 532
GlyphClass: 2
Flags: W
HStem: 0 351
VStem: 151 311
DStem2: 200 146 398 88 0.165112 0.986275<-41.8067 136.999>
LayerCount: 2
Fore
SplineSet
160 0 m 1,0,-1
 151 6 l 1,1,2
 189 97 189 97 200 146 c 0,3,4
 209 187 209 187 214 263 c 1,5,6
 312 279 312 279 453 351 c 1,7,-1
 462 345 l 1,8,9
 430 263 430 263 415 203 c 0,10,11
 406 167 406 167 398 88 c 1,12,13
 300 71 300 71 160 0 c 1,0,-1
EndSplineSet
Validated: 1
EndChar

StartChar: slash
Encoding: 47 47 17
Width: 1076
GlyphClass: 2
Flags: W
LayerCount: 2
Fore
SplineSet
177 -144 m 1,0,1
 165 -150 l 1,2,3
 78 -92 78 -92 -6 -68 c 1,4,5
 375 372 375 372 711 835 c 0,6,7
 1043 1292 1043 1292 1248 1654 c 1,8,-1
 1259 1660 l 1,9,10
 1347 1602 1347 1602 1430 1578 c 1,11,12
 1118 1203 1118 1203 806 777 c 0,13,14
 437 273 437 273 177 -144 c 1,0,1
EndSplineSet
Validated: 1
EndChar

StartChar: zero
Encoding: 48 48 18
Width: 1354
VWidth: 0
GlyphClass: 2
Flags: W
HStem: 0 21G<576 811.5> 1490 20G<888 1129.5>
VStem: 270 187<458.969 822.177> 1245 187<687.542 1054.32>
LayerCount: 2
Fore
SplineSet
758 1365 m 1,0,1
 558 1161 558 1161 475 811 c 0,2,3
 457 735 457 735 457 665 c 0,4,5
 457 480 457 480 580 336 c 8,6,7
 720 171 720 171 944 145 c 1,8,9
 1143 345 1143 345 1227 699 c 0,10,11
 1245 775 1245 775 1245 846 c 0,12,13
 1245 1032 1245 1032 1124 1174 c 8,14,15
 988 1336 988 1336 758 1365 c 1,0,1
706 0 m 1,16,-1
 696 0 l 1,17,18
 456 116 456 116 358 260 c 0,19,20
 270 389 270 389 270 562 c 0,21,22
 270 650 270 650 293 750 c 0,23,24
 361 1045 361 1045 598 1257 c 0,25,26
 779 1419 779 1419 997 1510 c 1,27,-1
 1007 1510 l 1,28,29
 1252 1388 1252 1388 1345 1250 c 0,30,31
 1432 1121 1432 1121 1432 949 c 0,32,33
 1432 861 1432 861 1409 760 c 0,34,35
 1341 463 1341 463 1105 253 c 0,36,37
 917 86 917 86 706 0 c 1,16,-1
EndSplineSet
Validated: 1
EndChar

StartChar: one
Encoding: 49 49 19
Width: 781
GlyphClass: 2
Flags: W
HStem: 0 21G<327 410> 1490 20G<844 928>
LayerCount: 2
Fore
SplineSet
336 0 m 1,0,-1
 327 6 l 1,1,2
 450 340 450 340 539 730 c 0,3,4
 589 950 589 950 631 1224 c 1,5,6
 496 1127 496 1127 384 946 c 1,7,8
 342 997 342 997 246 1023 c 1,9,10
 498 1192 498 1192 656 1418 c 1,11,12
 768 1432 768 1432 920 1510 c 1,13,-1
 928 1504 l 1,14,15
 804 1153 804 1153 717 782 c 0,16,17
 636 436 636 436 599 92 c 1,18,19
 484 76 484 76 336 0 c 1,0,-1
EndSplineSet
Validated: 1
EndChar

StartChar: four
Encoding: 52 52 20
Width: 1148
GlyphClass: 2
Flags: W
HStem: 0 21G<694 777> 364 96<352.643 804.5> 1490 20G<1208.5 1295>
DStem2: 807 354 1295 1504 0.29072 0.956808<119.478 599.246>
LayerCount: 2
Fore
SplineSet
703 0 m 1,0,-1
 694 6 l 1,1,2
 780 256 780 256 807 354 c 1,3,4
 646 364 646 364 497 364 c 0,5,6
 330 364 330 364 124 331 c 1,7,-1
 111 439 l 1,8,9
 594 868 594 868 1023 1418 c 1,10,11
 1130 1430 1130 1430 1287 1510 c 1,12,-1
 1295 1504 l 1,13,14
 1167 1136 1167 1136 1084 782 c 0,15,16
 1004 440 1004 440 966 92 c 1,17,18
 851 77 851 77 703 0 c 1,0,-1
843 480 m 1,19,20
 926 842 926 842 998 1221 c 1,21,22
 633 864 633 864 348 471 c 1,23,24
 497 460 497 460 591 460 c 128,-1,25
 685 460 685 460 843 480 c 1,19,20
EndSplineSet
Validated: 1
EndChar

StartChar: six
Encoding: 54 54 21
Width: 1310
VWidth: 0
GlyphClass: 2
Flags: W
HStem: 0 21G<575 811> 782 180<914.239 1002.61> 1490 20G<890.5 1127>
VStem: 270 188<460.519 822.271> 1150 184<485.685 670.516>
LayerCount: 2
Fore
SplineSet
706 0 m 1,0,-1
 696 0 l 1,1,2
 454 118 454 118 358 260 c 0,3,4
 270 391 270 391 270 564 c 0,5,6
 270 653 270 653 293 750 c 0,7,8
 360 1046 360 1046 598 1257 c 0,9,10
 784 1422 784 1422 997 1510 c 1,11,-1
 1007 1510 l 1,12,13
 1247 1392 1247 1392 1345 1250 c 0,14,15
 1367 1218 1367 1218 1383 1183 c 1,16,-1
 1180 1093 l 1,17,18
 1149 1146 1149 1146 1123 1174 c 0,19,20
 970 1339 970 1339 758 1365 c 1,21,22
 554 1160 554 1160 475 811 c 0,23,24
 458 736 458 736 458 667 c 0,25,26
 458 482 458 482 580 336 c 8,27,28
 718 172 718 172 944 145 c 1,29,30
 1090 261 1090 261 1141 474 c 0,31,32
 1150 512 1150 512 1150 546 c 0,33,34
 1150 782 1150 782 709 782 c 9,35,-1
 932 962 l 17,36,37
 1334 907 1334 907 1334 663 c 0,38,39
 1334 625 1334 625 1324 582 c 0,40,41
 1284 411 1284 411 1104 252 c 0,42,43
 916 85 916 85 706 0 c 1,0,-1
EndSplineSet
Validated: 1
EndChar

StartChar: seven
Encoding: 55 55 22
Width: 988
GlyphClass: 2
Flags: W
HStem: 0 21G<173 260> 1374 91<537.545 979.962> 1490 20G<439 553.5 1187.5 1315>
LayerCount: 2
Fore
SplineSet
182 0 m 1,0,-1
 173 6 l 1,1,2
 699 765 699 765 984 1365 c 1,3,4
 918 1374 918 1374 782 1374 c 0,5,6
 632 1374 632 1374 316 1258 c 1,7,-1
 313 1268 l 1,8,9
 417 1394 417 1394 461 1510 c 1,10,11
 646 1465 646 1465 798 1465 c 0,12,13
 1068 1465 1068 1465 1307 1510 c 1,14,-1
 1315 1504 l 1,15,16
 813 795 813 795 464 95 c 1,17,18
 338 80 338 80 182 0 c 1,0,-1
EndSplineSet
Validated: 1
EndChar

StartChar: eight
Encoding: 56 56 23
Width: 1212
VWidth: 0
GlyphClass: 2
Flags: W
HStem: 0 21G<565 749> 1490 20G<832 1035>
VStem: 201 204<312.075 472.997> 396 160<986 1142.5> 1033 184<410.351 579.756> 1059 187<1087.21 1236.95>
DStem2: 671 954 625 744 0.916819 -0.399302<-130.812 41.6798 61.215 94.3496 334.225 494.46>
LayerCount: 2
Fore
SplineSet
646 0 m 1,0,-1
 636 0 l 1,1,2
 494 29 494 29 371 100 c 0,3,4
 201 198 201 198 201 328 c 0,5,6
 201 352 201 352 207 377 c 0,7,8
 256 583 256 583 508 694 c 1,9,-1
 625 744 l 1,10,-1
 588 758 l 1,11,12
 396 828 396 828 396 986 c 0,13,14
 396 1018 396 1018 405 1056 c 0,15,16
 427 1160 427 1160 538 1257 c 0,17,18
 727 1423 727 1423 937 1510 c 1,19,-1
 947 1510 l 1,20,21
 1123 1438 1123 1438 1196 1341 c 0,22,23
 1246 1275 1246 1275 1246 1211 c 0,24,25
 1246 1193 1246 1193 1242 1174 c 0,26,27
 1218 1059 1218 1059 1062 962 c 0,28,29
 964 901 964 901 885 861 c 1,30,-1
 1020 802 l 2,31,32
 1217 717 1217 717 1217 566 c 0,33,34
 1217 537 1217 537 1209 505 c 0,35,36
 1180 373 1180 373 1043 253 c 0,37,38
 852 86 852 86 646 0 c 1,0,-1
846 878 m 1,39,40
 1032 997 1032 997 1055 1104 c 0,41,42
 1059 1123 1059 1123 1059 1140 c 0,43,44
 1059 1202 1059 1202 1004 1247 c 0,45,46
 881 1346 881 1346 715 1368 c 1,47,48
 590 1261 590 1261 562 1151 c 0,49,50
 556 1127 556 1127 556 1106 c 0,51,52
 556 1007 556 1007 671 954 c 1,53,-1
 846 878 l 1,39,40
673 725 m 1,54,55
 447 598 447 598 410 450 c 0,56,57
 405 430 405 430 405 412 c 0,58,59
 405 306 405 306 556 245 c 0,60,61
 729 174 729 174 880 145 c 1,62,63
 990 266 990 266 1026 415 c 0,64,65
 1033 444 1033 444 1033 469 c 0,66,67
 1033 583 1033 583 903 634 c 2,68,-1
 673 725 l 1,54,55
EndSplineSet
Validated: 1
EndChar

StartChar: nine
Encoding: 57 57 24
Width: 1310
VWidth: 0
GlyphClass: 2
Flags: W
HStem: 0 21G<531 767.5> 548 180<655.395 743.761> 1490 20G<847 1083>
VStem: 324 184<839.484 1024.31> 1200 188<687.729 1049.48>
LayerCount: 2
Fore
SplineSet
661 0 m 1,0,-1
 651 0 l 1,1,2
 411 118 411 118 313 260 c 0,3,4
 291 292 291 292 275 327 c 1,5,-1
 478 417 l 1,6,7
 509 364 509 364 535 336 c 0,8,9
 688 171 688 171 900 145 c 1,10,11
 1104 350 1104 350 1183 699 c 0,12,13
 1200 774 1200 774 1200 843 c 0,14,15
 1200 1028 1200 1028 1078 1174 c 8,16,17
 940 1338 940 1338 714 1365 c 1,18,19
 568 1249 568 1249 517 1036 c 0,20,21
 508 998 508 998 508 964 c 0,22,23
 508 728 508 728 949 728 c 9,24,-1
 726 548 l 17,25,26
 324 603 324 603 324 847 c 0,27,28
 324 885 324 885 334 928 c 0,29,30
 374 1099 374 1099 554 1258 c 0,31,32
 742 1425 742 1425 952 1510 c 1,33,-1
 962 1510 l 1,34,35
 1204 1392 1204 1392 1300 1250 c 0,36,37
 1388 1119 1388 1119 1388 946 c 0,38,39
 1388 857 1388 857 1365 760 c 0,40,41
 1298 464 1298 464 1060 253 c 0,42,43
 874 88 874 88 661 0 c 1,0,-1
EndSplineSet
Validated: 1
EndChar

StartChar: colon
Encoding: 58 58 25
Width: 532
GlyphClass: 2
Flags: W
HStem: 0 21G<151 230>
VStem: 151 443
DStem2: 200 146 398 88 0.19028 0.98173<-37.644 115.173 569.862 701.84>
LayerCount: 2
Fore
SplineSet
585 923 m 1,0,-1
 594 917 l 1,1,2
 562 835 562 835 547 775 c 0,3,4
 538 739 538 739 530 660 c 1,5,6
 432 643 432 643 292 572 c 1,7,-1
 283 578 l 1,8,9
 321 669 321 669 332 718 c 0,10,11
 341 759 341 759 346 835 c 1,12,13
 444 851 444 851 585 923 c 1,0,-1
160 0 m 1,14,-1
 151 6 l 1,15,16
 189 97 189 97 200 146 c 0,17,18
 209 187 209 187 214 263 c 1,19,20
 312 279 312 279 453 351 c 1,21,-1
 462 345 l 1,22,23
 430 263 430 263 415 203 c 0,24,25
 406 167 406 167 398 88 c 1,26,27
 300 71 300 71 160 0 c 1,14,-1
EndSplineSet
Validated: 1
EndChar

StartChar: semicolon
Encoding: 59 59 26
Width: 631
GlyphClass: 2
Flags: W
HStem: -222 16<73.2656 84.4226>
VStem: 304 195<-0.609375 179.438>
LayerCount: 2
Fore
SplineSet
625 923 m 1,0,-1
 634 917 l 1,1,2
 602 835 602 835 587 775 c 0,3,4
 578 739 578 739 570 660 c 1,5,6
 472 643 472 643 332 572 c 1,7,-1
 323 578 l 1,8,9
 361 669 361 669 372 718 c 0,10,11
 381 759 381 759 386 835 c 1,12,13
 484 851 484 851 625 923 c 1,0,-1
455 297 m 1,14,-1
 463 291 l 1,15,16
 499 222 499 222 499 152 c 0,17,18
 499 121 499 121 492 90 c 0,19,20
 441 -136 441 -136 73 -222 c 1,21,22
 74 -215 74 -215 76 -206 c 1,23,24
 262 -114 262 -114 299 42 c 0,25,26
 304 63 304 63 304 82 c 0,27,28
 304 165 304 165 215 209 c 1,29,30
 314 225 314 225 455 297 c 1,14,-1
EndSplineSet
Validated: 1
EndChar

StartChar: less
Encoding: 60 60 27
Width: 1380
GlyphClass: 2
Flags: W
LayerCount: 2
Fore
SplineSet
299 645 m 1,0,1
 394 763 394 763 435 857 c 1,2,3
 870 973 870 973 1464 1254 c 1,4,-1
 1467 1244 l 1,5,6
 1406 1169 1406 1169 1359 1088 c 1,7,8
 976 979 976 979 589 786 c 1,9,10
 794 584 794 584 1280 459 c 1,11,-1
 1284 449 l 1,12,13
 1184 324 1184 324 1148 237 c 1,14,15
 824 518 824 518 303 635 c 1,16,-1
 299 645 l 1,0,1
EndSplineSet
Validated: 1
EndChar

StartChar: equal
Encoding: 61 61 28
Width: 1266
GlyphClass: 2
Flags: W
HStem: 460 222<373.868 527.817 1002.08 1155.52> 518 106<443.849 1085.78> 810 222<454.82 608.051 1082.82 1236.52> 868 106<524.281 1166.66>
LayerCount: 2
Fore
SplineSet
262 460 m 1,0,-1
 259 470 l 1,1,2
 354 588 354 588 394 682 c 1,3,4
 591 624 591 624 791 624 c 0,5,6
 990 624 990 624 1267 682 c 1,7,-1
 1271 672 l 1,8,9
 1176 554 1176 554 1135 460 c 1,10,11
 939 518 939 518 739.5 518 c 128,-1,12
 540 518 540 518 262 460 c 1,0,-1
343 810 m 1,13,-1
 339 820 l 1,14,15
 435 938 435 938 475 1032 c 1,16,17
 672 974 672 974 871 974 c 0,18,19
 1071 974 1071 974 1348 1032 c 1,20,-1
 1352 1022 l 1,21,22
 1257 904 1257 904 1216 810 c 1,23,24
 1019 868 1019 868 819.5 868 c 128,-1,25
 620 868 620 868 343 810 c 1,13,-1
EndSplineSet
Validated: 1
EndChar

StartChar: greater
Encoding: 62 62 29
Width: 1380
GlyphClass: 2
Flags: W
LayerCount: 2
Fore
SplineSet
1375 846 m 1,0,1
 1280 728 1280 728 1239 634 c 1,2,3
 805 518 805 518 211 237 c 1,4,-1
 207 247 l 1,5,6
 268 322 268 322 315 403 c 1,7,8
 698 512 698 512 1085 705 c 1,9,10
 884 908 884 908 394 1032 c 1,11,-1
 391 1042 l 1,12,13
 490 1167 490 1167 527 1254 c 1,14,15
 856 974 856 974 1372 856 c 1,16,-1
 1375 846 l 1,0,1
EndSplineSet
Validated: 1
EndChar

StartChar: question
Encoding: 63 63 30
Width: 1229
GlyphClass: 2
Flags: W
HStem: 0 21G<435 514> 1490 20G<830 1068.5>
VStem: 382 176<928.049 1131.52> 1140 185<937.003 1139.28>
DStem2: 484 146 682 88 0.165112 0.986275<-41.8067 136.999>
LayerCount: 2
Fore
SplineSet
444 0 m 1,0,-1
 435 6 l 1,1,2
 473 97 473 97 484 146 c 0,3,4
 493 187 493 187 498 263 c 1,5,6
 596 279 596 279 737 351 c 1,7,-1
 746 345 l 1,8,9
 714 263 714 263 699 203 c 0,10,11
 690 167 690 167 682 88 c 1,12,13
 584 71 584 71 444 0 c 1,0,-1
934 1510 m 1,14,-1
 944 1510 l 1,15,16
 1193 1384 1193 1384 1282 1250 c 0,17,18
 1325 1185 1325 1185 1325 1105 c 0,19,20
 1325 1068 1325 1068 1316 1028 c 0,21,22
 1276 851 1276 851 1049 717 c 0,23,-1
 806 572 l 0,24,25
 726 527 726 527 710 459 c 0,26,27
 705 438 705 438 717 417 c 1,28,29
 621 396 621 396 549 351 c 1,30,31
 540 370 540 370 540 391 c 0,32,33
 540 401 540 401 544 419 c 0,34,35
 569 528 569 528 711 629 c 0,36,37
 748 655 748 655 975 810 c 0,38,39
 1119 908 1119 908 1136 982 c 0,40,41
 1140 999 1140 999 1140 1016 c 0,42,43
 1140 1091 1140 1091 1070 1173 c 0,44,45
 932 1337 932 1337 695 1365 c 1,46,47
 592 1284 592 1284 562 1141 c 0,48,49
 558 1122 558 1122 558 1104 c 0,50,51
 558 1021 558 1021 657 974 c 1,52,-1
 430 840 l 1,53,54
 382 885 382 885 382 966 c 0,55,56
 382 1005 382 1005 393 1052 c 8,57,58
 417 1152 417 1152 536 1257 c 0,59,60
 726 1424 726 1424 934 1510 c 1,14,-1
EndSplineSet
Validated: 1
EndChar

StartChar: at
Encoding: 64 64 31
Width: 1237
GlyphClass: 2
Flags: W
HStem: -380 137<588 629.266> 0 21G<638 768 886 970> 1110 20G<783 980.5>
VStem: 162 154<82.983 441.134> 465 159<266.004 499.469> 1060 178<441.673 800.683>
LayerCount: 2
Fore
SplineSet
895 0 m 1,0,-1
 886 6 l 1,1,2
 999 328 999 328 1047 537 c 0,3,4
 1060 594 1060 594 1060 643 c 0,5,6
 1060 758 1060 758 990 834 c 0,7,8
 878 955 878 955 661 990 c 1,9,10
 411 755 411 755 331 407 c 0,11,12
 316 342 316 342 316 282 c 0,13,14
 316 114 316 114 429 -24 c 8,15,16
 581 -210 581 -210 849 -243 c 1,17,18
 723 -329 723 -329 598 -380 c 1,19,-1
 588 -380 l 1,20,21
 351 -266 351 -266 250 -120 c 0,22,23
 162 8 162 8 162 181 c 0,24,25
 162 268 162 268 185 370 c 0,26,27
 255 667 255 667 490 877 c 0,28,29
 677 1044 677 1044 889 1130 c 1,30,-1
 899 1130 l 1,31,32
 1062 1066 1062 1066 1148 961 c 0,33,34
 1238 852 1238 852 1238 701 c 0,35,36
 1238 636 1238 636 1221 562 c 0,37,38
 1156 296 1156 296 1156 137 c 0,39,40
 1156 112 1156 112 1158 92 c 1,41,42
 1045 77 1045 77 895 0 c 1,0,-1
723 0 m 1,43,-1
 713 0 l 1,44,45
 563 87 563 87 509 182 c 0,46,47
 465 260 465 260 465 342 c 0,48,49
 465 379 465 379 474 415 c 0,50,51
 501 528 501 528 610 614 c 24,52,53
 770 740 770 740 968 742 c 1,54,55
 671 609 671 609 631 436 c 0,56,57
 624 406 624 406 624 380 c 0,58,59
 624 289 624 289 703 238 c 0,60,61
 779 188 779 188 919 138 c 1,62,63
 813 46 813 46 723 0 c 1,43,-1
EndSplineSet
Validated: 1
EndChar

StartChar: A
Encoding: 65 65 32
Width: 1285
GlyphClass: 2
Flags: W
HStem: 0 21G<6 69 1029 1115.5> 496 81<503.113 1019> 1490 20G<1027.5 1113>
LayerCount: 2
Fore
SplineSet
15 0 m 1,0,1
 6 6 l 1,2,3
 501 691 501 691 841 1418 c 1,4,5
 950 1431 950 1431 1105 1510 c 1,6,-1
 1113 1504 l 1,7,8
 1112 1462 1112 1462 1112 1420 c 0,9,10
 1112 642 1112 642 1301 92 c 1,11,12
 1193 79 1193 79 1038 0 c 1,13,-1
 1029 6 l 1,14,15
 1038 106 1038 106 1038 220 c 0,16,17
 1038 344 1038 344 1027 486 c 1,18,19
 939 496 939 496 730 496 c 24,20,21
 559 496 559 496 433 476 c 1,22,23
 340 303 340 303 229 83 c 1,24,25
 123 57 123 57 15 0 c 1,0,1
909 1247 m 1,26,27
 679 911 679 911 499 588 c 1,28,29
 598 577 598 577 744 577 c 0,30,31
 924 577 924 577 1019 586 c 1,32,33
 996 962 996 962 909 1247 c 1,26,27
EndSplineSet
Validated: 1
EndChar

StartChar: C
Encoding: 67 67 33
Width: 1287
VWidth: 0
GlyphClass: 2
Flags: W
HStem: 0 21G<576 809> 1490 20G<888 1126.5>
VStem: 270 187<458.969 822.239>
LayerCount: 2
Fore
SplineSet
706 0 m 1,0,1
 696 0 l 1,2,3
 456 116 456 116 358 260 c 0,4,5
 270 389 270 389 270 562 c 0,6,7
 270 650 270 650 293 750 c 0,8,9
 361 1045 361 1045 598 1257 c 0,10,11
 779 1419 779 1419 997 1510 c 1,12,-1
 1007 1510 l 1,13,14
 1246 1391 1246 1391 1345 1250 c 0,15,16
 1352 1240 1352 1240 1361 1223 c 1,17,-1
 1158 1127 l 1,18,19
 1151 1139 1151 1139 1123 1174 c 0,20,21
 994 1335 994 1335 758 1365 c 1,22,23
 559 1165 559 1165 475 811 c 0,24,25
 457 735 457 735 457 665 c 0,26,27
 457 480 457 480 580 336 c 8,28,29
 719 172 719 172 944 145 c 1,30,31
 1044 235 1044 235 1075 401 c 0,32,33
 1093 497 1093 497 1093 552 c 9,34,-1
 1299 484 l 17,35,36
 1219 354 1219 354 1104 252 c 0,37,38
 912 83 912 83 706 0 c 1,0,1
EndSplineSet
Validated: 1
EndChar

StartChar: E
Encoding: 69 69 34
Width: 1099
GlyphClass: 2
Flags: W
HStem: 0 21G<181 298.5 884.5 977> 45 91<465.569 906.914> 690 93<571 883.585> 1490 20G<696 825 1247.5 1327>
LayerCount: 2
Fore
SplineSet
190 0 m 1,0,-1
 181 6 l 1,1,2
 310 369 310 369 393 730 c 0,3,4
 470 1064 470 1064 510 1418 c 1,5,6
 618 1431 618 1431 774 1510 c 1,7,8
 876 1463 876 1463 1030 1463 c 0,9,10
 1171 1463 1171 1463 1324 1510 c 1,11,-1
 1327 1500 l 1,12,13
 1220 1368 1220 1368 1179 1258 c 1,14,15
 1045 1267 1045 1267 937 1327 c 0,16,17
 831 1386 831 1386 773 1478 c 1,18,19
 652 1133 652 1133 571 783 c 1,20,21
 821 783 821 783 1075 898 c 1,22,-1
 1079 888 l 1,23,24
 972 756 972 756 931 646 c 1,25,26
 766 690 766 690 550 690 c 1,27,28
 490 411 490 411 459 145 c 1,29,30
 521 136 521 136 634 136 c 0,31,32
 843 136 843 136 1101 252 c 1,33,-1
 1105 242 l 1,34,35
 997 110 997 110 957 0 c 1,36,37
 812 45 812 45 618 45 c 0,38,39
 407 45 407 45 190 0 c 1,0,-1
EndSplineSet
Validated: 1
EndChar

StartChar: G
Encoding: 71 71 35
Width: 1354
VWidth: 0
GlyphClass: 2
Flags: W
HStem: 0 21G<576 813> 1490 20G<888 1125>
VStem: 270 187<458.728 822.239>
DStem2: 1065.62 0 1233.54 0 0.224951 0.97437<534.271 761.534>
LayerCount: 2
Fore
SplineSet
706 0 m 1,0,1
 696 0 l 1,2,3
 456 116 456 116 358 260 c 0,4,5
 270 389 270 389 270 562 c 0,6,7
 270 650 270 650 293 750 c 0,8,9
 361 1045 361 1045 598 1257 c 0,10,11
 779 1419 779 1419 997 1510 c 1,12,-1
 1007 1510 l 1,13,14
 1243 1397 1243 1397 1345 1250 c 0,15,16
 1354 1237 1354 1237 1361 1223 c 1,17,-1
 1158 1127 l 1,18,19
 1151 1138 1151 1138 1123 1174 c 0,20,21
 998 1331 998 1331 758 1365 c 1,22,23
 559 1165 559 1165 475 811 c 0,24,25
 457 735 457 735 457 665 c 0,26,27
 459 479 459 479 580 336 c 8,28,29
 719 172 719 172 944 145 c 1,30,31
 1146 348 1146 348 1227 699 c 9,32,-1
 1237 742 l 17,33,34
 1072 718 1072 718 903 637 c 1,35,-1
 899 647 l 1,36,37
 1007 779 1007 779 1047 889 c 1,38,39
 1221 844 1221 844 1425 844 c 1,40,-1
 1409 760 l 1,41,42
 1340 460 1340 460 1105 253 c 0,43,44
 920 90 920 90 706 0 c 1,0,1
EndSplineSet
Validated: 1
EndChar

StartChar: H
Encoding: 72 72 36
Width: 1374
GlyphClass: 2
Flags: W
HStem: 0 21G<181 265 940 1024> 734 91<588.498 1143.42> 1490 20G<696 782 1455 1541>
LayerCount: 2
Fore
SplineSet
190 0 m 1,0,-1
 181 6 l 1,1,2
 312 376 312 376 393 730 c 0,3,4
 469 1063 469 1063 510 1418 c 1,5,6
 618 1431 618 1431 774 1510 c 1,7,-1
 782 1504 l 1,8,9
 667 1182 667 1182 584 841 c 1,10,11
 728 825 728 825 862 825 c 0,12,13
 1002 825 1002 825 1177 846 c 1,14,15
 1236 1124 1236 1124 1269 1418 c 1,16,17
 1377 1431 1377 1431 1533 1510 c 1,18,-1
 1541 1504 l 1,19,20
 1420 1165 1420 1165 1330 782 c 0,21,22
 1248 433 1248 433 1212 92 c 1,23,24
 1099 77 1099 77 949 0 c 1,25,-1
 940 6 l 1,26,27
 1064 357 1064 357 1149 717 c 1,28,29
 970 734 970 734 843 734 c 0,30,31
 709 734 709 734 555 713 c 1,32,33
 485 396 485 396 453 92 c 1,34,35
 340 77 340 77 190 0 c 1,0,-1
EndSplineSet
Validated: 1
EndChar

StartChar: I
Encoding: 73 73 37
Width: 615
GlyphClass: 2
Flags: W
HStem: 0 21G<181 265> 1490 20G<696 782>
VStem: 181 601
LayerCount: 2
Fore
SplineSet
190 0 m 1,0,-1
 181 6 l 1,1,2
 312 376 312 376 393 730 c 0,3,4
 469 1063 469 1063 510 1418 c 1,5,6
 618 1431 618 1431 774 1510 c 1,7,-1
 782 1504 l 1,8,9
 658 1157 658 1157 571 782 c 0,10,11
 490 433 490 433 453 92 c 1,12,13
 340 77 340 77 190 0 c 1,0,-1
EndSplineSet
Validated: 1
EndChar

StartChar: L
Encoding: 76 76 38
Width: 1054
GlyphClass: 2
Flags: W
HStem: 0 21G<181 298.5 884.5 977> 45 91<465.569 906.914> 1490 20G<696 782>
LayerCount: 2
Fore
SplineSet
190 0 m 1,0,-1
 181 6 l 1,1,2
 310 369 310 369 393 730 c 0,3,4
 470 1064 470 1064 510 1418 c 1,5,6
 618 1431 618 1431 774 1510 c 1,7,-1
 782 1504 l 1,8,9
 658 1155 658 1155 571 782 c 0,10,11
 495 457 495 457 459 145 c 1,12,13
 521 136 521 136 634 136 c 0,14,15
 843 136 843 136 1101 252 c 1,16,-1
 1105 242 l 1,17,18
 997 110 997 110 957 0 c 1,19,20
 812 45 812 45 618 45 c 0,21,22
 407 45 407 45 190 0 c 1,0,-1
EndSplineSet
Validated: 1
EndChar

StartChar: N
Encoding: 78 78 39
Width: 1355
GlyphClass: 2
Flags: W
HStem: 0 21G<211 267 921 1001.5> 1490 20G<634.5 719 1466.5 1522>
DStem2: 1084 294 1522 1504 0.28032 0.959907<112.35 854.051>
LayerCount: 2
Fore
SplineSet
220 0 m 1,0,-1
 211 6 l 1,1,2
 329 341 329 341 409 682 c 0,3,4
 479 981 479 981 520 1266 c 1,5,6
 483 1362 483 1362 447 1418 c 1,7,8
 558 1432 558 1432 711 1510 c 1,9,-1
 719 1504 l 1,10,11
 820 784 820 784 1084 294 c 1,12,13
 1150 500 1150 500 1227 836 c 0,14,15
 1300 1153 1300 1153 1325 1433 c 1,16,17
 1419 1461 1419 1461 1514 1510 c 1,18,-1
 1522 1504 l 1,19,20
 1399 1162 1399 1162 1311 782 c 0,21,22
 1229 429 1229 429 1193 92 c 1,23,24
 1073 75 1073 75 930 0 c 1,25,-1
 921 6 l 1,26,27
 828 586 828 586 610 1068 c 1,28,29
 548 859 548 859 508 686 c 0,30,31
 436 374 436 374 406 76 c 1,32,33
 314 49 314 49 220 0 c 1,0,-1
EndSplineSet
Validated: 1
EndChar

StartChar: O
Encoding: 79 79 40
Width: 1354
VWidth: 0
GlyphClass: 2
Flags: W
HStem: 0 21G<576 811.5> 1490 20G<888 1129.5>
VStem: 270 187<458.969 822.177> 1245 187<687.542 1054.32>
LayerCount: 2
Fore
SplineSet
758 1365 m 1,0,1
 558 1161 558 1161 475 811 c 0,2,3
 457 735 457 735 457 665 c 0,4,5
 457 480 457 480 580 336 c 8,6,7
 720 171 720 171 944 145 c 1,8,9
 1143 345 1143 345 1227 699 c 0,10,11
 1245 775 1245 775 1245 846 c 0,12,13
 1245 1032 1245 1032 1124 1174 c 8,14,15
 988 1336 988 1336 758 1365 c 1,0,1
706 0 m 1,16,-1
 696 0 l 1,17,18
 456 116 456 116 358 260 c 0,19,20
 270 389 270 389 270 562 c 0,21,22
 270 650 270 650 293 750 c 0,23,24
 361 1045 361 1045 598 1257 c 0,25,26
 779 1419 779 1419 997 1510 c 1,27,-1
 1007 1510 l 1,28,29
 1252 1388 1252 1388 1345 1250 c 0,30,31
 1432 1121 1432 1121 1432 949 c 0,32,33
 1432 861 1432 861 1409 760 c 0,34,35
 1341 463 1341 463 1105 253 c 0,36,37
 917 86 917 86 706 0 c 1,16,-1
EndSplineSet
Validated: 1
EndChar

StartChar: T
Encoding: 84 84 41
Width: 1123
GlyphClass: 2
Flags: W
HStem: 0 21G<432 517.5> 1374 93<493.986 756 976.102 1171.77> 1490 20G<424 526 1360 1464>
LayerCount: 2
Fore
SplineSet
441 0 m 1,0,-1
 432 6 l 1,1,2
 564 377 564 377 644 730 c 0,3,4
 713 1033 713 1033 756 1374 c 1,5,6
 553 1371 553 1371 301 1258 c 1,7,-1
 298 1268 l 1,8,9
 402 1396 402 1396 446 1510 c 1,10,11
 606 1467 606 1467 917 1467 c 0,12,13
 1259 1467 1259 1467 1461 1510 c 1,14,-1
 1464 1500 l 1,15,16
 1357 1367 1357 1367 1316 1258 c 1,17,18
 1174 1353 1174 1353 988 1374 c 1,19,20
 892 1084 892 1084 822 782 c 0,21,22
 742 435 742 435 704 92 c 1,23,24
 594 77 594 77 441 0 c 1,0,-1
EndSplineSet
Validated: 1
EndChar

StartChar: V
Encoding: 86 86 42
Width: 1285
GlyphClass: 2
Flags: W
HStem: 0 21G<520 606> 1490 20G<518 604 1564.5 1627>
VStem: 521 77<726 804>
LayerCount: 2
Fore
SplineSet
529 0 m 1,0,-1
 520 6 l 1,1,2
 521 48 521 48 521 90 c 0,3,4
 521 804 521 804 332 1418 c 1,5,6
 440 1431 440 1431 596 1510 c 1,7,-1
 604 1504 l 1,8,9
 598 1382 598 1382 598 1263 c 0,10,11
 598 726 598 726 725 263 c 1,12,13
 1070 766 1070 766 1404 1427 c 1,14,15
 1510 1453 1510 1453 1619 1510 c 1,16,-1
 1627 1504 l 1,17,18
 1133 819 1133 819 792 92 c 1,19,20
 683 79 683 79 529 0 c 1,0,-1
EndSplineSet
Validated: 1
EndChar

StartChar: W
Encoding: 87 87 43
Width: 1786
GlyphClass: 2
Flags: W
HStem: 0 21G<520 606 1021 1107> 1490 20G<518 604 1019 1105 1564.5 1627 2065.5 2128>
VStem: 523 75<728 882>
LayerCount: 2
Fore
SplineSet
529 0 m 1,0,1
 520 6 l 1,2,3
 523 93 523 93 523 178 c 0,4,5
 523 882 523 882 332 1418 c 1,6,7
 440 1431 440 1431 596 1510 c 1,8,-1
 604 1504 l 1,9,10
 598 1382 598 1382 598 1263 c 0,11,12
 598 728 598 728 725 263 c 1,13,14
 867 462 867 462 1004 688 c 1,15,16
 959 1075 959 1075 833 1418 c 1,17,18
 941 1431 941 1431 1097 1510 c 1,19,-1
 1105 1504 l 1,20,21
 1094 1354 1094 1354 1094 1210 c 0,22,23
 1094 1033 1094 1033 1110 868 c 1,24,25
 1260 1131 1260 1131 1404 1427 c 1,26,27
 1510 1453 1510 1453 1619 1510 c 1,28,-1
 1627 1504 l 1,29,30
 1348 1133 1348 1133 1124 743 c 1,31,32
 1157 494 1157 494 1226 263 c 1,33,34
 1571 766 1571 766 1905 1427 c 1,35,36
 2011 1453 2011 1453 2120 1510 c 1,37,-1
 2128 1504 l 1,38,39
 1634 819 1634 819 1293 92 c 1,40,41
 1184 79 1184 79 1030 0 c 1,42,-1
 1021 6 l 1,43,44
 1028 131 1028 131 1028 253 c 0,45,46
 1028 403 1028 403 1017 551 c 1,47,48
 895 325 895 325 792 92 c 1,49,50
 683 79 683 79 529 0 c 1,0,1
EndSplineSet
Validated: 1
EndChar

StartChar: bracketleft
Encoding: 91 91 44
Width: 834
GlyphClass: 2
Flags: W
HStem: -249 95<379.503 621.744>
LayerCount: 2
Fore
SplineSet
113 -290 m 1,0,-1
 104 -284 l 1,1,2
 274 269 274 269 394 788 c 0,3,4
 503 1260 503 1260 567 1713 c 1,5,6
 692 1727 692 1727 840 1802 c 1,7,8
 905 1758 905 1758 992 1758 c 128,-1,9
 1079 1758 1079 1758 1194 1802 c 1,10,-1
 1198 1792 l 1,11,12
 1090 1660 1090 1660 1050 1550 c 1,13,14
 982 1565 982 1565 925 1624 c 0,15,16
 860 1692 860 1692 832 1782 c 1,17,18
 724 1501 724 1501 561 796 c 0,19,20
 386 39 386 39 377 -146 c 1,21,22
 401 -154 401 -154 422 -154 c 0,23,24
 598 -154 598 -154 769 -38 c 1,25,-1
 773 -48 l 1,26,27
 665 -180 665 -180 625 -290 c 1,28,29
 521 -249 521 -249 392 -249 c 0,30,31
 259 -249 259 -249 113 -290 c 1,0,-1
EndSplineSet
Validated: 1
EndChar

StartChar: backslash
Encoding: 92 92 45
Width: 1076
GlyphClass: 2
Flags: W
VStem: 374 676
LayerCount: 2
Fore
SplineSet
833 -144 m 1,0,1
 760 276 760 276 627 777 c 0,2,3
 517 1191 517 1191 374 1578 c 1,4,5
 469 1602 469 1602 583 1660 c 1,6,-1
 592 1654 l 1,7,8
 629 1294 629 1294 751 835 c 0,9,10
 876 365 876 365 1050 -68 c 1,11,12
 956 -92 956 -92 841 -150 c 1,13,-1
 833 -144 l 1,0,1
EndSplineSet
Validated: 1
EndChar

StartChar: bracketright
Encoding: 93 93 46
Width: 834
GlyphClass: 2
Flags: W
HStem: 1666 95<561.287 804.495>
LayerCount: 2
Fore
SplineSet
-11 -290 m 1,0,-1
 -15 -280 l 1,1,2
 93 -148 93 -148 133 -38 c 1,3,4
 201 -53 201 -53 258 -112 c 0,5,6
 323 -180 323 -180 351 -270 c 1,7,8
 459 11 459 11 622 716 c 0,9,10
 797 1473 797 1473 806 1658 c 1,11,12
 782 1666 782 1666 761 1666 c 0,13,14
 585 1666 585 1666 414 1550 c 1,15,-1
 410 1560 l 1,16,17
 518 1692 518 1692 558 1802 c 1,18,19
 663 1761 663 1761 792 1761 c 0,20,21
 925 1761 925 1761 1070 1802 c 1,22,-1
 1079 1796 l 1,23,24
 908 1240 908 1240 789 724 c 0,25,26
 680 251 680 251 616 -201 c 1,27,28
 491 -215 491 -215 343 -290 c 1,29,30
 278 -246 278 -246 191 -246 c 128,-1,31
 104 -246 104 -246 -11 -290 c 1,0,-1
EndSplineSet
Validated: 1
EndChar

StartChar: asciicircum
Encoding: 94 94 47
Width: 1370
GlyphClass: 2
Flags: W
HStem: 865 645
LayerCount: 2
Fore
SplineSet
1132 1510 m 1,0,-1
 1140 1504 l 1,1,2
 1218 1148 1218 1148 1441 957 c 1,3,4
 1333 944 1333 944 1178 865 c 1,5,-1
 1169 871 l 1,6,7
 1116 1182 1116 1182 938 1302 c 1,8,9
 713 1124 713 1124 574 948 c 1,10,11
 468 922 468 922 360 865 c 1,12,-1
 351 871 l 1,13,14
 681 1158 681 1158 868 1418 c 1,15,16
 977 1431 977 1431 1132 1510 c 1,0,-1
EndSplineSet
Validated: 1
EndChar

StartChar: underscore
Encoding: 95 95 48
Width: 1266
GlyphClass: 2
Flags: W
HStem: -410 222<173.479 326.817 801.316 954.521> -352 106<243.062 884.945>
LayerCount: 2
Fore
SplineSet
61 -410 m 1,0,-1
 58 -400 l 1,1,2
 153 -282 153 -282 194 -188 c 1,3,4
 390 -246 390 -246 590 -246 c 0,5,6
 789 -246 789 -246 1067 -188 c 1,7,-1
 1070 -198 l 1,8,9
 975 -316 975 -316 934 -410 c 1,10,11
 738 -352 738 -352 538.5 -352 c 128,-1,12
 339 -352 339 -352 61 -410 c 1,0,-1
EndSplineSet
Validated: 1
EndChar

StartChar: grave
Encoding: 96 96 49
Width: 709
GlyphClass: 2
Flags: W
HStem: 1160 350
VStem: 475 367
LayerCount: 2
Fore
SplineSet
699 1510 m 1,0,1
 707 1504 l 1,2,3
 724 1330 724 1330 842 1225 c 1,4,-1
 840 1215 l 1,5,6
 760 1192 760 1192 705 1160 c 1,7,-1
 696 1166 l 1,8,9
 622 1328 622 1328 475 1408 c 1,10,-1
 482 1418 l 1,11,12
 550 1429 550 1429 699 1510 c 1,0,1
EndSplineSet
Validated: 1
EndChar

StartChar: a
Encoding: 97 97 50
Width: 1092
GlyphClass: 2
Flags: W
HStem: 0 21G<438.5 589 741 825> 1110 20G<677 834.5>
VStem: 192 180<311.616 524.453> 915 178<439.588 801.167>
LayerCount: 2
Fore
SplineSet
750 0 m 1,0,-1
 741 6 l 1,1,2
 852 320 852 320 902 537 c 0,3,4
 915 593 915 593 915 642 c 0,5,6
 915 757 915 757 845 834 c 0,7,8
 731 959 731 959 499 992 c 1,9,10
 610 1078 610 1078 744 1130 c 1,11,-1
 754 1130 l 1,12,13
 915 1067 915 1067 1003 961 c 0,14,15
 1093 854 1093 854 1093 702 c 0,16,17
 1093 637 1093 637 1076 562 c 0,18,19
 1011 292 1011 292 1011 137 c 0,20,21
 1011 113 1011 113 1013 92 c 1,22,23
 900 77 900 77 750 0 c 1,0,-1
530 0 m 1,24,-1
 520 0 l 1,25,26
 357 66 357 66 271 170 c 0,27,28
 192 266 192 266 192 369 c 0,29,30
 192 401 192 401 200 433 c 0,31,32
 228 562 228 562 362 654 c 0,33,34
 499 748 499 748 691 748 c 0,35,36
 740 748 740 748 794 742 c 1,37,38
 610 688 610 688 513 625 c 0,39,40
 395 548 395 548 376 460 c 0,41,42
 372 441 372 441 372 423 c 0,43,44
 372 358 372 358 428 296 c 0,45,46
 548 168 548 168 777 139 c 1,47,48
 648 45 648 45 530 0 c 1,24,-1
EndSplineSet
Validated: 1
EndChar

StartChar: b
Encoding: 98 98 51
Width: 1174
GlyphClass: 2
Flags: W
HStem: 0 21G<565.5 750.5> 1110 20G<807.5 965.5> 1490 20G<666 749>
VStem: 1052 169<472.157 788.131>
LayerCount: 2
Fore
SplineSet
658 0 m 1,0,-1
 648 0 l 1,1,2
 483 66 483 66 399 170 c 0,3,4
 309 281 309 281 309 432 c 0,5,6
 309 497 309 497 326 569 c 1,7,8
 402 927 402 927 412 968 c 0,9,10
 467 1203 467 1203 477 1418 c 1,11,12
 591 1433 591 1433 741 1510 c 1,13,-1
 749 1504 l 1,14,15
 676 1317 676 1317 579 962 c 0,16,17
 522 754 522 754 491 616 c 0,18,19
 478 558 478 558 478 507 c 0,20,21
 478 384 478 384 556 296 c 0,22,23
 663 178 663 178 880 142 c 1,24,25
 994 316 994 316 1039 514 c 0,26,27
 1052 571 1052 571 1052 622 c 0,28,29
 1052 747 1052 747 973 834 c 0,30,31
 859 960 859 960 626 992 c 1,32,33
 743 1080 743 1080 872 1130 c 1,34,-1
 882 1130 l 1,35,36
 1049 1064 1049 1064 1131 961 c 16,37,38
 1221 848 1221 848 1221 698 c 0,39,40
 1221 633 1221 633 1204 562 c 0,41,42
 1160 367 1160 367 1005 222 c 0,43,44
 843 71 843 71 658 0 c 1,0,-1
EndSplineSet
Validated: 1
EndChar

StartChar: c
Encoding: 99 99 52
Width: 1007
GlyphClass: 2
Flags: W
HStem: 0 21G<470 651.5> 1110 20G<683.5 871>
VStem: 214 169<341.887 657.192>
LayerCount: 2
Fore
SplineSet
563 0 m 1,0,-1
 553 0 l 1,1,2
 387 66 387 66 304 170 c 0,3,4
 214 282 214 282 214 432 c 0,5,6
 214 497 214 497 231 569 c 0,7,8
 276 761 276 761 432 908 c 24,9,10
 590 1057 590 1057 777 1130 c 1,11,-1
 787 1130 l 1,12,13
 955 1064 955 1064 1036 961 c 0,14,15
 1070 918 1070 918 1084 884 c 1,16,-1
 915 785 l 1,17,18
 902 808 902 808 879 834 c 0,19,20
 769 955 769 955 555 988 c 1,21,22
 439 808 439 808 396 616 c 0,23,24
 383 558 383 558 383 507 c 0,25,26
 384 383 384 383 462 296 c 0,27,28
 572 175 572 175 785 142 c 1,29,30
 824 194 824 194 836 251 c 128,-1,31
 848 308 848 308 848 342 c 9,32,-1
 975 293 l 17,33,34
 956 267 956 267 907 222 c 0,35,36
 740 69 740 69 563 0 c 1,0,-1
EndSplineSet
Validated: 1
EndChar

StartChar: d
Encoding: 100 100 53
Width: 1146
GlyphClass: 2
Flags: W
HStem: 0 21G<470 621 742 826> 1110 20G<686 816.5> 1490 20G<1260 1343>
VStem: 214 169<341.887 657.515>
LayerCount: 2
Fore
SplineSet
563 0 m 1,0,-1
 553 0 l 1,1,2
 387 67 387 67 304 170 c 0,3,4
 214 282 214 282 214 432 c 0,5,6
 214 498 214 498 231 569 c 0,7,8
 274 759 274 759 432 908 c 0,9,10
 595 1061 595 1061 777 1130 c 1,11,-1
 787 1130 l 1,12,13
 846 1107 846 1107 912 1068 c 0,14,15
 976 1030 976 1030 999 947 c 1,16,17
 1038 1140 1038 1140 1071 1418 c 1,18,19
 1185 1433 1185 1433 1335 1510 c 1,20,-1
 1343 1504 l 1,21,22
 1216 1143 1216 1143 1132 782 c 0,23,24
 1039 383 1039 383 1014 92 c 1,25,26
 901 77 901 77 751 0 c 1,27,-1
 742 6 l 1,28,29
 763 63 763 63 782 120 c 1,30,31
 679 45 679 45 563 0 c 1,0,-1
555 988 m 1,32,33
 441 815 441 815 396 616 c 0,34,35
 383 559 383 559 383 507 c 0,36,37
 383 383 383 383 461 296 c 0,38,39
 571 173 571 173 789 142 c 1,40,41
 862 355 862 355 949 710 c 1,42,43
 925 786 925 786 878 835 c 0,44,45
 760 958 760 958 555 988 c 1,32,33
EndSplineSet
Validated: 1
EndChar

StartChar: e
Encoding: 101 101 54
Width: 1045
GlyphClass: 2
Flags: W
HStem: 0 21G<466 654.5> 1110 20G<684 871>
VStem: 215 167<341.341 657.192> 934 179<601.976 820.195>
LayerCount: 2
Fore
SplineSet
563 0 m 1,0,-1
 553 0 l 1,1,2
 379 71 379 71 304 170 c 0,3,4
 215 288 215 288 215 437 c 0,5,6
 215 501 215 501 231 569 c 0,7,8
 276 761 276 761 432 908 c 0,9,10
 591 1058 591 1058 777 1130 c 1,11,-1
 787 1130 l 1,12,13
 955 1064 955 1064 1036 961 c 0,14,15
 1113 863 1113 863 1113 760 c 0,16,17
 1113 729 1113 729 1106 697 c 0,18,19
 1078 567 1078 567 944 476 c 0,20,21
 806 382 806 382 615 382 c 0,22,23
 566 382 566 382 512 388 c 1,24,25
 694 442 694 442 793 505 c 0,26,27
 910 580 910 580 930 670 c 0,28,29
 934 688 934 688 934 706 c 0,30,31
 934 771 934 771 879 834 c 0,32,33
 776 952 776 952 555 988 c 1,34,35
 441 808 441 808 396 616 c 0,36,37
 382 556 382 556 382 504 c 0,38,39
 382 379 382 379 462 296 c 0,40,41
 582 171 582 171 785 142 c 1,42,43
 820 195 820 195 835 252 c 0,44,45
 848 301 848 301 848 342 c 9,46,-1
 976 293 l 17,47,48
 922 234 922 234 908 221 c 0,49,50
 746 71 746 71 563 0 c 1,0,-1
EndSplineSet
Validated: 1
EndChar

StartChar: f
Encoding: 102 102 55
Width: 938
GlyphClass: 2
Flags: W
HStem: 0 21G<151 235> 658 146<272.845 348.058 602.193 886.037> 685 92<540 853.682> 1490 20G<876 1059>
LayerCount: 2
Fore
SplineSet
160 0 m 1,0,-1
 151 6 l 1,1,2
 270 342 270 342 350 675 c 1,3,4
 288 669 288 669 208 658 c 1,5,-1
 204 668 l 1,6,7
 264 740 264 740 301 804 c 1,8,9
 326 796 326 796 377 792 c 1,10,11
 405 930 405 930 406 1024 c 1,12,13
 456 1130 456 1130 624 1288 c 0,14,15
 783 1438 783 1438 969 1510 c 1,16,-1
 979 1510 l 1,17,18
 1139 1448 1139 1448 1228 1341 c 9,19,-1
 1070 1214 l 17,20,21
 961 1332 961 1332 748 1368 c 1,22,23
 607 1054 607 1054 540 778 c 1,24,25
 578 777 578 777 597 777 c 0,26,27
 763 777 763 777 951 804 c 1,28,-1
 954 794 l 1,29,30
 895 722 895 722 858 658 c 1,31,32
 720 685 720 685 561 685 c 0,33,34
 548 685 548 685 519 684 c 1,35,36
 460 408 460 408 423 92 c 1,37,38
 310 77 310 77 160 0 c 1,0,-1
EndSplineSet
Validated: 1
EndChar

StartChar: g
Encoding: 103 103 56
Width: 1163
GlyphClass: 2
Flags: W
HStem: -380 21G<383 567.5> 0 21G<470 625> 1110 20G<684 870>
VStem: 214 169<343.781 657.109> 957 169<427.621 788.346>
LayerCount: 2
Fore
SplineSet
563 0 m 1,0,-1
 553 0 l 1,1,2
 387 68 387 68 304 170 c 0,3,4
 214 281 214 281 214 431 c 0,5,6
 214 498 214 498 231 568 c 0,7,8
 274 760 274 760 432 908 c 0,9,10
 591 1057 591 1057 777 1130 c 1,11,-1
 787 1130 l 1,12,13
 953 1064 953 1064 1036 961 c 0,14,15
 1126 849 1126 849 1126 698 c 0,16,17
 1126 632 1126 632 1109 561 c 0,18,19
 1060 344 1060 344 1037 106 c 1,20,21
 984 -5 984 -5 821 -158 c 24,22,23
 660 -309 660 -309 475 -380 c 1,24,-1
 465 -380 l 1,25,26
 301 -315 301 -315 217 -210 c 0,27,28
 185 -170 185 -170 168 -134 c 1,29,-1
 337 -35 l 1,30,31
 349 -56 349 -56 375 -84 c 0,32,33
 485 -205 485 -205 697 -238 c 1,34,35
 812 -58 812 -58 856 134 c 2,36,-1
 944 514 l 2,37,38
 957 571 957 571 957 622 c 0,39,40
 957 747 957 747 879 834 c 0,41,42
 773 952 773 952 555 988 c 1,43,44
 440 812 440 812 396 616 c 0,45,46
 383 558 383 558 383 507 c 0,47,48
 383 384 383 384 462 296 c 0,49,50
 576 170 576 170 808 138 c 1,51,52
 687 48 687 48 563 0 c 1,0,-1
EndSplineSet
Validated: 1
EndChar

StartChar: h
Encoding: 104 104 57
Width: 1160
GlyphClass: 2
Flags: W
HStem: 0 21G<151 235 809 893> 1110 20G<754 903> 1490 20G<666 752>
VStem: 983 178<438 800.059>
LayerCount: 2
Fore
SplineSet
160 0 m 1,0,-1
 151 6 l 1,1,2
 280 369 280 369 363 730 c 0,3,4
 440 1064 440 1064 480 1418 c 1,5,6
 588 1431 588 1431 744 1510 c 1,7,-1
 752 1504 l 1,8,9
 668 1262 668 1262 599 1015 c 1,10,11
 696 1085 696 1085 812 1130 c 1,12,-1
 822 1130 l 1,13,14
 984 1068 984 1068 1071 961 c 0,15,16
 1161 851 1161 851 1161 700 c 0,17,18
 1161 635 1161 635 1144 562 c 0,19,20
 1079 283 1079 283 1079 138 c 0,21,22
 1079 113 1079 113 1081 92 c 1,23,24
 968 77 968 77 818 0 c 1,25,-1
 809 6 l 1,26,27
 920 320 920 320 970 537 c 0,28,29
 983 593 983 593 983 642 c 0,30,31
 983 757 983 757 913 834 c 0,32,33
 805 953 805 953 592 988 c 1,34,35
 571 909 571 909 541 782 c 0,36,37
 460 437 460 437 423 92 c 1,38,39
 310 77 310 77 160 0 c 1,0,-1
EndSplineSet
Validated: 1
EndChar

StartChar: i
Encoding: 105 105 58
Width: 552
GlyphClass: 2
Flags: W
HStem: 0 21G<151 235> 1110 20G<578 661> 1490 20G<654.5 733>
VStem: 151 582
LayerCount: 2
Fore
SplineSet
725 1510 m 1,0,-1
 733 1504 l 1,1,2
 695 1408 695 1408 686 1362 c 0,3,4
 678 1323 678 1323 670 1247 c 1,5,6
 572 1230 572 1230 432 1159 c 1,7,-1
 423 1165 l 1,8,9
 459 1253 459 1253 471 1305 c 0,10,11
 480 1344 480 1344 485 1422 c 1,12,13
 584 1438 584 1438 725 1510 c 1,0,-1
160 0 m 1,14,-1
 151 6 l 1,15,16
 264 334 264 334 318 565 c 0,17,18
 372 797 372 797 390 1038 c 1,19,20
 503 1053 503 1053 653 1130 c 1,21,-1
 661 1124 l 1,22,23
 550 845 550 845 499 627 c 0,24,25
 435 354 435 354 423 92 c 1,26,27
 310 77 310 77 160 0 c 1,14,-1
EndSplineSet
Validated: 1
EndChar

StartChar: j
Encoding: 106 106 59
Width: 552
GlyphClass: 2
Flags: W
HStem: -380 21G<-80 -3.5> 1110 20G<578 661> 1490 20G<654.5 733>
LayerCount: 2
Fore
SplineSet
-70 -380 m 9,0,-1
 -80 -377 l 17,1,2
 122 -101 122 -101 184 78 c 0,3,4
 247 261 247 261 318 565 c 0,5,6
 369 785 369 785 390 1038 c 1,7,8
 503 1053 503 1053 653 1130 c 1,9,-1
 661 1124 l 1,10,11
 549 844 549 844 499 627 c 0,12,13
 451 418 451 418 428 172 c 1,14,15
 354 25 354 25 198 -142 c 0,16,17
 63 -287 63 -287 -70 -380 c 9,0,-1
725 1510 m 1,18,-1
 733 1504 l 1,19,20
 695 1408 695 1408 686 1362 c 0,21,22
 678 1323 678 1323 670 1247 c 1,23,24
 572 1230 572 1230 432 1159 c 1,25,-1
 423 1165 l 1,26,27
 459 1253 459 1253 471 1305 c 0,28,29
 480 1344 480 1344 485 1422 c 1,30,31
 584 1438 584 1438 725 1510 c 1,18,-1
EndSplineSet
Validated: 3073
EndChar

StartChar: k
Encoding: 107 107 60
Width: 1055
GlyphClass: 2
Flags: W
HStem: 0 21G<151 235 794 878> 1110 20G<957.5 1097> 1490 20G<665.5 752>
DStem2: 363 730 541 782 0.199461 0.979906<-501.755 697.512>
LayerCount: 2
Fore
SplineSet
160 0 m 1,0,-1
 151 6 l 1,1,2
 280 371 280 371 363 730 c 0,3,4
 440 1065 440 1065 480 1418 c 1,5,6
 587 1430 587 1430 744 1510 c 1,7,-1
 752 1504 l 1,8,9
 628 1144 628 1144 541 782 c 0,10,11
 522 703 522 703 505 620 c 1,12,13
 828 843 828 843 1087 1130 c 1,14,-1
 1097 1129 l 1,15,16
 1142 1070 1142 1070 1194 1045 c 1,17,18
 972 905 972 905 774 727 c 1,19,20
 834 412 834 412 1066 92 c 1,21,22
 953 77 953 77 803 0 c 1,23,-1
 794 6 l 1,24,25
 746 372 746 372 602 584 c 1,26,27
 512 500 512 500 471 440 c 1,28,29
 439 266 439 266 423 92 c 1,30,31
 310 77 310 77 160 0 c 1,0,-1
EndSplineSet
Validated: 1
EndChar

StartChar: l
Encoding: 108 108 61
Width: 555
GlyphClass: 2
Flags: W
HStem: 0 21G<151 235> 1490 20G<666 752>
VStem: 151 601
LayerCount: 2
Fore
SplineSet
160 0 m 1,0,-1
 151 6 l 1,1,2
 282 376 282 376 363 730 c 0,3,4
 439 1063 439 1063 480 1418 c 1,5,6
 588 1431 588 1431 744 1510 c 1,7,-1
 752 1504 l 1,8,9
 628 1157 628 1157 541 782 c 0,10,11
 459 428 459 428 423 92 c 1,12,13
 310 77 310 77 160 0 c 1,0,-1
EndSplineSet
Validated: 1
EndChar

StartChar: m
Encoding: 109 109 62
Width: 1818
GlyphClass: 2
Flags: W
HStem: 0 21G<151 235 809 893 1467 1551> 942 188<1372.18 1495.05>
VStem: 983 178<440.085 800.827> 1641 178<440.372 801.296>
LayerCount: 2
Fore
SplineSet
160 0 m 1,0,-1
 151 6 l 1,1,2
 264 334 264 334 318 565 c 0,3,4
 372 797 372 797 390 1038 c 1,5,6
 503 1053 503 1053 653 1130 c 1,7,-1
 661 1124 l 1,8,9
 643 1078 643 1078 626 1033 c 1,10,11
 715 1093 715 1093 812 1130 c 1,12,-1
 822 1130 l 1,13,14
 982 1068 982 1068 1071 961 c 0,15,16
 1096 931 1096 931 1112 900 c 1,17,18
 1284 1058 1284 1058 1470 1130 c 1,19,-1
 1480 1130 l 1,20,21
 1646 1065 1646 1065 1729 961 c 0,22,23
 1819 848 1819 848 1819 698 c 0,24,25
 1819 633 1819 633 1802 562 c 0,26,27
 1737 287 1737 287 1737 136 c 0,28,29
 1737 112 1737 112 1739 92 c 1,30,31
 1626 77 1626 77 1476 0 c 1,32,-1
 1467 6 l 1,33,34
 1581 330 1581 330 1628 537 c 0,35,36
 1641 594 1641 594 1641 644 c 0,37,38
 1641 758 1641 758 1571 834 c 0,39,40
 1470 942 1470 942 1343 942 c 0,41,42
 1213 942 1213 942 1134 852 c 1,43,44
 1161 782 1161 782 1161 700 c 0,45,46
 1161 634 1161 634 1144 562 c 0,47,48
 1079 287 1079 287 1079 138 c 0,49,50
 1079 113 1079 113 1081 92 c 1,51,52
 968 77 968 77 818 0 c 1,53,-1
 809 6 l 1,54,55
 922 328 922 328 970 537 c 0,56,57
 983 594 983 594 983 643 c 0,58,59
 983 758 983 758 913 834 c 0,60,61
 808 948 808 948 608 985 c 1,62,63
 536 789 536 789 499 627 c 0,64,65
 435 350 435 350 423 92 c 1,66,67
 310 77 310 77 160 0 c 1,0,-1
EndSplineSet
Validated: 1
EndChar

StartChar: n
Encoding: 110 110 63
Width: 1160
GlyphClass: 2
Flags: W
HStem: 0 21G<151 235 809 893> 1110 20G<578 661 763.5 902>
VStem: 983 178<439.878 800.703>
LayerCount: 2
Fore
SplineSet
160 0 m 1,0,-1
 151 6 l 1,1,2
 264 334 264 334 318 565 c 0,3,4
 372 797 372 797 390 1038 c 1,5,6
 503 1053 503 1053 653 1130 c 1,7,-1
 661 1124 l 1,8,9
 643 1078 643 1078 626 1033 c 1,10,11
 715 1093 715 1093 812 1130 c 1,12,-1
 822 1130 l 1,13,14
 982 1067 982 1067 1071 961 c 0,15,16
 1161 854 1161 854 1161 699 c 0,17,18
 1161 633 1161 633 1144 562 c 0,19,20
 1079 286 1079 286 1079 137 c 0,21,22
 1079 113 1079 113 1081 92 c 1,23,24
 968 77 968 77 818 0 c 1,25,-1
 809 6 l 1,26,27
 922 328 922 328 970 537 c 0,28,29
 983 594 983 594 983 643 c 0,30,31
 983 758 983 758 913 834 c 0,32,33
 808 948 808 948 608 985 c 1,34,35
 536 789 536 789 499 627 c 0,36,37
 435 350 435 350 423 92 c 1,38,39
 310 77 310 77 160 0 c 1,0,-1
EndSplineSet
Validated: 1
EndChar

StartChar: o
Encoding: 111 111 64
Width: 1079
GlyphClass: 2
Flags: W
HStem: 0 21G<470 651.5> 1110 20G<683.5 870.5>
VStem: 214 169<341.855 657.192> 957 169<472.855 788.6>
LayerCount: 2
Fore
SplineSet
563 0 m 1,0,1
 553 0 l 1,2,3
 387 66 387 66 304 170 c 0,4,5
 214 282 214 282 214 432 c 0,6,7
 214 497 214 497 231 569 c 0,8,9
 276 761 276 761 432 908 c 24,10,11
 590 1057 590 1057 777 1130 c 1,12,-1
 787 1130 l 1,13,14
 954 1064 954 1064 1036 961 c 0,15,16
 1126 848 1126 848 1126 698 c 0,17,18
 1126 633 1126 633 1109 562 c 0,19,20
 1065 366 1065 366 907 222 c 0,21,22
 740 69 740 69 563 0 c 1,0,1
785 142 m 1,23,24
 902 325 902 325 944 514 c 0,25,26
 957 573 957 573 957 625 c 0,27,28
 957 749 957 749 879 834 c 0,29,30
 765 955 765 955 555 988 c 1,31,32
 439 808 439 808 396 616 c 0,33,34
 383 560 383 560 383 506 c 0,35,36
 383 383 383 383 462 296 c 0,37,38
 572 175 572 175 785 142 c 1,23,24
EndSplineSet
Validated: 1
EndChar

StartChar: p
Encoding: 112 112 65
Width: 1143
GlyphClass: 2
Flags: W
HStem: -380 21G<61 144> 0 21G<587.5 717.5> 1110 20G<578 661 782.5 933.5>
VStem: 1021 169<472.141 786.156>
LayerCount: 2
Fore
SplineSet
627 0 m 1,0,-1
 617 0 l 1,1,2
 558 23 558 23 492 62 c 0,3,4
 428 100 428 100 405 183 c 1,5,6
 366 -10 366 -10 333 -288 c 1,7,8
 219 -303 219 -303 69 -380 c 1,9,-1
 61 -374 l 1,10,11
 189 -11 189 -11 272 348 c 0,12,13
 365 748 365 748 390 1038 c 1,14,15
 503 1053 503 1053 653 1130 c 1,16,-1
 661 1124 l 1,17,18
 641 1067 641 1067 622 1010 c 1,19,20
 724 1085 724 1085 841 1130 c 1,21,-1
 851 1130 l 1,22,23
 1016 1063 1016 1063 1100 960 c 0,24,25
 1190 849 1190 849 1190 699 c 0,26,27
 1190 634 1190 634 1173 561 c 0,28,29
 1128 368 1128 368 971 222 c 0,30,31
 808 70 808 70 627 0 c 1,0,-1
849 142 m 1,32,33
 963 317 963 317 1008 514 c 0,34,35
 1021 571 1021 571 1021 621 c 0,36,37
 1021 746 1021 746 942 834 c 0,38,39
 832 957 832 957 615 988 c 1,40,41
 542 775 542 775 455 420 c 1,42,43
 481 340 481 340 525 295 c 0,44,45
 646 172 646 172 849 142 c 1,32,33
EndSplineSet
Validated: 1
EndChar

StartChar: q
Encoding: 113 113 66
Width: 1174
GlyphClass: 2
Flags: W
HStem: -380 21G<686 769> 0 21G<469.5 627.5> 1110 20G<685 869.5>
VStem: 214 169<341.789 654.438>
DStem2: 729.484 -380 896.869 -380 0.224951 0.97437<147.731 1026.92>
LayerCount: 2
Fore
SplineSet
563 0 m 1,0,-1
 553 0 l 1,1,2
 386 66 386 66 304 169 c 16,3,4
 214 282 214 282 214 431 c 0,5,6
 214 496 214 496 231 568 c 0,7,8
 277 762 277 762 432 908 c 0,9,10
 593 1059 593 1059 777 1130 c 1,11,-1
 787 1130 l 1,12,13
 952 1064 952 1064 1036 960 c 0,14,15
 1126 849 1126 849 1126 698 c 0,16,17
 1126 633 1126 633 1109 561 c 1,18,19
 1045 263 1045 263 1022 162 c 0,20,21
 968 -71 968 -71 958 -288 c 1,22,23
 844 -303 844 -303 694 -380 c 1,24,-1
 686 -374 l 1,25,26
 752 -207 752 -207 856 168 c 0,27,28
 910 362 910 362 944 514 c 0,29,30
 957 572 957 572 957 623 c 0,31,32
 957 746 957 746 879 834 c 0,33,34
 775 952 775 952 555 988 c 1,35,36
 440 812 440 812 396 616 c 0,37,38
 383 558 383 558 383 507 c 0,39,40
 383 384 383 384 462 296 c 0,41,42
 576 170 576 170 809 138 c 1,43,44
 692 50 692 50 563 0 c 1,0,-1
EndSplineSet
Validated: 1
EndChar

StartChar: r
Encoding: 114 114 67
Width: 997
GlyphClass: 2
Flags: W
HStem: 0 21G<151 235> 1110 20G<578 661 765.5 902.5>
LayerCount: 2
Fore
SplineSet
160 0 m 1,0,-1
 151 6 l 1,1,2
 264 334 264 334 318 565 c 0,3,4
 372 797 372 797 390 1038 c 1,5,6
 503 1053 503 1053 653 1130 c 1,7,-1
 661 1124 l 1,8,9
 643 1078 643 1078 626 1033 c 1,10,11
 719 1095 719 1095 812 1130 c 1,12,-1
 822 1130 l 1,13,14
 983 1066 983 1066 1071 962 c 0,15,16
 1139 882 1139 882 1155 773 c 9,17,-1
 977 706 l 17,18,19
 963 779 963 779 913 834 c 0,20,21
 810 948 810 948 608 985 c 1,22,23
 536 789 536 789 499 627 c 0,24,25
 435 350 435 350 423 92 c 1,26,27
 310 77 310 77 160 0 c 1,0,-1
EndSplineSet
Validated: 1
EndChar

StartChar: s
Encoding: 115 115 68
Width: 948
GlyphClass: 2
Flags: W
HStem: 0 21G<395 580> 1110 20G<588.5 794.5>
VStem: 289 140<743 879.176> 791 155<306 451>
DStem2: 568 723 445 568 0.930803 -0.365521<-153.886 321.51>
LayerCount: 2
Fore
SplineSet
487 0 m 1,0,-1
 477 0 l 1,1,2
 313 66 313 66 228 170 c 0,3,4
 184 224 184 224 166 284 c 1,5,-1
 336 371 l 1,6,7
 355 332 355 332 386 296 c 0,8,9
 488 180 488 180 709 142 c 1,10,11
 772 234 772 234 786 299 c 0,12,13
 791 322 791 322 791 342 c 0,14,15
 791 432 791 432 682 477 c 0,16,17
 641 494 641 494 445 568 c 0,18,19
 289 627 289 627 289 743 c 0,20,21
 289 764 289 764 294 787 c 0,22,23
 309 856 309 856 356 908 c 0,24,25
 476 1040 476 1040 701 1130 c 1,26,-1
 711 1130 l 1,27,28
 878 1062 878 1062 960 961 c 0,29,30
 985 930 985 930 999 904 c 1,31,-1
 825 808 l 1,32,33
 821 815 821 815 803 834 c 0,34,35
 692 953 692 953 479 988 c 1,36,37
 445 942 445 942 433 897 c 0,38,39
 429 882 429 882 429 867 c 0,40,41
 429 777 429 777 568 723 c 0,42,43
 611 706 611 706 787 637 c 0,44,45
 946 574 946 574 946 451 c 0,46,47
 946 426 946 426 940 399 c 0,48,49
 919 302 919 302 832 221 c 0,50,51
 673 71 673 71 487 0 c 1,0,-1
EndSplineSet
Validated: 1
EndChar

StartChar: t
Encoding: 116 116 69
Width: 741
GlyphClass: 2
Flags: W
HStem: 0 21G<244 328> 984 146<307.845 507.966 720.034 921.155> 1490 20G<761 845>
DStem2: 456 730 634 782 0.249149 0.968465<-401.447 284.154 427.953 591.373>
LayerCount: 2
Fore
SplineSet
253 0 m 1,0,-1
 244 6 l 1,1,2
 374 373 374 373 456 730 c 0,3,4
 478 826 478 826 512 1009 c 1,5,6
 383 1004 383 1004 243 984 c 1,7,-1
 239 994 l 1,8,9
 299 1066 299 1066 336 1130 c 1,10,11
 427 1111 427 1111 529 1106 c 1,12,13
 556 1265 556 1265 573 1418 c 1,14,15
 685 1432 685 1432 837 1510 c 1,16,-1
 845 1504 l 1,17,18
 774 1306 774 1306 716 1105 c 1,19,20
 845 1110 845 1110 986 1130 c 1,21,-1
 990 1120 l 1,22,23
 930 1048 930 1048 893 984 c 1,24,25
 797 1004 797 1004 689 1009 c 1,26,27
 667 925 667 925 634 782 c 0,28,29
 552 429 552 429 516 92 c 1,30,31
 403 77 403 77 253 0 c 1,0,-1
EndSplineSet
Validated: 1
EndChar

StartChar: u
Encoding: 117 117 70
Width: 1160
GlyphClass: 2
Flags: W
HStem: 0 21G<516 657.5 759 843> 1110 20G<528 611 1186 1270>
VStem: 260 178<328.661 695.223>
LayerCount: 2
Fore
SplineSet
609 0 m 1,0,-1
 599 0 l 1,1,2
 433 65 433 65 350 169 c 0,3,4
 260 282 260 282 260 431 c 0,5,6
 260 497 260 497 277 568 c 0,7,8
 342 856 342 856 342 993 c 0,9,10
 342 1017 342 1017 340 1038 c 1,11,12
 453 1053 453 1053 603 1130 c 1,13,-1
 611 1124 l 1,14,15
 498 798 498 798 451 593 c 0,16,17
 438 536 438 536 438 486 c 0,18,19
 438 373 438 373 508 296 c 0,20,21
 613 182 613 182 812 145 c 1,22,23
 885 342 885 342 922 503 c 0,24,25
 986 781 986 781 998 1038 c 1,26,27
 1111 1053 1111 1053 1261 1130 c 1,28,-1
 1270 1124 l 1,29,30
 1151 779 1151 779 1102 565 c 0,31,32
 1049 333 1049 333 1031 92 c 1,33,34
 918 77 918 77 768 0 c 1,35,-1
 759 6 l 1,36,37
 778 52 778 52 794 97 c 1,38,39
 706 37 706 37 609 0 c 1,0,-1
EndSplineSet
Validated: 1
EndChar

StartChar: v
Encoding: 118 118 71
Width: 1027
GlyphClass: 2
Flags: W
HStem: 0 21G<404 480> 1110 20G<407 486 1230.5 1282>
LayerCount: 2
Fore
SplineSet
413 0 m 1,0,-1
 404 6 l 1,1,2
 405 47 405 47 405 88 c 0,3,4
 405 585 405 585 246 1043 c 1,5,6
 336 1059 336 1059 478 1130 c 1,7,-1
 486 1124 l 1,8,9
 485 1089 485 1089 485 1056 c 0,10,11
 485 576 485 576 614 258 c 1,12,13
 856 599 856 599 1100 1058 c 1,14,15
 1188 1086 1188 1086 1273 1130 c 1,16,-1
 1282 1124 l 1,17,18
 893 592 893 592 645 87 c 1,19,20
 547 68 547 68 413 0 c 1,0,-1
EndSplineSet
Validated: 1
EndChar

StartChar: w
Encoding: 119 119 72
Width: 1818
GlyphClass: 2
Flags: W
HStem: 0 188<583.823 706.825> 1110 20G<528 611 1186 1270 1844 1928>
VStem: 260 178<328.661 695.43> 918 178<329.476 689.231>
LayerCount: 2
Fore
SplineSet
609 0 m 1,0,-1
 599 0 l 1,1,2
 434 65 434 65 350 169 c 0,3,4
 260 282 260 282 260 431 c 0,5,6
 260 497 260 497 277 568 c 0,7,8
 342 855 342 855 342 994 c 0,9,10
 342 1019 342 1019 340 1038 c 1,11,12
 453 1053 453 1053 603 1130 c 1,13,-1
 611 1124 l 1,14,15
 498 800 498 800 451 593 c 0,16,17
 438 536 438 536 438 486 c 0,18,19
 438 373 438 373 508 296 c 0,20,21
 609 188 609 188 735 188 c 0,22,23
 865 188 865 188 945 278 c 1,24,25
 918 348 918 348 918 430 c 0,26,27
 918 496 918 496 935 568 c 0,28,29
 1000 843 1000 843 1000 992 c 0,30,31
 1000 1017 1000 1017 998 1038 c 1,32,33
 1111 1053 1111 1053 1261 1130 c 1,34,-1
 1270 1124 l 1,35,36
 1156 798 1156 798 1109 593 c 0,37,38
 1096 536 1096 536 1096 486 c 0,39,40
 1096 374 1096 374 1166 296 c 0,41,42
 1271 182 1271 182 1470 145 c 1,43,44
 1543 342 1543 342 1580 503 c 0,45,46
 1644 781 1644 781 1656 1038 c 1,47,48
 1769 1053 1769 1053 1919 1130 c 1,49,-1
 1928 1124 l 1,50,51
 1809 779 1809 779 1760 565 c 0,52,53
 1707 333 1707 333 1689 92 c 1,54,55
 1576 77 1576 77 1426 0 c 1,56,-1
 1417 6 l 1,57,58
 1436 52 1436 52 1452 97 c 1,59,60
 1364 37 1364 37 1267 0 c 1,61,-1
 1257 0 l 1,62,63
 1097 62 1097 62 1008 169 c 0,64,65
 983 199 983 199 967 230 c 1,66,67
 795 72 795 72 609 0 c 1,0,-1
EndSplineSet
Validated: 1
EndChar

StartChar: x
Encoding: 120 120 73
Width: 978
GlyphClass: 2
Flags: W
HStem: 0 21G<127 238 722 805> 1110 20G<439 522 975.5 1092>
LayerCount: 2
Fore
SplineSet
137 0 m 1,0,-1
 127 1 l 1,1,2
 82 60 82 60 30 85 c 1,3,4
 308 314 308 314 537 554 c 1,5,6
 436 804 436 804 258 1038 c 1,7,8
 364 1053 364 1053 514 1130 c 1,9,-1
 522 1124 l 1,10,11
 561 880 561 880 655 671 c 1,12,13
 869 879 869 879 1082 1130 c 1,14,-1
 1092 1129 l 1,15,16
 1137 1070 1137 1070 1189 1045 c 1,17,18
 933 838 933 838 689 597 c 1,19,20
 806 320 806 320 989 91 c 1,21,22
 879 77 879 77 731 0 c 1,23,-1
 722 6 l 1,24,25
 658 280 658 280 571 476 c 1,26,27
 339 258 339 258 137 0 c 1,0,-1
EndSplineSet
Validated: 1
EndChar

StartChar: y
Encoding: 121 121 74
Width: 1160
GlyphClass: 2
Flags: W
HStem: -380 21G<669 755> 0 21G<519 666.5> 1110 20G<528 611 1186 1270>
VStem: 260 178<329.5 691.487>
LayerCount: 2
Fore
SplineSet
609 0 m 1,0,-1
 599 0 l 1,1,2
 439 62 439 62 350 169 c 0,3,4
 260 278 260 278 260 429 c 0,5,6
 260 495 260 495 277 568 c 0,7,8
 342 847 342 847 342 992 c 0,9,10
 342 1017 342 1017 340 1038 c 1,11,12
 453 1053 453 1053 603 1130 c 1,13,-1
 611 1124 l 1,14,15
 501 807 501 807 451 593 c 0,16,17
 438 537 438 537 438 488 c 0,18,19
 438 373 438 373 508 296 c 0,20,21
 616 177 616 177 829 142 c 1,22,23
 852 228 852 228 880 348 c 0,24,25
 961 696 961 696 998 1038 c 1,26,27
 1111 1053 1111 1053 1261 1130 c 1,28,-1
 1270 1124 l 1,29,30
 1142 763 1142 763 1058 400 c 0,31,32
 981 67 981 67 941 -288 c 1,33,34
 833 -301 833 -301 677 -380 c 1,35,-1
 669 -374 l 1,36,37
 753 -132 753 -132 822 115 c 1,38,39
 724 45 724 45 609 0 c 1,0,-1
EndSplineSet
Validated: 1
EndChar

StartChar: z
Encoding: 122 122 75
Width: 969
GlyphClass: 2
Flags: W
HStem: 0 21G<52 164.5 754.5 847> 45 91<400.574 778.819> 994 92<433.437 804.717> 1110 20G<407.5 515 1046.5 1157>
LayerCount: 2
Fore
SplineSet
56 0 m 1,0,-1
 52 10 l 1,1,2
 504 522 504 522 807 989 c 1,3,4
 736 994 736 994 649 994 c 0,5,6
 473 994 473 994 284 878 c 1,7,-1
 280 888 l 1,8,9
 387 1020 387 1020 428 1130 c 1,10,11
 602 1086 602 1086 773 1086 c 0,12,13
 940 1086 940 1086 1153 1130 c 1,14,-1
 1157 1120 l 1,15,16
 720 602 720 602 398 138 c 1,17,18
 466 136 466 136 504 136 c 0,19,20
 717 136 717 136 971 252 c 1,21,-1
 975 242 l 1,22,23
 867 110 867 110 827 0 c 1,24,25
 682 45 682 45 488 45 c 0,26,27
 273 45 273 45 56 0 c 1,0,-1
EndSplineSet
Validated: 1
EndChar

StartChar: braceleft
Encoding: 123 123 76
Width: 997
GlyphClass: 2
Flags: W
HStem: -20 20G<827.5 852.174> 652 192<346.186 435>
VStem: 396 173<105.165 646.489>
LayerCount: 2
Fore
SplineSet
200 622 m 1,0,-1
 196 632 l 1,1,2
 296 752 296 752 344 874 c 1,3,4
 414 844 414 844 479 844 c 1,5,6
 570 1180 570 1180 676 1392 c 0,7,8
 876 1777 876 1777 1224 1927 c 1,9,10
 1278 1886 1278 1886 1308 1824 c 0,11,12
 1337 1764 1337 1764 1337 1689 c 1,13,-1
 1165 1515 l 1,14,15
 1165 1631 1165 1631 1142 1677 c 0,16,17
 1106 1746 1106 1746 1062 1746 c 1,18,19
 803 1612 803 1612 622 832 c 0,20,21
 569 603 569 603 569 416 c 0,22,23
 569 243 569 243 614 105 c 0,24,25
 671 -73 671 -73 780 -182 c 1,26,27
 820 -141 820 -141 831 -95 c 0,28,29
 835 -78 835 -78 835 -61 c 0,30,31
 835 -30 835 -30 820 0 c 1,32,-1
 931 -69 l 1,33,34
 871 -168 871 -168 815 -223 c 0,35,36
 734 -302 734 -302 639 -345 c 1,37,38
 518 -214 518 -214 450 -13 c 0,39,40
 396 148 396 148 396 329 c 0,41,42
 396 483 396 483 435 652 c 1,43,44
 310 652 310 652 200 622 c 1,0,-1
EndSplineSet
Validated: 1
EndChar

StartChar: bar
Encoding: 124 124 77
Width: 620
GlyphClass: 2
Flags: W
VStem: 167 635
LayerCount: 2
Fore
SplineSet
175 -150 m 1,0,-1
 167 -144 l 1,1,2
 311 290 311 290 409 716 c 0,3,4
 508 1145 508 1145 563 1571 c 1,5,6
 630 1584 630 1584 793 1660 c 1,7,-1
 802 1654 l 1,8,9
 671 1273 671 1273 565 817 c 0,10,11
 463 377 463 377 406 -61 c 1,12,13
 339 -74 339 -74 175 -150 c 1,0,-1
EndSplineSet
Validated: 1
EndChar

StartChar: braceright
Encoding: 125 125 78
Width: 997
GlyphClass: 2
Flags: W
HStem: 652 192<908 996.814>
VStem: 793 169<887.433 1476.45>
LayerCount: 2
Fore
SplineSet
1143 874 m 1,0,-1
 1146 864 l 1,1,2
 1047 744 1047 744 999 622 c 1,3,4
 929 652 929 652 864 652 c 1,5,6
 792 404 792 404 686 190 c 0,7,8
 490 -194 490 -194 138 -345 c 1,9,10
 83 -304 83 -304 54 -242 c 0,11,12
 25 -179 25 -179 25 -107 c 1,13,-1
 197 67 l 1,14,15
 197 -50 197 -50 220 -95 c 0,16,17
 255 -164 255 -164 300 -164 c 1,18,19
 558 -31 558 -31 740 750 c 0,20,21
 793 977 793 977 793 1165 c 0,22,23
 793 1340 793 1340 748 1477 c 0,24,25
 689 1658 689 1658 582 1764 c 1,26,27
 542 1723 542 1723 531 1677 c 0,28,29
 527 1660 527 1660 527 1643 c 0,30,31
 527 1611 527 1611 542 1582 c 1,32,-1
 431 1651 l 1,33,34
 489 1748 489 1748 548 1805 c 0,35,36
 629 1884 629 1884 723 1927 c 1,37,38
 841 1801 841 1801 912 1595 c 0,39,40
 962 1450 962 1450 962 1267 c 0,41,42
 962 1074 962 1074 908 844 c 1,43,44
 1033 844 1033 844 1143 874 c 1,0,-1
EndSplineSet
Validated: 1
EndChar

StartChar: asciitilde
Encoding: 126 126 79
Width: 1236
GlyphClass: 2
Flags: W
HStem: 529 169<855.528 1066.15> 692 168<496.443 703.365>
LayerCount: 2
Fore
SplineSet
280 538 m 1,0,-1
 277 548 l 1,1,2
 383 692 383 692 425 802 c 1,3,4
 511 860 511 860 586 860 c 0,5,6
 682 860 682 860 757 757 c 0,7,8
 800 698 800 698 886 698 c 0,9,10
 1026 698 1026 698 1278 856 c 1,11,-1
 1281 846 l 1,12,13
 1175 702 1175 702 1133 592 c 1,14,15
 1046 529 1046 529 965 529 c 0,16,17
 874 529 874 529 801 636 c 0,18,19
 763 692 763 692 675 692 c 0,20,21
 542 692 542 692 280 538 c 1,0,-1
EndSplineSet
Validated: 1
EndChar

StartChar: exclamdown
Encoding: 161 161 81
Width: 612
GlyphClass: 2
Flags: W
HStem: 0 21G<172 256.5> 1490 20G<691 770>
VStem: 172 598
LayerCount: 2
Fore
SplineSet
180 0 m 1,0,-1
 172 6 l 1,1,2
 280 251 280 251 378 585 c 0,3,4
 443 807 443 807 515 1119 c 1,5,6
 596 1135 596 1135 653 1176 c 1,7,8
 592 912 592 912 526 595 c 0,9,10
 469 321 469 321 464 92 c 1,11,12
 333 79 333 79 180 0 c 1,0,-1
761 1510 m 1,13,-1
 770 1504 l 1,14,15
 732 1413 732 1413 721 1364 c 0,16,17
 712 1323 712 1323 707 1247 c 1,18,19
 609 1231 609 1231 468 1159 c 1,20,-1
 459 1165 l 1,21,22
 491 1247 491 1247 506 1307 c 0,23,24
 515 1343 515 1343 523 1422 c 1,25,26
 621 1439 621 1439 761 1510 c 1,13,-1
EndSplineSet
Validated: 1
EndChar

StartChar: sterling
Encoding: 163 163 82
Width: 1169
GlyphClass: 2
Flags: W
HStem: 0 21G<201 318.5 904.5 997> 45 91<485.569 926.914> 658 146<322.845 398.058 652.193 936.037> 685 92<590 903.682> 1490 20G<928.5 1109>
LayerCount: 2
Fore
SplineSet
210 0 m 1,0,-1
 201 6 l 1,1,2
 320 342 320 342 400 675 c 1,3,4
 338 669 338 669 258 658 c 1,5,-1
 254 668 l 1,6,7
 314 740 314 740 351 804 c 1,8,9
 376 796 376 796 427 792 c 1,10,11
 455 930 455 930 456 1024 c 1,12,13
 508 1133 508 1133 674 1288 c 0,14,15
 838 1441 838 1441 1019 1510 c 1,16,-1
 1029 1510 l 1,17,18
 1189 1449 1189 1449 1279 1341 c 9,19,-1
 1120 1214 l 17,20,21
 1011 1332 1011 1332 798 1368 c 1,22,23
 657 1054 657 1054 590 778 c 1,24,25
 628 777 628 777 647 777 c 0,26,27
 813 777 813 777 1001 804 c 1,28,-1
 1004 794 l 1,29,30
 945 722 945 722 908 658 c 1,31,32
 770 685 770 685 611 685 c 0,33,34
 598 685 598 685 569 684 c 1,35,36
 510 408 510 408 479 145 c 1,37,38
 541 136 541 136 654 136 c 0,39,40
 863 136 863 136 1121 252 c 1,41,-1
 1125 242 l 1,42,43
 1017 110 1017 110 977 0 c 1,44,45
 832 45 832 45 638 45 c 0,46,47
 427 45 427 45 210 0 c 1,0,-1
EndSplineSet
Validated: 1
EndChar

StartChar: currency
Encoding: 164 164 83
Width: 1497
GlyphClass: 2
Flags: W
VStem: 477 149<650.795 869.353> 1228 149<678.896 902.259>
LayerCount: 2
Fore
SplineSet
1089 501 m 1,0,1
 1198 622 1198 622 1223 743 c 0,2,3
 1228 767 1228 767 1228 789 c 0,4,5
 1228 888 1228 888 1123 952 c 0,6,7
 993 1031 993 1031 766 1052 c 1,8,9
 665 941 665 941 632 810 c 0,10,11
 626 786 626 786 626 763 c 0,12,13
 626 664 626 664 732 602 c 0,14,15
 865 523 865 523 1089 501 c 1,0,1
845 315 m 1,16,-1
 835 315 l 1,17,18
 688 362 688 362 602 432 c 1,19,20
 505 337 505 337 416 226 c 1,21,22
 349 280 349 280 226 315 c 1,23,-1
 225 326 l 1,24,25
 395 420 395 420 527 513 c 1,26,27
 477 588 477 588 477 682 c 0,28,29
 477 728 477 728 489 778 c 0,30,31
 523 921 523 921 648 1032 c 1,32,33
 559 1126 559 1126 432 1220 c 1,34,-1
 437 1231 l 1,35,36
 576 1266 576 1266 669 1320 c 1,37,38
 706 1209 706 1209 758 1114 c 1,39,40
 876 1191 876 1191 1010 1234 c 1,41,-1
 1020 1234 l 1,42,43
 1169 1187 1169 1187 1255 1116 c 1,44,45
 1350 1210 1350 1210 1438 1320 c 1,46,47
 1505 1266 1505 1266 1628 1231 c 1,48,-1
 1629 1220 l 1,49,50
 1460 1127 1460 1127 1329 1034 c 1,51,52
 1377 959 1377 959 1377 866 c 0,53,54
 1377 822 1377 822 1366 772 c 0,55,56
 1330 624 1330 624 1205 515 c 1,57,58
 1295 421 1295 421 1422 326 c 1,59,-1
 1417 315 l 1,60,61
 1278 280 1278 280 1185 226 c 1,62,63
 1148 338 1148 338 1094 434 c 1,64,65
 973 356 973 356 845 315 c 1,16,-1
EndSplineSet
Validated: 1
EndChar

StartChar: yen
Encoding: 165 165 84
Width: 1265
GlyphClass: 2
Flags: W
HStem: 0 21G<510 596> 365 222<352.479 503.438 977.077 1133.52> 656 222<1075.44 1198.52> 715 105<787 879.314> 1490 20G<563 649 1499.5 1562>
LayerCount: 2
Fore
SplineSet
519 0 m 1,0,-1
 510 6 l 1,1,2
 581 209 581 209 642 421 c 1,3,4
 467 413 467 413 240 365 c 1,5,-1
 237 375 l 1,6,7
 332 493 332 493 373 587 c 1,8,9
 501 549 501 549 634 536 c 1,10,11
 622 620 622 620 605 704 c 1,12,13
 463 690 463 690 305 656 c 1,14,-1
 302 666 l 1,15,16
 397 784 397 784 438 878 c 1,17,18
 487 859 487 859 573 847 c 1,19,20
 505 1138 505 1138 377 1418 c 1,21,22
 485 1431 485 1431 641 1510 c 1,23,-1
 649 1504 l 1,24,25
 666 1119 666 1119 753 822 c 1,26,27
 790 820 790 820 833 820 c 0,28,29
 896 820 896 820 967 826 c 1,30,31
 1170 1108 1170 1108 1339 1427 c 1,32,33
 1445 1453 1445 1453 1554 1510 c 1,34,-1
 1562 1504 l 1,35,36
 1293 1164 1293 1164 1072 837 c 1,37,38
 1182 851 1182 851 1311 878 c 1,39,-1
 1314 868 l 1,40,41
 1219 750 1219 750 1178 656 c 1,42,43
 1080 685 1080 685 981 699 c 1,44,-1
 876 533 l 1,45,46
 1040 544 1040 544 1246 587 c 1,47,-1
 1249 577 l 1,48,49
 1154 459 1154 459 1113 365 c 1,50,51
 971 407 971 407 828 419 c 1,52,53
 795 223 795 223 782 92 c 1,54,55
 673 79 673 79 519 0 c 1,0,-1
881 710 m 1,56,57
 827 714 827 714 787 715 c 1,58,-1
 820 633 l 1,59,-1
 881 710 l 1,56,57
EndSplineSet
Validated: 1
EndChar

StartChar: brokenbar
Encoding: 166 166 85
Width: 644
GlyphClass: 2
Flags: W
VStem: 179 635
LayerCount: 2
Fore
SplineSet
805 1660 m 1,0,-1
 814 1654 l 1,1,2
 711 1416 711 1416 670.5 1240.5 c 128,-1,3
 630 1065 630 1065 621 872 c 1,4,5
 550 857 550 857 391 783 c 1,6,-1
 382 789 l 1,7,8
 486 977 486 977 530 1169 c 128,-1,9
 574 1361 574 1361 575 1571 c 1,10,11
 654 1589 654 1589 805 1660 c 1,0,-1
187 -150 m 1,12,-1
 179 -144 l 1,13,14
 279 88 279 88 322 270 c 0,15,16
 363 445 363 445 371 638 c 1,17,18
 443 653 443 653 602 727 c 1,19,-1
 610 721 l 1,20,21
 509 536 509 536 463 341 c 0,22,23
 418 149 418 149 418 -61 c 1,24,25
 339 -79 339 -79 187 -150 c 1,12,-1
EndSplineSet
Validated: 1
EndChar

StartChar: section
Encoding: 167 167 86
Width: 1127
GlyphClass: 2
Flags: W
HStem: 0 21G<466 669.5> 1490 20G<805 1010>
VStem: 313 154<680 822.75> 504 143<1121 1256.88> 830 140<251.215 387> 1008 155<685.75 831>
DStem2: 785 1103 662 948 0.933549 -0.358451<-144.169 317.171>
LayerCount: 2
Fore
SplineSet
558 0 m 1,0,1
 548 0 l 1,2,3
 384 66 384 66 299 169 c 0,4,5
 276 197 276 197 260 226 c 1,6,-1
 434 322 l 1,7,8
 438 316 438 316 456 296 c 0,9,10
 566 177 566 177 780 142 c 1,11,12
 816 191 816 191 826 233 c 0,13,14
 830 250 830 250 830 266 c 0,15,16
 830 361 830 361 691 407 c 0,17,18
 679 411 679 411 472 493 c 0,19,20
 313 556 313 556 313 680 c 0,21,22
 313 704 313 704 319 731 c 0,23,24
 340 826 340 826 427 908 c 0,25,26
 480 958 480 958 542 1003 c 1,27,28
 494 918 494 918 473 831 c 0,29,30
 467 806 467 806 467 784 c 0,31,32
 467 690 467 690 577 653 c 0,33,34
 580 652 580 652 814 562 c 0,35,36
 970 502 970 502 970 387 c 0,37,38
 970 366 970 366 965 343 c 0,39,40
 950 275 950 275 902 222 c 0,41,42
 781 88 781 88 558 0 c 1,0,1
918 1510 m 1,43,-1
 928 1510 l 1,44,45
 1092 1444 1092 1444 1177 1341 c 0,46,47
 1200 1313 1200 1313 1215 1284 c 1,48,-1
 1041 1188 l 1,49,50
 1039 1192 1039 1192 1019 1214 c 0,51,52
 914 1332 914 1332 696 1368 c 1,53,54
 661 1322 661 1322 650 1277 c 0,55,56
 647 1265 647 1265 647 1253 c 0,57,58
 647 1170 647 1170 785 1103 c 0,59,60
 789 1101 789 1101 1004 1017 c 0,61,62
 1163 954 1163 954 1163 831 c 0,63,64
 1163 806 1163 806 1157 779 c 0,65,66
 1135 681 1135 681 1049 602 c 0,67,68
 997 554 997 554 934 507 c 1,69,70
 984 596 984 596 1003 679 c 0,71,72
 1008 701 1008 701 1008 721 c 0,73,74
 1008 813 1008 813 899 857 c 0,75,76
 858 873 858 873 662 948 c 0,77,78
 504 1008 504 1008 504 1121 c 0,79,80
 504 1143 504 1143 510 1167 c 0,81,82
 528 1239 528 1239 573 1288 c 0,83,84
 692 1418 692 1418 918 1510 c 1,43,-1
EndSplineSet
Validated: 1
EndChar

StartChar: dieresis
Encoding: 168 168 87
Width: 817
GlyphClass: 2
Flags: W
HStem: 1169 351
VStem: 421 596
LayerCount: 2
Fore
SplineSet
1008 1520 m 1,0,-1
 1017 1514 l 1,1,2
 982 1427 982 1427 970 1372 c 0,3,4
 961 1331 961 1331 953 1257 c 1,5,6
 855 1240 855 1240 715 1169 c 1,7,-1
 706 1175 l 1,8,9
 745 1267 745 1267 755 1315 c 0,10,11
 764 1357 764 1357 769 1432 c 1,12,13
 867 1448 867 1448 1008 1520 c 1,0,-1
723 1520 m 1,14,-1
 732 1514 l 1,15,16
 697 1427 697 1427 685 1372 c 0,17,18
 676 1331 676 1331 668 1257 c 1,19,20
 570 1240 570 1240 430 1169 c 1,21,-1
 421 1175 l 1,22,23
 460 1267 460 1267 470 1315 c 0,24,25
 479 1357 479 1357 484 1432 c 1,26,27
 582 1448 582 1448 723 1520 c 1,14,-1
EndSplineSet
Validated: 1
EndChar

StartChar: copyright
Encoding: 169 169 88
Width: 1401
GlyphClass: 2
Flags: W
HStem: 187 73<585.016 944.276> 1110 20G<878.5 986.5> 1254 77<797.54 1163.77>
VStem: 307 78<469.61 827.339> 560 129<618.424 849.86> 1367 76<684.422 1056.42>
LayerCount: 2
Fore
SplineSet
1008 1331 m 0,0,1
 1247 1331 1247 1331 1366 1158 c 0,2,3
 1443 1046 1443 1046 1443 901 c 0,4,5
 1443 831 1443 831 1425 754 c 0,6,7
 1366 500 1366 500 1171 350 c 0,8,9
 960 187 960 187 742 187 c 0,10,11
 518 187 518 187 392 350 c 0,12,13
 307 460 307 460 307 610 c 0,14,15
 307 677 307 677 324 754 c 0,16,17
 381 999 381 999 576 1163 c 0,18,19
 777 1331 777 1331 1008 1331 c 0,0,1
989 1254 m 0,20,21
 799 1254 799 1254 624 1113 c 0,22,23
 447 970 447 970 398 754 c 0,24,25
 385 697 385 697 385 643 c 0,26,27
 385 516 385 516 458 406 c 0,28,29
 555 260 555 260 761 260 c 0,30,31
 953 260 953 260 1131 406 c 0,32,33
 1301 545 1301 545 1350 754 c 0,34,35
 1367 826 1367 826 1367 889 c 0,36,37
 1367 1019 1367 1019 1296 1109 c 0,38,39
 1184 1253 1184 1253 989 1254 c 0,20,21
941 1130 m 1,40,41
 946 1130 946 1130 951 1130 c 1,42,43
 1022 1112 1022 1112 1071 1076 c 0,44,45
 1135 1029 1135 1029 1162 954 c 1,46,-1
 1013 870 l 1,47,48
 992 915 992 915 945 955 c 128,-1,49
 898 995 898 995 787 1005 c 1,50,51
 719 907 719 907 696 800 c 0,52,53
 689 768 689 768 689 739 c 0,54,55
 689 616 689 616 824 550 c 0,56,57
 886 520 886 520 966 513 c 1,58,59
 980 543 980 543 984 559 c 0,60,61
 989 581 989 581 989 606 c 0,62,63
 989 622 989 622 987 639 c 1,64,-1
 1105 590 l 1,65,66
 1076 549 1076 549 1056 531 c 0,67,68
 959 441 959 441 805 382 c 1,69,-1
 795 382 l 1,70,71
 686 421 686 421 624 492 c 0,72,73
 560 566 560 566 560 667 c 0,74,75
 560 707 560 707 570 752 c 0,76,77
 601 894 601 894 730 1005 c 0,78,79
 816 1081 816 1081 941 1130 c 1,40,41
EndSplineSet
Validated: 1
EndChar

StartChar: ordfeminine
Encoding: 170 170 89
Width: 1021
GlyphClass: 2
Flags: W
HStem: 717 146<385.963 669.777 679.994 706.036 716.193 999.155> 744 92<418.318 966.744> 1490 20G<792 883>
VStem: 510 130<1081.56 1200.43> 899 131<1065 1352.88>
LayerCount: 2
Fore
SplineSet
318 727 m 1,0,1
 377 799 377 799 414 863 c 1,2,3
 552 836 552 836 711 836 c 0,4,5
 877 836 877 836 1064 863 c 1,6,-1
 1068 853 l 1,7,8
 1008 781 1008 781 971 717 c 1,9,10
 835 744 835 744 675 744 c 0,11,12
 508 744 508 744 322 717 c 1,13,-1
 318 727 l 1,0,1
810 917 m 1,14,-1
 801 920 l 1,15,16
 816 951 816 951 830 994 c 1,17,-1
 712 919 l 1,18,-1
 699 919 l 1,19,20
 612 954 612 954 563 999 c 0,21,22
 510 1048 510 1048 510 1101 c 0,23,24
 510 1116 510 1116 513 1128 c 0,25,26
 535 1206 535 1206 605 1247 c 0,27,28
 656 1277 656 1277 715 1277 c 0,29,30
 761 1277 761 1277 810 1258 c 1,31,32
 722 1229 722 1229 705 1217 c 0,33,34
 652 1181 652 1181 641 1138 c 0,35,36
 640 1134 640 1134 640 1131 c 0,37,38
 640 1101 640 1101 698 1075 c 0,39,40
 773 1041 773 1041 843 1029 c 1,41,42
 867 1103 867 1103 893 1210 c 0,43,44
 899 1235 899 1235 899 1258 c 0,45,46
 899 1308 899 1308 867 1342 c 0,47,48
 818 1394 818 1394 666 1417 c 1,49,50
 747 1473 747 1473 837 1510 c 1,51,-1
 847 1510 l 1,52,53
 919 1484 919 1484 977 1423 c 0,54,55
 1030 1367 1030 1367 1030 1288 c 0,56,57
 1030 1258 1030 1258 1022 1225 c 0,58,59
 994 1109 994 1109 994 1027 c 0,60,61
 994 1006 994 1006 996 988 c 1,62,63
 918 986 918 986 810 917 c 1,14,-1
EndSplineSet
Validated: 1
EndChar

StartChar: guillemotleft
Encoding: 171 171 90
Width: 1523
GlyphClass: 2
Flags: W
LayerCount: 2
Fore
SplineSet
823 630 m 1,0,1
 934 766 934 766 971 872 c 1,2,3
 1261 999 1261 999 1609 1263 c 1,4,-1
 1612 1253 l 1,5,6
 1533 1158 1533 1158 1484 1058 c 1,7,8
 1285 959 1285 959 1065 776 c 1,9,10
 1118 556 1118 556 1420 445 c 1,11,-1
 1423 435 l 1,12,13
 1313 298 1313 298 1276 193 c 1,14,15
 1188 442 1188 442 827 620 c 1,16,-1
 823 630 l 1,0,1
295 630 m 1,17,18
 406 766 406 766 443 872 c 1,19,20
 733 999 733 999 1081 1263 c 1,21,-1
 1084 1253 l 1,22,23
 1005 1158 1005 1158 956 1058 c 1,24,25
 757 959 757 959 537 776 c 1,26,27
 590 556 590 556 892 445 c 1,28,-1
 895 435 l 1,29,30
 785 298 785 298 748 193 c 1,31,32
 660 442 660 442 299 620 c 1,33,-1
 295 630 l 1,17,18
EndSplineSet
Validated: 1
EndChar

StartChar: logicalnot
Encoding: 172 172 91
Width: 1266
GlyphClass: 2
Flags: W
HStem: 693 106<484.339 1079.87>
LayerCount: 2
Fore
SplineSet
303 635 m 1,0,-1
 299 645 l 1,1,2
 394 763 394 763 435 857 c 1,3,4
 631 799 631 799 831 799 c 0,5,6
 1030 799 1030 799 1308 857 c 1,7,-1
 1312 847 l 1,8,9
 1092 498 1092 498 1033 241 c 1,10,11
 956 220 956 220 845 164 c 1,12,-1
 836 170 l 1,13,14
 1050 503 1050 503 1086 658 c 1,15,16
 934 693 934 693 780 693 c 0,17,18
 580 693 580 693 303 635 c 1,0,-1
EndSplineSet
Validated: 1
EndChar

StartChar: uni00AD
Encoding: 173 173 92
Width: 1266
GlyphClass: 2
Flags: W
HStem: 635 222<414.479 568.051 1042.32 1196.18> 693 106<484.28 1126.21>
LayerCount: 2
Fore
SplineSet
303 635 m 1,0,-1
 299 645 l 1,1,2
 394 763 394 763 435 857 c 1,3,4
 631 799 631 799 831 799 c 0,5,6
 1030 799 1030 799 1308 857 c 1,7,-1
 1312 847 l 1,8,9
 1216 729 1216 729 1176 635 c 1,10,11
 979 693 979 693 779.5 693 c 128,-1,12
 580 693 580 693 303 635 c 1,0,-1
EndSplineSet
Validated: 1
EndChar

StartChar: registered
Encoding: 174 174 93
Width: 1401
GlyphClass: 2
Flags: W
HStem: 187 73<586.02 945.368> 534 73<736.336 901.454> 1027 132<707.962 1016.5> 1254 77<797.54 1165.5>
VStem: 306 79<468.154 827.613> 1072 146<737.177 968.621> 1367 75<686.122 1055.64>
LayerCount: 2
Fore
SplineSet
665 1097 m 1,0,1
 808 1159 808 1159 930 1159 c 0,2,3
 1081 1159 1081 1159 1156 1064 c 0,4,5
 1218 985 1218 985 1218 893 c 0,6,7
 1218 858 1218 858 1209 822 c 0,8,9
 1193 759 1193 759 1142 686 c 0,10,11
 1104 632 1104 632 1019 583 c 1,12,13
 1063 481 1063 481 1144 418 c 1,14,15
 1303 554 1303 554 1350 754 c 0,16,17
 1367 826 1367 826 1367 889 c 0,18,19
 1367 1020 1367 1020 1295 1110 c 0,20,21
 1181 1254 1181 1254 989 1254 c 0,22,23
 799 1254 799 1254 624 1113 c 0,24,25
 448 971 448 971 398 754 c 0,26,27
 385 698 385 698 385 645 c 0,28,29
 385 518 385 518 458 406 c 0,30,31
 482 369 482 369 514 342 c 1,32,33
 577 503 577 503 617 680 c 0,34,35
 636 764 636 764 647 933 c 1,36,37
 737 942 737 942 848 994 c 1,38,39
 773 820 773 820 750 708 c 0,40,41
 741 665 741 665 735 630 c 1,42,43
 776 607 776 607 814 607 c 0,44,45
 912 607 912 607 966 656 c 0,46,47
 1046 728 1046 728 1066 814 c 0,48,49
 1072 840 1072 840 1072 864 c 0,50,51
 1072 926 1072 926 1030 970 c 0,52,53
 976 1027 976 1027 893 1027 c 0,54,55
 764 1027 764 1027 571 912 c 1,56,-1
 665 1097 l 1,0,1
1008 1331 m 0,57,58
 1248 1331 1248 1331 1366 1158 c 1,59,60
 1442 1042 1442 1042 1442 898 c 0,61,62
 1442 830 1442 830 1425 754 c 0,63,64
 1365 502 1365 502 1171 350 c 0,65,66
 962 187 962 187 742 187 c 0,67,68
 519 187 519 187 392 350 c 0,69,70
 306 460 306 460 306 609 c 0,71,72
 306 678 306 678 324 754 c 0,73,74
 382 1000 382 1000 576 1163 c 0,75,76
 777 1331 777 1331 1008 1331 c 0,57,58
708 380 m 1,77,78
 607 362 607 362 525 333 c 1,79,80
 616 260 616 260 761 260 c 0,81,82
 927 260 927 260 1084 370 c 1,83,84
 1026 354 1026 354 971 324 c 1,85,86
 948 458 948 458 890 539 c 1,87,88
 827 534 827 534 818 534 c 0,89,90
 765 534 765 534 721 552 c 1,91,92
 708 459 708 459 708 380 c 1,77,78
EndSplineSet
Validated: 1
EndChar

StartChar: macron
Encoding: 175 175 94
Width: 1266
GlyphClass: 2
Flags: W
HStem: 1288 222<565.479 718.684 1193.32 1346.52> 1346 106<635.062 1276.94>
LayerCount: 2
Fore
SplineSet
586 1510 m 1,0,1
 782 1452 782 1452 982 1452 c 0,2,3
 1181 1452 1181 1452 1459 1510 c 1,4,-1
 1462 1500 l 1,5,6
 1367 1382 1367 1382 1326 1288 c 1,7,8
 1130 1346 1130 1346 930 1346 c 0,9,10
 731 1346 731 1346 453 1288 c 1,11,-1
 450 1298 l 1,12,13
 545 1416 545 1416 586 1510 c 1,0,1
EndSplineSet
Validated: 1
EndChar

StartChar: degree
Encoding: 176 176 95
Width: 874
GlyphClass: 2
Flags: W
HStem: 847 663
VStem: 414 141<1078.8 1270.02> 874 130<1086.03 1283.89>
LayerCount: 2
Fore
SplineSet
650 847 m 1,0,-1
 640 847 l 1,1,2
 552 881 552 881 485 946 c 0,3,4
 414 1015 414 1015 414 1111 c 0,5,6
 414 1143 414 1143 422 1179 c 0,7,8
 449 1300 449 1300 572 1398 c 0,9,10
 650 1460 650 1460 768 1510 c 1,11,-1
 778 1510 l 1,12,13
 866 1476 866 1476 933 1411 c 0,14,15
 1004 1342 1004 1342 1004 1246 c 0,16,17
 1004 1214 1004 1214 996 1178 c 0,18,19
 969 1055 969 1055 847 959 c 0,20,21
 767 895 767 895 650 847 c 1,0,-1
644 1371 m 1,22,23
 580 1318 580 1318 560 1224 c 0,24,25
 555 1201 555 1201 555 1179 c 0,26,27
 555 1091 555 1091 650 1042 c 0,28,29
 712 1011 712 1011 777 988 c 1,30,31
 851 1065 851 1065 868 1135 c 0,32,33
 874 1160 874 1160 874 1183 c 0,34,35
 874 1270 874 1270 784 1318 c 0,36,37
 732 1346 732 1346 644 1371 c 1,22,23
EndSplineSet
Validated: 1
EndChar

StartChar: plusminus
Encoding: 177 177 96
Width: 1266
GlyphClass: 2
Flags: W
HStem: 162 222<305.479 458.817 933.316 1086.52> 220 106<375.062 1016.95> 796 222<451.479 607.672 1077.33 1233.18> 853 109<512.781 776 909 1167.12>
LayerCount: 2
Fore
SplineSet
193 162 m 1,0,-1
 190 172 l 1,1,2
 285 290 285 290 326 384 c 1,3,4
 522 326 522 326 722 326 c 0,5,6
 921 326 921 326 1199 384 c 1,7,-1
 1202 374 l 1,8,9
 1107 256 1107 256 1066 162 c 1,10,11
 870 220 870 220 670.5 220 c 128,-1,12
 471 220 471 220 193 162 c 1,0,-1
340 796 m 1,13,-1
 336 806 l 1,14,15
 431 924 431 924 472 1018 c 1,16,17
 635 970 635 970 800 962 c 1,18,19
 825 1095 825 1095 825 1232 c 0,20,21
 825 1269 825 1269 823 1303 c 1,22,23
 921 1322 921 1322 1055 1390 c 1,24,-1
 1064 1384 l 1,25,26
 957 1146 957 1146 909 961 c 1,27,28
 1095 966 1095 966 1345 1018 c 1,29,-1
 1349 1008 l 1,30,31
 1253 890 1253 890 1213 796 c 1,32,33
 1050 844 1050 844 885 852 c 1,34,35
 860 719 860 719 860 582 c 0,36,37
 860 545 860 545 862 511 c 1,38,39
 764 492 764 492 630 424 c 1,40,-1
 621 430 l 1,41,42
 728 668 728 668 776 853 c 1,43,44
 590 848 590 848 340 796 c 1,13,-1
EndSplineSet
Validated: 1
EndChar

StartChar: uni00B2
Encoding: 178 178 97
Width: 870
GlyphClass: 2
Flags: W
HStem: 728 97<456.5 831.771> 1490 20G<713.5 796.5>
VStem: 442 123<1216.05 1331.05> 834 141<1149.87 1301.67>
LayerCount: 2
Fore
SplineSet
321 704 m 1,0,-1
 314 710 l 1,1,2
 349 866 349 866 460 954 c 0,3,4
 536 1015 536 1015 761 1131 c 0,5,6
 826 1165 826 1165 833 1214 c 0,7,8
 834 1221 834 1221 834 1227 c 0,9,10
 834 1267 834 1267 774 1315 c 0,11,12
 684 1384 684 1384 600 1402 c 1,13,14
 572 1354 572 1354 566 1316 c 0,15,16
 565 1309 565 1309 565 1303 c 0,17,18
 565 1273 565 1273 605 1261 c 1,19,-1
 465 1168 l 1,20,21
 442 1196 442 1196 442 1227 c 0,22,23
 442 1232 442 1232 445 1249 c 0,24,25
 461 1329 461 1329 573 1409 c 0,26,27
 684 1489 684 1489 743 1510 c 1,28,-1
 753 1510 l 1,29,30
 840 1477 840 1477 902 1418 c 0,31,32
 975 1349 975 1349 975 1270 c 0,33,34
 975 1249 975 1249 970 1229 c 0,35,36
 937 1099 937 1099 768 1035 c 0,37,38
 473 924 473 924 454 839 c 1,39,40
 519 825 519 825 642 825 c 0,41,42
 809 825 809 825 919 882 c 1,43,-1
 922 875 l 1,44,45
 861 792 861 792 835 704 c 1,46,47
 732 728 732 728 587 728 c 0,48,49
 459 728 459 728 321 704 c 1,0,-1
EndSplineSet
Validated: 1
EndChar

StartChar: uni00B3
Encoding: 179 179 98
Width: 872
GlyphClass: 2
Flags: W
HStem: 1490 20G<730 797.5>
VStem: 503 108<1270.63 1363.53> 831 119<889.321 1024.3 1223.46 1342.36>
LayerCount: 2
Fore
SplineSet
762 1510 m 1,0,1
 772 1510 l 1,2,3
 823 1489 823 1489 868 1456 c 0,4,5
 950 1395 950 1395 950 1325 c 0,6,7
 950 1311 950 1311 947 1297 c 0,8,9
 929 1212 929 1212 799 1155 c 1,10,11
 885 1134 885 1134 919 1101 c 0,12,13
 952 1069 952 1069 952 1018 c 0,14,15
 952 998 952 998 947 973 c 0,16,17
 923 875 923 875 805 802 c 0,18,19
 699 737 699 737 604 704 c 1,20,-1
 594 704 l 1,21,22
 517 739 517 739 463 781 c 0,23,24
 420 815 420 815 357 898 c 1,25,-1
 489 959 l 1,26,27
 514 915 514 915 572 875 c 0,28,29
 634 832 634 832 739 810 c 1,30,31
 818 853 818 853 835 936 c 0,32,33
 837 946 837 946 837 955 c 0,34,35
 837 1000 837 1000 781 1028 c 1,36,-1
 590 1112 l 1,37,38
 803 1179 803 1179 829 1270 c 0,39,40
 831 1277 831 1277 831 1284 c 0,41,42
 831 1324 831 1324 773 1349 c 0,43,-1
 651 1406 l 1,44,45
 621 1370 621 1370 613 1337 c 0,46,47
 611 1329 611 1329 611 1322 c 0,48,49
 611 1290 611 1290 648 1270 c 1,50,-1
 525 1219 l 1,51,52
 503 1239 503 1239 503 1272 c 0,53,54
 503 1286 503 1286 507 1302 c 0,55,56
 520 1353 520 1353 624 1430 c 0,57,58
 698 1486 698 1486 762 1510 c 1,0,1
EndSplineSet
Validated: 1
EndChar

StartChar: acute
Encoding: 180 180 99
Width: 709
GlyphClass: 2
Flags: W
HStem: 1166 344
VStem: 431 450
LayerCount: 2
Fore
SplineSet
708 1510 m 1,0,1
 819 1429 819 1429 881 1418 c 1,2,-1
 884 1408 l 1,3,4
 701 1328 701 1328 551 1166 c 1,5,-1
 540 1160 l 1,6,7
 499 1192 499 1192 431 1215 c 1,8,-1
 433 1225 l 1,9,10
 599 1330 599 1330 696 1504 c 1,11,-1
 708 1510 l 1,0,1
EndSplineSet
Validated: 1
EndChar

StartChar: periodcentered
Encoding: 183 183 100
Width: 532
GlyphClass: 2
Flags: W
HStem: 572 351
VStem: 283 311
LayerCount: 2
Fore
SplineSet
346 835 m 1,0,1
 444 851 444 851 585 923 c 1,2,-1
 594 917 l 1,3,4
 562 835 562 835 547 775 c 0,5,6
 538 739 538 739 530 660 c 1,7,8
 432 643 432 643 292 572 c 1,9,-1
 283 578 l 1,10,11
 320 666 320 666 332 719 c 0,12,13
 341 760 341 760 346 835 c 1,0,1
EndSplineSet
Validated: 1
EndChar

StartChar: cedilla
Encoding: 184 184 101
Width: 637
GlyphClass: 2
Flags: W
HStem: -380 9<38 44.8293>
VStem: 297 148<-215.511 -7.4519>
LayerCount: 2
Fore
SplineSet
231 67 m 1,0,1
 445 26 445 26 445 -114 c 0,2,3
 445 -137 445 -137 439 -163 c 0,4,5
 412 -281 412 -281 288 -348 c 1,6,7
 158 -348 158 -348 40 -380 c 1,8,-1
 38 -371 l 1,9,10
 258 -268 258 -268 291 -137 c 0,11,12
 297 -113 297 -113 297 -91 c 0,13,14
 297 -10 297 -10 229 57 c 1,15,-1
 231 67 l 1,0,1
EndSplineSet
Validated: 1
EndChar

StartChar: uni00B9
Encoding: 185 185 102
Width: 701
GlyphClass: 2
Flags: W
HStem: 1490 20G<792.5 848>
VStem: 383 465
LayerCount: 2
Fore
SplineSet
383 1227 m 1,0,1
 505 1306 505 1306 626 1433 c 1,2,3
 745 1454 745 1454 840 1510 c 1,4,-1
 848 1504 l 1,5,6
 770 1330 770 1330 728 1146 c 0,7,8
 685 956 685 956 681 784 c 1,9,10
 569 763 569 763 468 704 c 1,11,-1
 459 710 l 1,12,13
 528 858 528 858 581 1087 c 0,14,15
 612 1220 612 1220 623 1335 c 1,16,17
 554 1272 554 1272 501 1188 c 1,18,19
 466 1208 466 1208 383 1227 c 1,0,1
EndSplineSet
Validated: 1
EndChar

StartChar: ordmasculine
Encoding: 186 186 103
Width: 1021
GlyphClass: 2
Flags: W
HStem: 717 146<385.963 669.777 679.994 706.036 716.193 999.155> 744 92<418.318 966.744> 1490 20G<797.5 898>
VStem: 541 116<1085.98 1298.58> 919 118<1113.4 1327.71>
LayerCount: 2
Fore
SplineSet
318 727 m 1,0,1
 377 799 377 799 414 863 c 1,2,3
 552 836 552 836 711 836 c 0,4,5
 877 836 877 836 1064 863 c 1,6,-1
 1068 853 l 1,7,8
 1008 781 1008 781 971 717 c 1,9,10
 835 744 835 744 675 744 c 0,11,12
 508 744 508 744 322 717 c 1,13,-1
 318 727 l 1,0,1
844 1510 m 1,14,15
 855 1510 l 1,16,17
 941 1479 941 1479 989 1418 c 128,-1,18
 1037 1357 1037 1357 1037 1276 c 0,19,20
 1037 1241 1037 1241 1028 1204 c 0,21,22
 1002 1097 1002 1097 920 1021 c 0,23,24
 835 942 835 942 734 902 c 1,25,-1
 724 902 l 1,26,27
 632 936 632 936 588 993 c 0,28,29
 541 1054 541 1054 541 1134 c 0,30,31
 541 1169 541 1169 550 1207 c 0,32,33
 576 1317 576 1317 662 1396 c 0,34,35
 751 1479 751 1479 844 1510 c 1,14,15
729 1393 m 1,36,37
 686 1325 686 1325 666 1245 c 0,38,39
 657 1209 657 1209 657 1178 c 0,40,41
 657 1116 657 1116 693 1085 c 0,42,43
 752 1033 752 1033 849 1018 c 1,44,45
 892 1086 892 1086 911 1166 c 0,46,47
 919 1199 919 1199 919 1228 c 0,48,49
 919 1288 919 1288 881 1329 c 0,50,51
 833 1381 833 1381 729 1393 c 1,36,37
EndSplineSet
Validated: 1
EndChar

StartChar: guillemotright
Encoding: 187 187 104
Width: 1523
GlyphClass: 2
Flags: W
LayerCount: 2
Fore
SplineSet
1564 826 m 1,0,1
 1453 690 1453 690 1416 584 c 1,2,3
 1127 457 1127 457 779 193 c 1,4,-1
 775 203 l 1,5,6
 854 298 854 298 903 398 c 1,7,8
 1102 497 1102 497 1322 680 c 1,9,10
 1269 900 1269 900 967 1011 c 1,11,-1
 964 1021 l 1,12,13
 1074 1158 1074 1158 1112 1263 c 1,14,15
 1199 1014 1199 1014 1560 836 c 1,16,-1
 1564 826 l 1,0,1
1036 826 m 1,17,18
 925 690 925 690 888 584 c 1,19,20
 599 457 599 457 251 193 c 1,21,-1
 247 203 l 1,22,23
 326 298 326 298 375 398 c 1,24,25
 574 497 574 497 794 680 c 1,26,27
 741 900 741 900 439 1011 c 1,28,-1
 436 1021 l 1,29,30
 546 1158 546 1158 584 1263 c 1,31,32
 671 1014 671 1014 1032 836 c 1,33,-1
 1036 826 l 1,17,18
EndSplineSet
Validated: 1
EndChar

StartChar: onequarter
Encoding: 188 188 105
Width: 1443
GlyphClass: 2
Flags: W
HStem: 0 21G<356 411 1038 1098> 207 51<878.458 1110.72> 1490 20G<792.5 848 1355 1410.5>
LayerCount: 2
Fore
SplineSet
411 6 m 1,0,-1
 400 0 l 1,1,2
 312 58 312 58 229 82 c 1,3,4
 519 395 519 395 864 830 c 0,5,6
 1126 1160 1126 1160 1355 1504 c 1,7,-1
 1367 1510 l 1,8,9
 1454 1452 1454 1452 1538 1428 c 1,10,11
 1195 1070 1195 1070 959 771 c 0,12,13
 616 337 616 337 411 6 c 1,0,-1
383 1227 m 1,14,15
 505 1306 505 1306 626 1433 c 1,16,17
 745 1454 745 1454 840 1510 c 1,18,-1
 848 1504 l 1,19,20
 770 1330 770 1330 728 1146 c 0,21,22
 685 956 685 956 681 784 c 1,23,24
 569 763 569 763 468 704 c 1,25,-1
 459 710 l 1,26,27
 528 858 528 858 581 1087 c 0,28,29
 612 1220 612 1220 623 1335 c 1,30,31
 554 1272 554 1272 501 1188 c 1,32,33
 466 1208 466 1208 383 1227 c 1,14,15
1047 0 m 1,34,-1
 1038 6 l 1,35,36
 1077 87 1077 87 1113 201 c 1,37,38
 1040 207 1040 207 965 207 c 0,39,40
 841 207 841 207 737 195 c 1,41,-1
 717 250 l 1,42,43
 1001 471 1001 471 1205 729 c 1,44,45
 1324 750 1324 750 1419 806 c 1,46,-1
 1428 800 l 1,47,48
 1352 630 1352 630 1308 442 c 0,49,50
 1264 252 1264 252 1260 80 c 1,51,52
 1149 59 1149 59 1047 0 c 1,34,-1
1188 620 m 1,53,54
 992 432 992 432 877 267 c 1,55,56
 901 258 901 258 1008 258 c 0,57,58
 1065 258 1065 258 1132 267 c 1,59,60
 1149 346 1149 346 1168 442 c 0,61,62
 1186 535 1186 535 1188 620 c 1,53,54
EndSplineSet
Validated: 1
EndChar

StartChar: onehalf
Encoding: 189 189 106
Width: 1550
GlyphClass: 2
Flags: W
HStem: 0 21G<328 383 831 907 1300.5 1365> 24 97<973.5 1348.77> 1490 20G<792.5 848 1327 1382.5>
VStem: 959 123<512.053 627.051> 1351 141<445.865 597.67>
LayerCount: 2
Fore
SplineSet
383 6 m 1,0,-1
 372 0 l 1,1,2
 284 58 284 58 201 82 c 1,3,4
 491 395 491 395 836 830 c 0,5,6
 1098 1160 1098 1160 1327 1504 c 1,7,-1
 1339 1510 l 1,8,9
 1426 1452 1426 1452 1510 1428 c 1,10,11
 1167 1070 1167 1070 931 771 c 0,12,13
 588 337 588 337 383 6 c 1,0,-1
838 0 m 1,14,-1
 831 6 l 1,15,16
 866 162 866 162 977 250 c 0,17,18
 1053 311 1053 311 1278 427 c 0,19,20
 1343 461 1343 461 1350 510 c 0,21,22
 1351 517 1351 517 1351 523 c 0,23,24
 1351 563 1351 563 1291 611 c 0,25,26
 1201 680 1201 680 1117 698 c 1,27,28
 1089 650 1089 650 1083 612 c 0,29,30
 1082 605 1082 605 1082 599 c 0,31,32
 1082 569 1082 569 1122 557 c 1,33,-1
 982 464 l 1,34,35
 959 492 959 492 959 523 c 0,36,37
 959 528 959 528 962 545 c 0,38,39
 978 625 978 625 1090 705 c 0,40,41
 1201 785 1201 785 1260 806 c 1,42,-1
 1270 806 l 1,43,44
 1357 773 1357 773 1419 714 c 0,45,46
 1492 645 1492 645 1492 566 c 0,47,48
 1492 545 1492 545 1487 525 c 0,49,50
 1454 395 1454 395 1285 331 c 0,51,52
 990 220 990 220 971 135 c 1,53,54
 1036 121 1036 121 1159 121 c 0,55,56
 1326 121 1326 121 1436 178 c 1,57,-1
 1439 171 l 1,58,59
 1378 88 1378 88 1352 0 c 1,60,61
 1249 24 1249 24 1104 24 c 0,62,63
 976 24 976 24 838 0 c 1,14,-1
383 1227 m 1,64,65
 505 1306 505 1306 626 1433 c 1,66,67
 745 1454 745 1454 840 1510 c 1,68,-1
 848 1504 l 1,69,70
 770 1330 770 1330 728 1146 c 0,71,72
 685 956 685 956 681 784 c 1,73,74
 569 763 569 763 468 704 c 1,75,-1
 459 710 l 1,76,77
 528 858 528 858 581 1087 c 0,78,79
 612 1220 612 1220 623 1335 c 1,80,81
 554 1272 554 1272 501 1188 c 1,82,83
 466 1208 466 1208 383 1227 c 1,64,65
EndSplineSet
Validated: 1
EndChar

StartChar: threequarters
Encoding: 190 190 107
Width: 1620
GlyphClass: 2
Flags: W
HStem: 0 21G<530 585 1215 1275> 207 51<1055.46 1287.72> 1490 20G<730 797.5 1529 1584.5>
VStem: 503 108<1270.63 1363.53> 831 119<889.321 1024.3 1223.46 1342.36>
LayerCount: 2
Fore
SplineSet
585 6 m 1,0,-1
 574 0 l 1,1,2
 486 58 486 58 403 82 c 1,3,4
 693 395 693 395 1038 830 c 0,5,6
 1300 1160 1300 1160 1529 1504 c 1,7,-1
 1541 1510 l 1,8,9
 1628 1452 1628 1452 1712 1428 c 1,10,11
 1369 1070 1369 1070 1133 771 c 0,12,13
 790 337 790 337 585 6 c 1,0,-1
1224 0 m 1,14,-1
 1215 6 l 1,15,16
 1254 87 1254 87 1290 201 c 1,17,18
 1217 207 1217 207 1142 207 c 0,19,20
 1018 207 1018 207 914 195 c 1,21,-1
 894 250 l 1,22,23
 1178 471 1178 471 1382 729 c 1,24,25
 1501 750 1501 750 1596 806 c 1,26,-1
 1605 800 l 1,27,28
 1529 630 1529 630 1485 442 c 0,29,30
 1441 252 1441 252 1437 80 c 1,31,32
 1326 59 1326 59 1224 0 c 1,14,-1
1365 620 m 1,33,34
 1169 432 1169 432 1054 267 c 1,35,36
 1078 258 1078 258 1185 258 c 0,37,38
 1242 258 1242 258 1309 267 c 1,39,40
 1326 346 1326 346 1345 442 c 0,41,42
 1363 535 1363 535 1365 620 c 1,33,34
762 1510 m 1,43,-1
 772 1510 l 1,44,45
 823 1489 823 1489 868 1456 c 0,46,47
 950 1395 950 1395 950 1325 c 0,48,49
 950 1311 950 1311 947 1297 c 0,50,51
 929 1212 929 1212 799 1155 c 1,52,53
 885 1134 885 1134 919 1101 c 0,54,55
 952 1069 952 1069 952 1018 c 0,56,57
 952 998 952 998 947 973 c 0,58,59
 923 875 923 875 805 802 c 0,60,61
 699 737 699 737 604 704 c 1,62,-1
 594 704 l 1,63,64
 517 739 517 739 463 781 c 0,65,66
 420 815 420 815 357 898 c 1,67,-1
 489 959 l 1,68,69
 514 915 514 915 572 875 c 0,70,71
 634 832 634 832 739 810 c 1,72,73
 818 853 818 853 835 936 c 0,74,75
 837 946 837 946 837 955 c 0,76,77
 837 1000 837 1000 781 1028 c 1,78,-1
 590 1112 l 1,79,80
 803 1179 803 1179 829 1270 c 0,81,82
 831 1277 831 1277 831 1284 c 0,83,84
 831 1324 831 1324 773 1349 c 0,85,-1
 651 1406 l 1,86,87
 621 1370 621 1370 613 1337 c 0,88,89
 611 1329 611 1329 611 1322 c 0,90,91
 611 1290 611 1290 648 1270 c 1,92,-1
 525 1219 l 1,93,94
 503 1239 503 1239 503 1272 c 0,95,96
 503 1286 503 1286 507 1302 c 0,97,98
 520 1353 520 1353 624 1430 c 0,99,100
 698 1486 698 1486 762 1510 c 1,43,-1
EndSplineSet
Validated: 1
EndChar

StartChar: questiondown
Encoding: 191 191 108
Width: 1229
GlyphClass: 2
Flags: W
HStem: 0 21G<509.5 748> 1490 20G<1064 1143>
VStem: 253 185<370.718 572.997> 1020 176<378.482 581.951>
LayerCount: 2
Fore
SplineSet
1134 1510 m 1,0,-1
 1143 1504 l 1,1,2
 1105 1413 1105 1413 1094 1364 c 0,3,4
 1085 1323 1085 1323 1080 1247 c 1,5,6
 982 1231 982 1231 841 1159 c 1,7,-1
 832 1165 l 1,8,9
 864 1247 864 1247 879 1307 c 0,10,11
 888 1343 888 1343 896 1422 c 1,12,13
 994 1439 994 1439 1134 1510 c 1,0,-1
644 0 m 1,14,-1
 634 0 l 1,15,16
 385 126 385 126 296 260 c 0,17,18
 253 325 253 325 253 405 c 0,19,20
 253 442 253 442 262 482 c 0,21,22
 302 659 302 659 529 793 c 0,23,-1
 772 938 l 0,24,25
 852 983 852 983 868 1051 c 0,26,27
 873 1072 873 1072 861 1093 c 1,28,29
 957 1114 957 1114 1029 1159 c 1,30,31
 1038 1140 1038 1140 1038 1119 c 0,32,33
 1038 1109 1038 1109 1034 1091 c 0,34,35
 1009 982 1009 982 867 881 c 0,36,37
 830 855 830 855 603 700 c 0,38,39
 459 602 459 602 442 528 c 0,40,41
 438 511 438 511 438 494 c 0,42,43
 438 419 438 419 508 337 c 0,44,45
 646 173 646 173 883 145 c 1,46,47
 986 226 986 226 1016 369 c 0,48,49
 1020 388 1020 388 1020 406 c 0,50,51
 1020 489 1020 489 921 536 c 1,52,-1
 1148 670 l 1,53,54
 1196 625 1196 625 1196 544 c 0,55,56
 1196 505 1196 505 1185 458 c 8,57,58
 1161 358 1161 358 1042 253 c 0,59,60
 852 86 852 86 644 0 c 1,14,-1
EndSplineSet
Validated: 1
EndChar

StartChar: multiply
Encoding: 215 215 109
Width: 1132
GlyphClass: 2
Flags: W
LayerCount: 2
Fore
SplineSet
263 476 m 1,0,-1
 262 487 l 1,1,2
 498 618 498 618 662 746 c 1,3,4
 557 874 557 874 382 1005 c 1,5,-1
 388 1016 l 1,6,7
 527 1051 527 1051 619 1105 c 1,8,9
 672 947 672 947 756 823 c 1,10,11
 897 947 897 947 1022 1105 c 1,12,13
 1090 1051 1090 1051 1214 1016 c 1,14,-1
 1214 1005 l 1,15,16
 978 874 978 874 814 746 c 1,17,18
 919 618 919 618 1094 487 c 1,19,-1
 1089 476 l 1,20,21
 949 441 949 441 856 387 c 1,22,23
 804 545 804 545 720 669 c 1,24,25
 579 545 579 545 453 387 c 1,26,27
 386 441 386 441 263 476 c 1,0,-1
EndSplineSet
Validated: 1
EndChar

StartChar: divide
Encoding: 247 247 110
Width: 1266
GlyphClass: 2
Flags: W
HStem: 635 222<414.479 567.918 1042.32 1196.18> 693 106<484.221 1126.21>
DStem2: 614 350 812 292 0.19028 0.98173<-37.644 115.173 728.881 860.888>
LayerCount: 2
Fore
SplineSet
303 635 m 1,0,-1
 299 645 l 1,1,2
 394 763 394 763 435 857 c 1,3,4
 631 799 631 799 831 799 c 0,5,6
 1030 799 1030 799 1308 857 c 1,7,-1
 1312 847 l 1,8,9
 1216 729 1216 729 1176 635 c 1,10,11
 979 693 979 693 779 693 c 0,12,13
 580 693 580 693 303 635 c 1,0,-1
1035 1282 m 1,14,-1
 1044 1276 l 1,15,16
 1012 1194 1012 1194 997 1134 c 0,17,18
 988 1098 988 1098 980 1019 c 1,19,20
 882 1002 882 1002 742 931 c 1,21,-1
 733 937 l 1,22,23
 772 1029 772 1029 782 1077 c 0,24,25
 791 1119 791 1119 796 1194 c 1,26,27
 894 1210 894 1210 1035 1282 c 1,14,-1
574 204 m 1,28,-1
 565 210 l 1,29,30
 603 301 603 301 614 350 c 0,31,32
 623 391 623 391 628 467 c 1,33,34
 727 483 727 483 867 555 c 1,35,-1
 876 549 l 1,36,37
 844 467 844 467 829 407 c 0,38,39
 820 371 820 371 812 292 c 1,40,41
 714 275 714 275 574 204 c 1,28,-1
EndSplineSet
Validated: 1
EndChar

StartChar: Delta
Encoding: 916 916 111
Width: 1296
GlyphClass: 2
Flags: W
HStem: 0 21G<6 146.5 1125 1292> 44 98<267.511 1028.55> 1490 20G<1027.5 1113>
LayerCount: 2
Fore
SplineSet
15 0 m 1,0,-1
 6 6 l 1,1,2
 501 691 501 691 841 1418 c 1,3,4
 950 1431 950 1431 1105 1510 c 1,5,-1
 1113 1504 l 1,6,7
 1113 690 1113 690 1292 6 c 1,8,-1
 1281 0 l 1,9,10
 969 44 969 44 610 44 c 0,11,12
 278 44 278 44 15 0 c 1,0,-1
909 1247 m 1,13,14
 554 719 554 719 263 153 c 1,15,16
 391 142 391 142 647 142 c 0,17,18
 860 142 860 142 1034 165 c 1,19,20
 1034 769 1034 769 909 1247 c 1,13,14
EndSplineSet
Validated: 1
EndChar

StartChar: Pi
Encoding: 928 928 112
Width: 1322
GlyphClass: 2
Flags: W
HStem: 0 21G<159 243 918 1002> 1382 80<717.355 1236.31> 1490 20G<497 627 1382 1519>
DStem2: 159 6 712 1370 0.249563 0.968359<350.913 1254.5>
LayerCount: 2
Fore
SplineSet
168 0 m 1,0,-1
 159 6 l 1,1,2
 290 378 290 378 371 730 c 0,3,4
 459 1111 459 1111 497 1504 c 1,5,-1
 509 1510 l 1,6,7
 745 1462 745 1462 993 1462 c 0,8,9
 1253 1462 1253 1462 1511 1510 c 1,10,-1
 1519 1504 l 1,11,12
 1388 1129 1388 1129 1308 781 c 0,13,14
 1224 414 1224 414 1190 92 c 1,15,16
 1077 77 1077 77 927 0 c 1,17,-1
 918 6 l 1,18,19
 1047 368 1047 368 1130 730 c 0,20,21
 1201 1040 1201 1040 1242 1367 c 1,22,23
 1096 1382 1096 1382 974 1382 c 0,24,25
 884 1382 884 1382 712 1370 c 1,26,27
 597 988 597 988 549 782 c 0,28,29
 466 425 466 425 431 92 c 1,30,31
 318 77 318 77 168 0 c 1,0,-1
EndSplineSet
Validated: 1
EndChar

StartChar: Sigma
Encoding: 931 931 113
Width: 1169
GlyphClass: 2
Flags: W
HStem: 0 21G<51 168.5 904.5 997> 45 91<438.375 919.285> 1258 205<948.748 1193.42> 1490 20G<596.5 725 1247.5 1327>
LayerCount: 2
Fore
SplineSet
60 0 m 1,0,-1
 51 6 l 1,1,2
 427 363 427 363 747 741 c 1,3,4
 667 1078 667 1078 410 1418 c 1,5,6
 519 1431 519 1431 674 1510 c 1,7,8
 776 1463 776 1463 980 1463 c 0,9,10
 1171 1463 1171 1463 1324 1510 c 1,11,-1
 1327 1500 l 1,12,13
 1220 1368 1220 1368 1179 1258 c 1,14,15
 1016 1266 1016 1266 887 1327 c 0,16,17
 724 1404 724 1404 678 1472 c 1,18,19
 720 1067 720 1067 996 747 c 1,20,21
 659 441 659 441 434 145 c 1,22,23
 496 136 496 136 604 136 c 0,24,25
 863 136 863 136 1121 252 c 1,26,-1
 1125 242 l 1,27,28
 1017 110 1017 110 977 0 c 1,29,30
 832 45 832 45 588 45 c 0,31,32
 277 45 277 45 60 0 c 1,0,-1
EndSplineSet
Validated: 1
EndChar

StartChar: Omega
Encoding: 937 937 114
Width: 1416
VWidth: 0
GlyphClass: 2
Flags: W
HStem: 0 21G<57 118 511 561.635 1217.5 1289> 20 86<322.202 487.487 964.188 1195.09> 1490 20G<920 1160>
VStem: 301 188<459.448 822.21> 1275 188<683.555 1049.92>
LayerCount: 2
Fore
SplineSet
61 0 m 1,0,-1
 57 10 l 1,1,2
 165 142 165 142 205 252 c 1,3,4
 319 106 319 106 480 106 c 1,5,6
 486 128 486 128 490 149 c 1,7,8
 429 203 429 203 389 260 c 0,9,10
 301 386 301 386 301 559 c 0,11,12
 301 648 301 648 324 750 c 0,13,14
 393 1046 393 1046 629 1257 c 0,15,16
 812 1421 812 1421 1028 1510 c 1,17,-1
 1038 1510 l 1,18,19
 1282 1388 1282 1388 1376 1250 c 0,20,21
 1463 1122 1463 1122 1463 949 c 0,22,23
 1463 861 1463 861 1440 760 c 0,24,25
 1374 470 1374 470 1135 253 c 0,26,27
 1050 176 1050 176 969 123 c 1,28,-1
 963 106 l 1,29,30
 1174 106 1174 106 1413 252 c 1,31,-1
 1417 242 l 1,32,33
 1309 110 1309 110 1269 0 c 1,34,35
 1166 20 1166 20 1063 20 c 0,36,37
 961 20 961 20 859 0 c 1,38,-1
 885 113 l 1,39,40
 1172 321 1172 321 1258 699 c 0,41,42
 1275 774 1275 774 1275 843 c 0,43,44
 1275 1024 1275 1024 1154 1174 c 0,45,46
 1018 1339 1018 1339 789 1365 c 1,47,48
 584 1156 584 1156 506 811 c 0,49,50
 489 736 489 736 489 666 c 0,51,52
 489 470 489 470 630 315 c 1,53,-1
 557 0 l 1,54,55
 465 20 465 20 320 20 c 128,-1,56
 175 20 175 20 61 0 c 1,0,-1
EndSplineSet
Validated: 1
EndChar

StartChar: mu
Encoding: 956 956 115
Width: 1213
GlyphClass: 2
Flags: W
HStem: -380 21G<64 147> 0 21G<571.5 709.5 812 896> 1110 20G<581 664 1239 1322>
LayerCount: 2
Fore
SplineSet
662 0 m 1,0,-1
 652 0 l 1,1,2
 491 62 491 62 404 168 c 1,3,4
 359 -63 359 -63 336 -288 c 1,5,6
 222 -303 222 -303 72 -380 c 1,7,-1
 64 -374 l 1,8,9
 193 -8 193 -8 275 350 c 0,10,11
 351 681 351 681 393 1038 c 1,12,13
 506 1053 506 1053 656 1130 c 1,14,-1
 664 1124 l 1,15,16
 551 800 551 800 504 593 c 0,17,18
 491 536 491 536 491 485 c 0,19,20
 491 373 491 373 560 296 c 0,21,22
 663 182 663 182 865 145 c 1,23,24
 938 342 938 342 975 503 c 0,25,26
 1039 781 1039 781 1051 1038 c 1,27,28
 1164 1053 1164 1053 1314 1130 c 1,29,-1
 1322 1124 l 1,30,31
 1204 779 1204 779 1155 565 c 0,32,33
 1102 333 1102 333 1084 92 c 1,34,35
 971 77 971 77 821 0 c 1,36,-1
 812 6 l 1,37,38
 831 52 831 52 847 97 c 1,39,40
 757 36 757 36 662 0 c 1,0,-1
EndSplineSet
Validated: 1
EndChar

StartChar: pi
Encoding: 960 960 116
Width: 1198
GlyphClass: 2
Flags: W
HStem: 0 21G<166 249 797 878> 995 99<623.942 1025.03> 1110 20G<409 535 1165 1308>
LayerCount: 2
Fore
SplineSet
1069 92 m 1,0,1
 950 75 950 75 806 0 c 1,2,-1
 797 6 l 1,3,4
 907 323 907 323 964 565 c 0,5,6
 1011 765 1011 765 1031 980 c 1,7,8
 920 995 920 995 826 995 c 0,9,10
 715 995 715 995 621 977 c 1,11,12
 553 792 553 792 514 627 c 0,13,14
 451 357 451 357 438 92 c 1,15,16
 323 76 323 76 175 0 c 1,17,-1
 166 6 l 1,18,19
 278 327 278 327 333 565 c 0,20,21
 401 857 401 857 409 1124 c 1,22,-1
 421 1130 l 1,23,24
 649 1094 649 1094 850 1094 c 0,25,26
 1031 1094 1031 1094 1299 1130 c 1,27,-1
 1308 1124 l 1,28,29
 1195 840 1195 840 1145 626 c 0,30,31
 1081 350 1081 350 1069 92 c 1,0,1
EndSplineSet
Validated: 1
EndChar

StartChar: uni2010
Encoding: 8208 8208 117
Width: 1201
GlyphClass: 2
Flags: W
HStem: 635 222<449.479 585.105 960.129 1096.18> 693 106<518.367 1027.04>
LayerCount: 2
Fore
SplineSet
338 635 m 1,0,-1
 334 645 l 1,1,2
 429 763 429 763 470 857 c 1,3,4
 666 799 666 799 798 799 c 128,-1,5
 930 799 930 799 1208 857 c 1,6,-1
 1212 847 l 1,7,8
 1116 729 1116 729 1076 635 c 1,9,10
 879 693 879 693 747 693 c 128,-1,11
 615 693 615 693 338 635 c 1,0,-1
EndSplineSet
Validated: 1
EndChar

StartChar: uni2011
Encoding: 8209 8209 118
Width: 1201
GlyphClass: 2
Flags: W
HStem: 635 222<449.479 585.105 960.129 1096.18> 693 106<518.367 1027.04>
LayerCount: 2
Fore
SplineSet
338 635 m 1,0,-1
 334 645 l 1,1,2
 429 763 429 763 470 857 c 1,3,4
 666 799 666 799 798 799 c 128,-1,5
 930 799 930 799 1208 857 c 1,6,-1
 1212 847 l 1,7,8
 1116 729 1116 729 1076 635 c 1,9,10
 879 693 879 693 747 693 c 128,-1,11
 615 693 615 693 338 635 c 1,0,-1
EndSplineSet
Validated: 1
EndChar

StartChar: figuredash
Encoding: 8210 8210 119
Width: 1266
GlyphClass: 2
Flags: W
HStem: 635 222<414.479 567.918 1042.32 1196.18> 693 106<484.221 1126.21>
LayerCount: 2
Fore
SplineSet
303 635 m 1,0,-1
 299 645 l 1,1,2
 394 763 394 763 435 857 c 1,3,4
 631 799 631 799 831 799 c 0,5,6
 1030 799 1030 799 1308 857 c 1,7,-1
 1312 847 l 1,8,9
 1216 729 1216 729 1176 635 c 1,10,11
 979 693 979 693 779 693 c 0,12,13
 580 693 580 693 303 635 c 1,0,-1
EndSplineSet
Validated: 1
EndChar

StartChar: endash
Encoding: 8211 8211 120
Width: 1266
GlyphClass: 2
Flags: W
HStem: 635 222<414.479 567.918 1042.32 1196.18> 693 106<484.221 1126.21>
LayerCount: 2
Fore
SplineSet
303 635 m 1,0,-1
 299 645 l 1,1,2
 394 763 394 763 435 857 c 1,3,4
 631 799 631 799 831 799 c 0,5,6
 1030 799 1030 799 1308 857 c 1,7,-1
 1312 847 l 1,8,9
 1216 729 1216 729 1176 635 c 1,10,11
 979 693 979 693 779 693 c 0,12,13
 580 693 580 693 303 635 c 1,0,-1
EndSplineSet
Validated: 1
EndChar

StartChar: emdash
Encoding: 8212 8212 121
Width: 1181
GlyphClass: 2
Flags: W
HStem: 635 222<289.479 464.986 1060.25 1236.18> 693 106<360.344 1165.13>
LayerCount: 2
Fore
SplineSet
178 635 m 1,0,-1
 174 645 l 1,1,2
 269 763 269 763 310 857 c 1,3,4
 506 799 506 799 788 799 c 128,-1,5
 1070 799 1070 799 1348 857 c 1,6,-1
 1352 847 l 1,7,8
 1256 729 1256 729 1216 635 c 1,9,10
 1019 693 1019 693 737 693 c 128,-1,11
 455 693 455 693 178 635 c 1,0,-1
EndSplineSet
Validated: 1
EndChar

StartChar: afii00208
Encoding: 8213 8213 122
Width: 1181
GlyphClass: 2
Flags: W
HStem: 635 222<289.479 464.986 1060.25 1236.18> 693 106<360.344 1165.13>
LayerCount: 2
Fore
SplineSet
178 635 m 1,0,-1
 174 645 l 1,1,2
 269 763 269 763 310 857 c 1,3,4
 506 799 506 799 788 799 c 128,-1,5
 1070 799 1070 799 1348 857 c 1,6,-1
 1352 847 l 1,7,8
 1256 729 1256 729 1216 635 c 1,9,10
 1019 693 1019 693 737 693 c 128,-1,11
 455 693 455 693 178 635 c 1,0,-1
EndSplineSet
Validated: 1
EndChar

StartChar: underscoredbl
Encoding: 8215 8215 123
Width: 1221
GlyphClass: 2
Flags: W
HStem: -380 146<132.963 513.676 530.094 549.936 566.293 945.725> -353 92<165.342 912.751> -172 146<180.963 561.676 578.094 597.936 614.293 993.725> -145 92<213.342 960.751>
LayerCount: 2
Fore
SplineSet
113 -162 m 1,0,1
 172 -90 172 -90 209 -26 c 1,2,3
 347 -53 347 -53 606 -53 c 0,4,5
 872 -53 872 -53 1059 -26 c 1,6,-1
 1063 -36 l 1,7,8
 1003 -108 1003 -108 965 -172 c 1,9,10
 830 -145 830 -145 570 -145 c 0,11,12
 303 -145 303 -145 116 -172 c 1,13,-1
 113 -162 l 1,0,1
68 -380 m 1,14,-1
 65 -370 l 1,15,16
 124 -298 124 -298 161 -234 c 1,17,18
 299 -261 299 -261 558 -261 c 0,19,20
 824 -261 824 -261 1011 -234 c 1,21,-1
 1015 -244 l 1,22,23
 955 -316 955 -316 917 -380 c 1,24,25
 782 -353 782 -353 522 -353 c 0,26,27
 255 -353 255 -353 68 -380 c 1,14,-1
EndSplineSet
Validated: 1
EndChar

StartChar: quoteleft
Encoding: 8216 8216 124
Width: 631
GlyphClass: 2
Flags: W
HStem: 1534 16<853.731 864.5>
VStem: 438 196<1148.47 1323.4>
LayerCount: 2
Fore
SplineSet
865 1550 m 1,0,1
 863 1543 863 1543 861 1534 c 1,2,3
 674 1441 674 1441 639 1286 c 0,4,5
 634 1264 634 1264 634 1245 c 0,6,7
 634 1163 634 1163 722 1119 c 1,8,9
 624 1103 624 1103 483 1031 c 1,10,-1
 474 1037 l 1,11,12
 438 1105 438 1105 438 1174 c 0,13,14
 438 1205 438 1205 445 1237 c 0,15,16
 502 1464 502 1464 865 1550 c 1,0,1
EndSplineSet
Validated: 1
EndChar

StartChar: quoteright
Encoding: 8217 8217 125
Width: 631
GlyphClass: 2
Flags: W
HStem: 1031 16<361.5 372.269>
VStem: 592 196<1257.6 1432.53>
LayerCount: 2
Fore
SplineSet
743 1550 m 1,0,-1
 752 1544 l 1,1,2
 788 1476 788 1476 788 1407 c 0,3,4
 788 1376 788 1376 781 1344 c 0,5,6
 724 1117 724 1117 361 1031 c 1,7,8
 363 1038 363 1038 365 1047 c 1,9,10
 552 1140 552 1140 587 1295 c 0,11,12
 592 1317 592 1317 592 1336 c 0,13,14
 592 1418 592 1418 504 1462 c 1,15,16
 602 1478 602 1478 743 1550 c 1,0,-1
EndSplineSet
Validated: 1
EndChar

StartChar: quotesinglbase
Encoding: 8218 8218 126
Width: 631
GlyphClass: 2
Flags: W
HStem: -222 16<72.5 83.269>
VStem: 303 196<4.59888 179.526>
LayerCount: 2
Fore
SplineSet
454 297 m 1,0,-1
 463 291 l 1,1,2
 499 223 499 223 499 154 c 0,3,4
 499 123 499 123 492 91 c 0,5,6
 435 -136 435 -136 72 -222 c 1,7,8
 74 -215 74 -215 76 -206 c 1,9,10
 263 -113 263 -113 298 42 c 0,11,12
 303 64 303 64 303 83 c 0,13,14
 303 165 303 165 215 209 c 1,15,16
 313 225 313 225 454 297 c 1,0,-1
EndSplineSet
Validated: 1
EndChar

StartChar: quotereversed
Encoding: 8219 8219 127
Width: 631
GlyphClass: 2
Flags: W
HStem: 1031 16<738.471 748.625>
VStem: 463 171<1159.25 1374.04>
LayerCount: 2
Fore
SplineSet
603 1550 m 1,0,1
 710 1478 710 1478 802 1462 c 1,2,3
 666 1407 666 1407 641 1295 c 0,4,5
 634 1264 634 1264 634 1235 c 0,6,7
 634 1122 634 1122 749 1047 c 1,8,9
 747 1038 747 1038 745 1031 c 1,10,11
 463 1105 463 1105 463 1283 c 0,12,13
 463 1311 463 1311 470 1343 c 0,14,15
 492 1443 492 1443 591 1544 c 1,16,-1
 603 1550 l 1,0,1
EndSplineSet
Validated: 1
EndChar

StartChar: quotedblleft
Encoding: 8220 8220 128
Width: 937
GlyphClass: 2
Flags: W
HStem: 1534 16<853.731 864.5 1160.73 1171.5>
VStem: 438 196<1148.47 1323.4> 745 196<1148.47 1323.4>
LayerCount: 2
Fore
SplineSet
1172 1550 m 1,0,1
 1170 1543 1170 1543 1168 1534 c 1,2,3
 981 1441 981 1441 946 1286 c 0,4,5
 941 1264 941 1264 941 1245 c 0,6,7
 941 1163 941 1163 1029 1119 c 1,8,9
 931 1103 931 1103 790 1031 c 1,10,-1
 781 1037 l 1,11,12
 745 1105 745 1105 745 1174 c 0,13,14
 745 1205 745 1205 752 1237 c 0,15,16
 809 1464 809 1464 1172 1550 c 1,0,1
865 1550 m 1,17,18
 863 1543 863 1543 861 1534 c 1,19,20
 674 1441 674 1441 639 1286 c 0,21,22
 634 1264 634 1264 634 1245 c 0,23,24
 634 1163 634 1163 722 1119 c 1,25,26
 624 1103 624 1103 483 1031 c 1,27,-1
 474 1037 l 1,28,29
 438 1105 438 1105 438 1174 c 0,30,31
 438 1205 438 1205 445 1237 c 0,32,33
 502 1464 502 1464 865 1550 c 1,17,18
EndSplineSet
Validated: 1
EndChar

StartChar: quotedblright
Encoding: 8221 8221 129
Width: 937
GlyphClass: 2
Flags: W
HStem: 1031 16<361.5 372.269 668.5 679.269>
VStem: 592 196<1257.6 1432.53> 899 196<1257.6 1432.53>
LayerCount: 2
Fore
SplineSet
1050 1550 m 1,0,-1
 1059 1544 l 1,1,2
 1095 1476 1095 1476 1095 1407 c 0,3,4
 1095 1376 1095 1376 1088 1344 c 0,5,6
 1031 1117 1031 1117 668 1031 c 1,7,8
 670 1038 670 1038 672 1047 c 1,9,10
 859 1140 859 1140 894 1295 c 0,11,12
 899 1317 899 1317 899 1336 c 0,13,14
 899 1418 899 1418 811 1462 c 1,15,16
 909 1478 909 1478 1050 1550 c 1,0,-1
743 1550 m 1,17,-1
 752 1544 l 1,18,19
 788 1476 788 1476 788 1407 c 0,20,21
 788 1376 788 1376 781 1344 c 0,22,23
 724 1117 724 1117 361 1031 c 1,24,25
 363 1038 363 1038 365 1047 c 1,26,27
 552 1140 552 1140 587 1295 c 0,28,29
 592 1317 592 1317 592 1336 c 0,30,31
 592 1418 592 1418 504 1462 c 1,32,33
 602 1478 602 1478 743 1550 c 1,17,-1
EndSplineSet
Validated: 1
EndChar

StartChar: quotedblbase
Encoding: 8222 8222 130
Width: 937
GlyphClass: 2
Flags: W
HStem: -222 16<73.5 84.269 380.5 391.269>
VStem: 304 196<4.59888 179.526> 611 196<4.59888 179.526>
LayerCount: 2
Fore
SplineSet
762 297 m 1,0,-1
 771 291 l 1,1,2
 807 223 807 223 807 154 c 0,3,4
 807 123 807 123 800 91 c 0,5,6
 743 -136 743 -136 380 -222 c 1,7,8
 382 -215 382 -215 384 -206 c 1,9,10
 571 -113 571 -113 606 42 c 0,11,12
 611 64 611 64 611 83 c 0,13,14
 611 165 611 165 523 209 c 1,15,16
 621 225 621 225 762 297 c 1,0,-1
455 297 m 1,17,-1
 464 291 l 1,18,19
 500 223 500 223 500 154 c 0,20,21
 500 123 500 123 493 91 c 0,22,23
 436 -136 436 -136 73 -222 c 1,24,25
 75 -215 75 -215 77 -206 c 1,26,27
 264 -113 264 -113 299 42 c 0,28,29
 304 64 304 64 304 83 c 0,30,31
 304 165 304 165 216 209 c 1,32,33
 314 225 314 225 455 297 c 1,17,-1
EndSplineSet
Validated: 1
EndChar

StartChar: uni201F
Encoding: 8223 8223 131
Width: 937
GlyphClass: 2
Flags: W
HStem: 1031 16<738.471 748.625 1044.47 1054.62>
VStem: 463 171<1159.25 1374.04> 769 171<1159.25 1374.04>
LayerCount: 2
Fore
SplineSet
909 1550 m 1,0,1
 1016 1478 1016 1478 1108 1462 c 1,2,3
 972 1407 972 1407 947 1295 c 0,4,5
 940 1264 940 1264 940 1235 c 0,6,7
 940 1122 940 1122 1055 1047 c 1,8,9
 1053 1038 1053 1038 1051 1031 c 1,10,11
 769 1105 769 1105 769 1283 c 0,12,13
 769 1311 769 1311 776 1343 c 0,14,15
 798 1443 798 1443 897 1544 c 1,16,-1
 909 1550 l 1,0,1
603 1550 m 1,17,18
 710 1478 710 1478 802 1462 c 1,19,20
 666 1407 666 1407 641 1295 c 0,21,22
 634 1264 634 1264 634 1235 c 0,23,24
 634 1122 634 1122 749 1047 c 1,25,26
 747 1038 747 1038 745 1031 c 1,27,28
 463 1105 463 1105 463 1283 c 0,29,30
 463 1311 463 1311 470 1343 c 0,31,32
 492 1443 492 1443 591 1544 c 1,33,-1
 603 1550 l 1,17,18
EndSplineSet
Validated: 1
EndChar

StartChar: dagger
Encoding: 8224 8224 132
Width: 1266
GlyphClass: 2
Flags: W
HStem: 0 21G<506 590> 940 222<484.82 641.222 1111.46 1266.52> 1490 20G<1021 1107>
DStem2: 549.466 0 715.692 0 0.224951 0.97437<335.83 1020.76>
LayerCount: 2
Fore
SplineSet
515 0 m 1,0,-1
 506 6 l 1,1,2
 636 373 636 373 718 730 c 0,3,4
 748 861 748 861 773 996 c 1,5,6
 599 987 599 987 373 940 c 1,7,-1
 369 950 l 1,8,9
 465 1068 465 1068 505 1162 c 1,10,11
 648 1120 648 1120 792 1108 c 1,12,13
 817 1261 817 1261 835 1418 c 1,14,15
 943 1431 943 1431 1099 1510 c 1,16,-1
 1107 1504 l 1,17,18
 1037 1308 1037 1308 979 1106 c 1,19,20
 1153 1115 1153 1115 1378 1162 c 1,21,-1
 1382 1152 l 1,22,23
 1287 1034 1287 1034 1246 940 c 1,24,25
 1098 984 1098 984 948 994 c 1,26,27
 923 894 923 894 896 781 c 0,28,29
 814 438 814 438 778 92 c 1,30,31
 665 77 665 77 515 0 c 1,0,-1
EndSplineSet
Validated: 1
EndChar

StartChar: daggerdbl
Encoding: 8225 8225 133
Width: 1266
GlyphClass: 2
Flags: W
HStem: 0 21G<506 590> 348 222<348.479 502.07 972.497 1129.52> 940 222<484.82 641.222 1111.46 1266.52> 1490 20G<1021 1107>
DStem2: 664 516 896 782 0.257784 0.966203<47.4316 487.971>
LayerCount: 2
Fore
SplineSet
515 0 m 1,0,-1
 506 6 l 1,1,2
 576 204 576 204 633 404 c 1,3,4
 460 395 460 395 236 348 c 1,5,-1
 233 358 l 1,6,7
 328 476 328 476 369 570 c 1,8,9
 516 527 516 527 664 516 c 1,10,11
 698 639 698 639 718 730 c 0,12,13
 750 873 750 873 773 996 c 1,14,15
 599 987 599 987 373 940 c 1,16,-1
 369 950 l 1,17,18
 465 1068 465 1068 505 1162 c 1,19,20
 648 1120 648 1120 792 1108 c 1,21,22
 817 1261 817 1261 835 1418 c 1,23,24
 943 1431 943 1431 1099 1510 c 1,25,-1
 1107 1504 l 1,26,27
 1037 1308 1037 1308 979 1106 c 1,28,29
 1153 1115 1153 1115 1378 1162 c 1,30,-1
 1382 1152 l 1,31,32
 1287 1034 1287 1034 1246 940 c 1,33,34
 1098 984 1098 984 948 994 c 1,35,36
 927 914 927 914 896 782 c 0,37,38
 863 640 863 640 840 514 c 1,39,40
 1015 523 1015 523 1242 570 c 1,41,-1
 1245 560 l 1,42,43
 1150 442 1150 442 1109 348 c 1,44,45
 965 390 965 390 820 402 c 1,46,47
 795 245 795 245 778 92 c 1,48,49
 665 77 665 77 515 0 c 1,0,-1
EndSplineSet
Validated: 1
EndChar

StartChar: bullet
Encoding: 8226 8226 134
Width: 875
GlyphClass: 2
Flags: W
HStem: 418 663
VStem: 315 590<657.026 840.578>
LayerCount: 2
Fore
SplineSet
551 418 m 1,0,-1
 541 418 l 1,1,2
 453 452 453 452 386 517 c 0,3,4
 315 586 315 586 315 682 c 0,5,6
 315 714 315 714 323 750 c 0,7,8
 350 871 350 871 473 969 c 0,9,10
 551 1031 551 1031 669 1081 c 1,11,-1
 679 1081 l 1,12,13
 767 1047 767 1047 834 982 c 0,14,15
 905 913 905 913 905 817 c 0,16,17
 905 785 905 785 897 749 c 0,18,19
 870 626 870 626 748 530 c 0,20,21
 668 466 668 466 551 418 c 1,0,-1
EndSplineSet
Validated: 3073
EndChar

StartChar: uni2023
Encoding: 8227 8227 135
Width: 878
GlyphClass: 2
Flags: W
LayerCount: 2
Fore
SplineSet
243 366 m 1,0,-1
 236 372 l 1,1,2
 319 565 319 565 362 750 c 128,-1,3
 405 935 405 935 410 1128 c 1,4,-1
 421 1134 l 1,5,6
 560 986 560 986 676 907 c 24,7,8
 820 809 820 809 955 766 c 1,9,-1
 953 756 l 9,10,11
 824 712 824 712 621 601 c 0,12,13
 490 530 490 530 243 366 c 1,0,-1
EndSplineSet
Validated: 1
EndChar

StartChar: onedotenleader
Encoding: 8228 8228 136
Width: 532
GlyphClass: 2
Flags: W
HStem: 0 351
VStem: 151 311
DStem2: 200 146 398 88 0.165112 0.986275<-41.8067 137.226>
LayerCount: 2
Fore
SplineSet
160 0 m 1,0,-1
 151 6 l 1,1,2
 189 97 189 97 200 146 c 0,3,4
 209 187 209 187 214 263 c 1,5,6
 312 279 312 279 453 351 c 1,7,-1
 462 345 l 1,8,9
 428 259 428 259 415 203 c 0,10,11
 406 165 406 165 398 88 c 1,12,13
 300 71 300 71 160 0 c 1,0,-1
EndSplineSet
Validated: 1
EndChar

StartChar: twodotenleader
Encoding: 8229 8229 137
Width: 880
GlyphClass: 2
Flags: W
HStem: 0 351
VStem: 151 659
DStem2: 200 146 398 88 0.165112 0.986275<-41.8067 137.226> 548 146 746 88 0.165112 0.986275<-41.8067 136.999>
LayerCount: 2
Fore
SplineSet
508 0 m 1,0,-1
 499 6 l 1,1,2
 537 97 537 97 548 146 c 0,3,4
 557 187 557 187 562 263 c 1,5,6
 660 279 660 279 801 351 c 1,7,-1
 810 345 l 1,8,9
 778 263 778 263 763 203 c 0,10,11
 754 167 754 167 746 88 c 1,12,13
 648 71 648 71 508 0 c 1,0,-1
160 0 m 1,14,-1
 151 6 l 1,15,16
 189 97 189 97 200 146 c 0,17,18
 209 187 209 187 214 263 c 1,19,20
 312 279 312 279 453 351 c 1,21,-1
 462 345 l 1,22,23
 428 259 428 259 415 203 c 0,24,25
 406 165 406 165 398 88 c 1,26,27
 300 71 300 71 160 0 c 1,14,-1
EndSplineSet
Validated: 1
EndChar

StartChar: ellipsis
Encoding: 8230 8230 138
Width: 1228
GlyphClass: 2
Flags: W
HStem: 0 351
DStem2: 200 146 398 88 0.165112 0.986275<-41.8067 136.999> 548 146 746 88 0.165112 0.986275<-41.8067 136.999> 896 146 1094 88 0.165112 0.986275<-41.8067 137.226>
LayerCount: 2
Fore
SplineSet
856 0 m 1,0,-1
 847 6 l 1,1,2
 885 97 885 97 896 146 c 0,3,4
 905 187 905 187 910 263 c 1,5,6
 1008 279 1008 279 1149 351 c 1,7,-1
 1158 345 l 1,8,9
 1124 259 1124 259 1111 203 c 0,10,11
 1102 165 1102 165 1094 88 c 1,12,13
 996 71 996 71 856 0 c 1,0,-1
508 0 m 1,14,-1
 499 6 l 1,15,16
 537 97 537 97 548 146 c 0,17,18
 557 187 557 187 562 263 c 1,19,20
 660 279 660 279 801 351 c 1,21,-1
 810 345 l 1,22,23
 778 263 778 263 763 203 c 0,24,25
 754 167 754 167 746 88 c 1,26,27
 648 71 648 71 508 0 c 1,14,-1
160 0 m 1,28,-1
 151 6 l 1,29,30
 189 97 189 97 200 146 c 0,31,32
 209 187 209 187 214 263 c 1,33,34
 312 279 312 279 453 351 c 1,35,-1
 462 345 l 1,36,37
 430 263 430 263 415 203 c 0,38,39
 406 167 406 167 398 88 c 1,40,41
 300 71 300 71 160 0 c 1,28,-1
EndSplineSet
Validated: 1
EndChar

StartChar: uni2027
Encoding: 8231 8231 139
Width: 532
GlyphClass: 2
Flags: W
HStem: 572 351
VStem: 283 311
LayerCount: 2
Fore
SplineSet
346 835 m 1,0,1
 444 851 444 851 585 923 c 1,2,-1
 594 917 l 1,3,4
 562 835 562 835 547 775 c 0,5,6
 538 739 538 739 530 660 c 1,7,8
 432 643 432 643 292 572 c 1,9,-1
 283 578 l 1,10,11
 320 666 320 666 332 719 c 0,12,13
 341 760 341 760 346 835 c 1,0,1
EndSplineSet
Validated: 1
EndChar

StartChar: perthousand
Encoding: 8240 8240 140
Width: 2171
GlyphClass: 2
Flags: W
HStem: 0 21G<442 497 1074 1186.5 1698 1810.5> 1490 20G<709 822 1441 1496.5>
VStem: 414 141<1078.8 1270.02> 874 130<1086.03 1283.89> 892 141<231.798 423.022> 1352 130<239.026 436.886> 1516 141<231.798 423.022> 1976 130<239.026 436.886>
LayerCount: 2
Fore
SplineSet
1752 0 m 1,0,-1
 1742 0 l 1,1,2
 1654 34 1654 34 1587 99 c 0,3,4
 1516 168 1516 168 1516 264 c 0,5,6
 1516 296 1516 296 1524 332 c 0,7,8
 1551 453 1551 453 1674 551 c 0,9,10
 1752 613 1752 613 1870 663 c 1,11,-1
 1880 663 l 1,12,13
 1968 629 1968 629 2035 564 c 0,14,15
 2106 495 2106 495 2106 399 c 0,16,17
 2106 367 2106 367 2098 331 c 0,18,19
 2071 208 2071 208 1949 112 c 0,20,21
 1869 48 1869 48 1752 0 c 1,0,-1
1746 524 m 1,22,23
 1682 471 1682 471 1662 377 c 0,24,25
 1657 354 1657 354 1657 332 c 0,26,27
 1657 244 1657 244 1752 195 c 0,28,29
 1814 164 1814 164 1879 141 c 1,30,31
 1953 218 1953 218 1970 288 c 0,32,33
 1976 313 1976 313 1976 336 c 0,34,35
 1976 423 1976 423 1886 471 c 0,36,37
 1834 499 1834 499 1746 524 c 1,22,23
650 847 m 1,38,-1
 640 847 l 1,39,40
 552 881 552 881 485 946 c 0,41,42
 414 1015 414 1015 414 1111 c 0,43,44
 414 1143 414 1143 422 1179 c 0,45,46
 449 1300 449 1300 572 1398 c 0,47,48
 650 1460 650 1460 768 1510 c 1,49,-1
 778 1510 l 1,50,51
 866 1476 866 1476 933 1411 c 0,52,53
 1004 1342 1004 1342 1004 1246 c 0,54,55
 1004 1214 1004 1214 996 1178 c 0,56,57
 969 1055 969 1055 847 959 c 0,58,59
 767 895 767 895 650 847 c 1,38,-1
644 1371 m 1,60,61
 580 1318 580 1318 560 1224 c 0,62,63
 555 1201 555 1201 555 1179 c 0,64,65
 555 1091 555 1091 650 1042 c 0,66,67
 712 1011 712 1011 777 988 c 1,68,69
 851 1065 851 1065 868 1135 c 0,70,71
 874 1160 874 1160 874 1183 c 0,72,73
 874 1270 874 1270 784 1318 c 0,74,75
 732 1346 732 1346 644 1371 c 1,60,61
1128 0 m 1,76,-1
 1118 0 l 1,77,78
 1030 34 1030 34 963 99 c 0,79,80
 892 168 892 168 892 264 c 0,81,82
 892 296 892 296 900 332 c 0,83,84
 927 453 927 453 1050 551 c 0,85,86
 1128 613 1128 613 1246 663 c 1,87,-1
 1256 663 l 1,88,89
 1344 629 1344 629 1411 564 c 0,90,91
 1482 495 1482 495 1482 399 c 0,92,93
 1482 367 1482 367 1474 331 c 0,94,95
 1447 208 1447 208 1325 112 c 0,96,97
 1245 48 1245 48 1128 0 c 1,76,-1
1122 524 m 1,98,99
 1058 471 1058 471 1038 377 c 0,100,101
 1033 354 1033 354 1033 332 c 0,102,103
 1033 244 1033 244 1128 195 c 0,104,105
 1190 164 1190 164 1255 141 c 1,106,107
 1329 218 1329 218 1346 288 c 0,108,109
 1352 313 1352 313 1352 336 c 0,110,111
 1352 423 1352 423 1262 471 c 0,112,113
 1210 499 1210 499 1122 524 c 1,98,99
497 6 m 1,114,-1
 486 0 l 1,115,116
 398 58 398 58 315 82 c 1,117,118
 605 395 605 395 950 830 c 0,119,120
 1212 1160 1212 1160 1441 1504 c 1,121,-1
 1453 1510 l 1,122,123
 1540 1452 1540 1452 1624 1428 c 1,124,125
 1281 1070 1281 1070 1045 771 c 0,126,127
 702 337 702 337 497 6 c 1,114,-1
EndSplineSet
Validated: 3073
EndChar

StartChar: minute
Encoding: 8242 8242 141
Width: 838
VWidth: 2058
GlyphClass: 2
Flags: W
HStem: 1018 532
VStem: 400 620
LayerCount: 2
Fore
SplineSet
804 1550 m 1,0,1
 923 1471 923 1471 1020 1458 c 1,2,-1
 1022 1448 l 1,3,4
 767 1295 767 1295 551 1018 c 1,5,-1
 540 1012 l 1,6,7
 467 1060 467 1060 400 1084 c 1,8,-1
 403 1094 l 1,9,10
 659 1280 659 1280 792 1544 c 1,11,-1
 804 1550 l 1,0,1
EndSplineSet
Validated: 3073
EndChar

StartChar: second
Encoding: 8243 8243 142
Width: 1169
VWidth: 2058
GlyphClass: 2
Flags: W
HStem: 1018 532
LayerCount: 2
Fore
SplineSet
1135 1550 m 1,0,1
 1254 1471 1254 1471 1351 1458 c 1,2,3
 1353 1448 l 1,4,5
 1098 1295 1098 1295 882 1018 c 1,6,-1
 871 1012 l 1,7,8
 798 1060 798 1060 731 1084 c 1,9,10
 734 1094 l 1,11,12
 990 1280 990 1280 1123 1544 c 1,13,-1
 1135 1550 l 1,0,1
804 1550 m 1,14,15
 923 1471 923 1471 1020 1458 c 1,16,-1
 1022 1448 l 1,17,18
 767 1295 767 1295 551 1018 c 1,19,-1
 540 1012 l 1,20,21
 467 1060 467 1060 400 1084 c 1,22,-1
 403 1094 l 1,23,24
 659 1280 659 1280 792 1544 c 1,25,-1
 804 1550 l 1,14,15
EndSplineSet
Validated: 3073
EndChar

StartChar: uni2034
Encoding: 8244 8244 143
Width: 1500
VWidth: 2058
GlyphClass: 2
Flags: W
HStem: 1018 532
LayerCount: 2
Fore
SplineSet
1466 1550 m 1,0,1
 1585 1471 1585 1471 1682 1458 c 1,2,3
 1684 1448 l 1,4,5
 1429 1295 1429 1295 1213 1018 c 1,6,-1
 1202 1012 l 1,7,8
 1129 1060 1129 1060 1062 1084 c 1,9,10
 1065 1094 l 1,11,12
 1321 1280 1321 1280 1454 1544 c 1,13,-1
 1466 1550 l 1,0,1
1135 1550 m 1,14,15
 1254 1471 1254 1471 1351 1458 c 1,16,-1
 1353 1448 l 1,17,18
 1098 1295 1098 1295 882 1018 c 1,19,-1
 871 1012 l 1,20,21
 798 1060 798 1060 731 1084 c 1,22,-1
 734 1094 l 1,23,24
 990 1280 990 1280 1123 1544 c 1,25,-1
 1135 1550 l 1,14,15
804 1550 m 1,26,27
 923 1471 923 1471 1020 1458 c 1,28,-1
 1022 1448 l 1,29,30
 767 1295 767 1295 551 1018 c 1,31,-1
 540 1012 l 1,32,33
 467 1060 467 1060 400 1084 c 1,34,-1
 403 1094 l 1,35,36
 659 1280 659 1280 792 1544 c 1,37,-1
 804 1550 l 1,26,27
EndSplineSet
Validated: 3073
EndChar

StartChar: uni2035
Encoding: 8245 8245 144
Width: 838
VWidth: 2058
GlyphClass: 2
Flags: W
HStem: 1012 538
VStem: 484 457
LayerCount: 2
Fore
SplineSet
750 1550 m 1,0,-1
 758 1544 l 1,1,2
 771 1280 771 1280 941 1094 c 1,3,-1
 938 1084 l 1,4,5
 861 1060 861 1060 766 1012 c 1,6,-1
 757 1018 l 1,7,8
 669 1295 669 1295 484 1448 c 1,9,-1
 492 1458 l 1,10,11
 595 1471 595 1471 750 1550 c 1,0,-1
EndSplineSet
Validated: 3073
EndChar

StartChar: uni2036
Encoding: 8246 8246 145
Width: 1169
VWidth: 2058
GlyphClass: 2
Flags: W
HStem: 1012 538
LayerCount: 2
Fore
SplineSet
750 1550 m 1,0,-1
 758 1544 l 1,1,2
 771 1280 771 1280 941 1094 c 1,3,-1
 938 1084 l 1,4,5
 861 1060 861 1060 766 1012 c 1,6,-1
 757 1018 l 1,7,8
 669 1295 669 1295 484 1448 c 1,9,-1
 492 1458 l 1,10,11
 595 1471 595 1471 750 1550 c 1,0,-1
1081 1550 m 1,12,-1
 1089 1544 l 1,13,14
 1102 1280 1102 1280 1272 1094 c 1,15,-1
 1269 1084 l 1,16,17
 1192 1060 1192 1060 1097 1012 c 1,18,-1
 1088 1018 l 1,19,20
 1000 1295 1000 1295 815 1448 c 1,21,-1
 823 1458 l 1,22,23
 926 1471 926 1471 1081 1550 c 1,12,-1
EndSplineSet
Validated: 3073
EndChar

StartChar: uni2037
Encoding: 8247 8247 146
Width: 1500
VWidth: 2058
GlyphClass: 2
Flags: W
HStem: 1012 538
LayerCount: 2
Fore
SplineSet
750 1550 m 1,0,-1
 758 1544 l 1,1,2
 771 1280 771 1280 941 1094 c 1,3,-1
 938 1084 l 1,4,5
 861 1060 861 1060 766 1012 c 1,6,-1
 757 1018 l 1,7,8
 669 1295 669 1295 484 1448 c 1,9,-1
 492 1458 l 1,10,11
 595 1471 595 1471 750 1550 c 1,0,-1
1081 1550 m 1,12,-1
 1089 1544 l 1,13,14
 1102 1280 1102 1280 1272 1094 c 1,15,-1
 1269 1084 l 1,16,17
 1192 1060 1192 1060 1097 1012 c 1,18,-1
 1088 1018 l 1,19,20
 1000 1295 1000 1295 815 1448 c 1,21,-1
 823 1458 l 1,22,23
 926 1471 926 1471 1081 1550 c 1,12,-1
1412 1550 m 1,24,-1
 1420 1544 l 1,25,26
 1433 1280 1433 1280 1603 1094 c 1,27,-1
 1600 1084 l 1,28,29
 1523 1060 1523 1060 1428 1012 c 1,30,-1
 1419 1018 l 1,31,32
 1331 1295 1331 1295 1146 1448 c 1,33,-1
 1154 1458 l 1,34,35
 1257 1471 1257 1471 1412 1550 c 1,24,-1
EndSplineSet
Validated: 3073
EndChar

StartChar: guilsinglleft
Encoding: 8249 8249 147
Width: 995
GlyphClass: 2
Flags: W
LayerCount: 2
Fore
SplineSet
295 630 m 1,0,1
 406 766 406 766 443 872 c 1,2,3
 733 999 733 999 1081 1263 c 1,4,-1
 1084 1253 l 1,5,6
 1005 1158 1005 1158 956 1058 c 1,7,8
 757 959 757 959 537 776 c 1,9,10
 590 556 590 556 892 445 c 1,11,-1
 895 435 l 1,12,13
 785 298 785 298 748 193 c 1,14,15
 660 442 660 442 299 620 c 1,16,-1
 295 630 l 1,0,1
EndSplineSet
Validated: 3073
EndChar

StartChar: guilsinglright
Encoding: 8250 8250 148
Width: 995
GlyphClass: 2
Flags: W
LayerCount: 2
Fore
SplineSet
1036 826 m 1,0,1
 925 690 925 690 888 584 c 1,2,3
 599 457 599 457 251 193 c 1,4,-1
 247 203 l 1,5,6
 326 298 326 298 375 398 c 1,7,8
 574 497 574 497 794 680 c 1,9,10
 741 900 741 900 439 1011 c 1,11,-1
 436 1021 l 1,12,13
 546 1158 546 1158 584 1263 c 1,14,15
 671 1014 671 1014 1032 836 c 1,16,-1
 1036 826 l 1,0,1
EndSplineSet
Validated: 3073
EndChar

StartChar: uni2043
Encoding: 8259 8259 149
Width: 1238
GlyphClass: 2
Flags: W
LayerCount: 2
Fore
SplineSet
1004 1229 m 1,0,-1
 1012 1223 l 1,1,2
 918 1013 918 1013 869 844 c 1,3,4
 1009 928 1009 928 1146 1040 c 1,5,6
 1193 968 1193 968 1296 900 c 1,7,-1
 1292 888 l 1,8,9
 1071 823 1071 823 901 746 c 1,10,11
 1035 669 1035 669 1226 604 c 1,12,-1
 1225 592 l 1,13,14
 1091 524 1091 524 1010 452 c 1,15,16
 926 563 926 563 825 646 c 1,17,18
 809 537 809 537 809 425 c 0,19,20
 809 386 809 386 811 350 c 1,21,22
 712 331 712 331 579 263 c 1,23,-1
 570 269 l 1,24,25
 664 479 664 479 712 648 c 1,26,27
 572 564 572 564 435 452 c 1,28,29
 389 524 389 524 287 592 c 1,30,-1
 289 604 l 1,31,32
 510 669 510 669 680 746 c 1,33,34
 546 823 546 823 355 888 c 1,35,-1
 358 900 l 1,36,37
 491 968 491 968 571 1040 c 1,38,39
 655 929 655 929 756 846 c 1,40,41
 773 960 773 960 773 1078 c 0,42,43
 773 1108 773 1108 772 1142 c 1,44,45
 870 1161 870 1161 1004 1229 c 1,0,-1
EndSplineSet
Validated: 3073
EndChar

StartChar: fraction
Encoding: 8260 8260 150
Width: 1076
GlyphClass: 2
Flags: W
LayerCount: 2
Fore
SplineSet
177 -144 m 1,0,1
 165 -150 l 1,2,3
 78 -92 78 -92 -6 -68 c 1,4,5
 375 372 375 372 711 835 c 0,6,7
 1043 1292 1043 1292 1248 1654 c 1,8,-1
 1259 1660 l 1,9,10
 1347 1602 1347 1602 1430 1578 c 1,11,12
 1118 1203 1118 1203 806 777 c 0,13,14
 437 273 437 273 177 -144 c 1,0,1
EndSplineSet
Validated: 3073
EndChar

StartChar: Euro
Encoding: 8364 8364 151
Width: 1487
VWidth: 0
GlyphClass: 2
Flags: W
HStem: 0 21G<726.5 961.5> 573 146<322.963 418.253 756.293 1135.72> 600 92<611 1102.75> 781 146<370.963 452.533 804.293 1183.72> 808 92<649 1150.75> 1490 20G<1037 1265.5>
VStem: 420 191<452.314 589.562 707.562 796.343>
LayerCount: 2
Fore
SplineSet
856 0 m 1,0,-1
 846 0 l 1,1,2
 607 116 607 116 508 260 c 0,3,4
 420 388 420 388 420 561 c 0,5,6
 420 576 420 576 421 590 c 1,7,8
 333 584 333 584 258 573 c 1,9,-1
 255 583 l 1,10,11
 314 655 314 655 351 719 c 1,12,13
 388 712 388 712 434 706 c 1,14,15
 438 730 438 730 443 750 c 0,16,17
 449 776 449 776 455 797 c 1,18,19
 376 791 376 791 306 781 c 1,20,-1
 303 791 l 1,21,22
 362 863 362 863 399 927 c 1,23,24
 442 919 442 919 497 913 c 1,25,26
 583 1108 583 1108 748 1257 c 0,27,28
 927 1418 927 1418 1147 1510 c 1,29,-1
 1157 1510 l 1,30,31
 1374 1402 1374 1402 1495 1250 c 0,32,33
 1503 1240 1503 1240 1511 1223 c 1,34,-1
 1308 1127 l 1,35,36
 1301 1139 1301 1139 1273 1174 c 0,37,38
 1144 1335 1144 1335 908 1365 c 1,39,40
 734 1189 734 1189 649 903 c 1,41,42
 717 900 717 900 796 900 c 0,43,44
 1062 900 1062 900 1249 927 c 1,45,-1
 1253 917 l 1,46,47
 1193 845 1193 845 1155 781 c 1,48,49
 1020 808 1020 808 760 808 c 0,50,51
 689 808 689 808 624 806 c 1,52,53
 611 748 611 748 608 694 c 1,54,55
 673 692 673 692 748 692 c 0,56,57
 1014 692 1014 692 1201 719 c 1,58,-1
 1205 709 l 1,59,60
 1145 637 1145 637 1107 573 c 1,61,62
 972 600 972 600 712 600 c 0,63,64
 661 600 661 600 611 599 c 1,65,66
 630 455 630 455 730 336 c 0,67,68
 868 172 868 172 1094 145 c 1,69,70
 1184 226 1184 226 1225 401 c 0,71,72
 1244 482 1244 482 1244 534 c 0,73,74
 1244 545 1244 545 1243 552 c 1,75,-1
 1449 484 l 1,76,77
 1370 356 1370 356 1254 252 c 0,78,79
 1067 86 1067 86 856 0 c 1,0,-1
EndSplineSet
Validated: 3073
EndChar

StartChar: afii61248
Encoding: 8453 8453 152
Width: 1726
GlyphClass: 2
Flags: W
HStem: 0 21G<489 544 1227.5 1355> 1490 20G<719.5 828 1488 1543.5>
VStem: 400 130<999.535 1222.13> 1045 130<236.344 460.677> 1545 128<280.309 511.812>
LayerCount: 2
Fore
SplineSet
544 6 m 1,0,-1
 533 0 l 1,1,2
 445 58 445 58 362 82 c 1,3,4
 652 395 652 395 997 830 c 0,5,6
 1259 1160 1259 1160 1488 1504 c 1,7,-1
 1500 1510 l 1,8,9
 1587 1452 1587 1452 1671 1428 c 1,10,11
 1328 1070 1328 1070 1092 771 c 0,12,13
 749 337 749 337 544 6 c 1,0,-1
1292 0 m 1,14,-1
 1282 0 l 1,15,16
 1173 39 1173 39 1110 110 c 0,17,18
 1045 184 1045 184 1045 284 c 0,19,20
 1045 325 1045 325 1056 370 c 0,21,22
 1092 517 1092 517 1217 622 c 0,23,24
 1307 698 1307 698 1428 748 c 1,25,26
 1433 748 1433 748 1438 748 c 1,27,28
 1547 709 1547 709 1609 638 c 0,29,30
 1673 564 1673 564 1673 463 c 0,31,32
 1673 423 1673 423 1663 378 c 0,33,34
 1632 236 1632 236 1504 126 c 0,35,36
 1418 51 1418 51 1292 0 c 1,14,-1
1450 131 m 1,37,38
 1511 222 1511 222 1537 330 c 0,39,40
 1545 363 1545 363 1545 393 c 0,41,42
 1545 515 1545 515 1409 580 c 0,43,44
 1346 610 1346 610 1269 617 c 1,45,46
 1203 515 1203 515 1182 418 c 0,47,48
 1175 386 1175 386 1175 357 c 0,49,50
 1175 234 1175 234 1311 167 c 0,51,52
 1373 137 1373 137 1450 131 c 1,37,38
783 1510 m 1,53,54
 788 1510 788 1510 793 1510 c 1,55,56
 863 1492 863 1492 913 1456 c 0,57,58
 977 1410 977 1410 1004 1334 c 1,59,-1
 855 1250 l 1,60,61
 832 1296 832 1296 787 1335 c 0,62,63
 740 1375 740 1375 629 1385 c 1,64,65
 561 1284 561 1284 537 1180 c 0,66,67
 530 1149 530 1149 530 1121 c 0,68,69
 530 997 530 997 666 930 c 0,70,71
 727 900 727 900 808 893 c 1,72,73
 821 920 821 920 826 939 c 0,74,75
 831 960 831 960 831 983 c 0,76,77
 831 1001 831 1001 828 1019 c 1,78,-1
 947 970 l 1,79,80
 919 932 919 932 897 911 c 0,81,82
 798 820 798 820 647 762 c 1,83,-1
 637 762 l 1,84,85
 526 801 526 801 465 872 c 0,86,87
 400 947 400 947 400 1047 c 0,88,89
 400 1088 400 1088 411 1132 c 0,90,91
 447 1276 447 1276 572 1385 c 0,92,93
 656 1460 656 1460 783 1510 c 1,53,54
EndSplineSet
Validated: 3073
EndChar

StartChar: afii61289
Encoding: 8467 8467 153
Width: 958
GlyphClass: 2
Flags: W
HStem: 0 136<492.784 612.16> 1490 20G<977 1044.5>
LayerCount: 2
Fore
SplineSet
505 500 m 1,0,1
 604 609 604 609 753 860 c 0,2,3
 917 1136 917 1136 969 1359 c 1,4,5
 875 1262 875 1262 725 1003 c 0,6,7
 553 706 553 706 505 500 c 1,0,1
502 0 m 0,8,9
 374 0 374 0 326 101 c 1,10,-1
 256 21 l 1,11,-1
 55 21 l 1,12,13
 211 168 211 168 309 292 c 1,14,15
 317 367 317 367 334 443 c 0,16,17
 367 586 367 586 430 732 c 0,18,19
 642 1223 642 1223 847 1424 c 0,20,21
 935 1510 935 1510 1019 1510 c 0,22,23
 1070 1510 1070 1510 1101 1478 c 0,24,25
 1123 1455 1123 1455 1123 1404 c 0,26,27
 1123 1369 1123 1369 1112 1318 c 0,28,29
 1094 1233 1094 1233 1025 1072 c 0,30,31
 877 724 877 724 485 271 c 1,32,33
 484 255 484 255 484 241 c 0,34,35
 484 137 484 137 542 136 c 0,36,37
 562 136 562 136 590 160 c 0,38,39
 628 192 628 192 673 248 c 1,40,-1
 849 248 l 1,41,42
 743 120 743 120 664.5 60 c 128,-1,43
 586 0 586 0 502 0 c 0,8,9
EndSplineSet
Validated: 3073
EndChar

StartChar: trademark
Encoding: 8482 8482 154
Width: 1728
GlyphClass: 2
Flags: W
HStem: 1490 20G<483.5 550.5 1007 1078 1245 1294 1764.5 1815>
VStem: 1650 109<895.105 1274.78>
LayerCount: 2
Fore
SplineSet
494 729 m 1,0,-1
 486 735 l 1,1,2
 557 896 557 896 610 1122 c 0,3,4
 646 1276 646 1276 664 1415 c 1,5,6
 555 1406 555 1406 419 1337 c 1,7,-1
 410 1343 l 1,8,9
 463 1421 463 1421 504 1510 c 1,10,11
 597 1484 597 1484 767 1484 c 0,12,13
 944 1484 944 1484 1070 1510 c 1,14,-1
 1078 1504 l 1,15,16
 1025 1426 1025 1426 985 1337 c 1,17,18
 909 1392 909 1392 817 1415 c 1,19,20
 768 1274 768 1274 738 1144 c 0,21,22
 702 990 702 990 681 793 c 1,23,24
 600 783 600 783 494 729 c 1,0,-1
902 729 m 1,25,-1
 894 735 l 1,26,27
 1035 1021 1035 1021 1145 1360 c 1,28,29
 1134 1401 1134 1401 1106 1440 c 1,30,31
 1204 1462 1204 1462 1286 1510 c 1,32,-1
 1294 1504 l 1,33,34
 1305 1177 1305 1177 1350 934 c 1,35,36
 1497 1153 1497 1153 1639 1412 c 1,37,38
 1637 1428 1637 1428 1632 1441 c 1,39,40
 1722 1461 1722 1461 1807 1510 c 1,41,-1
 1815 1504 l 1,42,43
 1759 1177 1759 1177 1759 895 c 0,44,45
 1759 843 1759 843 1761 794 c 1,46,47
 1693 789 1693 789 1580 729 c 1,48,-1
 1572 735 l 1,49,50
 1644 1047 1644 1047 1650 1279 c 1,51,52
 1509 1063 1509 1063 1385 786 c 1,53,54
 1301 775 1301 775 1220 729 c 1,55,-1
 1212 735 l 1,56,57
 1212 1003 1212 1003 1179 1241 c 1,58,59
 1079 1018 1079 1018 1023 774 c 1,60,61
 963 766 963 766 902 729 c 1,25,-1
EndSplineSet
Validated: 3073
EndChar

StartChar: uni2126
Encoding: 8486 8486 155
Width: 1416
VWidth: 0
GlyphClass: 2
Flags: W
HStem: 0 21G<57 118 511 561.635 1217.5 1289> 20 86<322.202 487.487 964.188 1195.09> 1490 20G<920 1160>
VStem: 301 188<459.448 822.21> 1275 188<683.555 1049.92>
LayerCount: 2
Fore
SplineSet
61 0 m 1,0,-1
 57 10 l 1,1,2
 165 142 165 142 205 252 c 1,3,4
 319 106 319 106 480 106 c 1,5,6
 486 128 486 128 490 149 c 1,7,8
 429 203 429 203 389 260 c 0,9,10
 301 386 301 386 301 559 c 0,11,12
 301 648 301 648 324 750 c 0,13,14
 393 1046 393 1046 629 1257 c 0,15,16
 812 1421 812 1421 1028 1510 c 1,17,-1
 1038 1510 l 1,18,19
 1282 1388 1282 1388 1376 1250 c 0,20,21
 1463 1122 1463 1122 1463 949 c 0,22,23
 1463 861 1463 861 1440 760 c 0,24,25
 1374 470 1374 470 1135 253 c 0,26,27
 1050 176 1050 176 969 123 c 1,28,-1
 963 106 l 1,29,30
 1174 106 1174 106 1413 252 c 1,31,-1
 1417 242 l 1,32,33
 1309 110 1309 110 1269 0 c 1,34,35
 1166 20 1166 20 1063 20 c 0,36,37
 961 20 961 20 859 0 c 1,38,-1
 885 113 l 1,39,40
 1172 321 1172 321 1258 699 c 0,41,42
 1275 774 1275 774 1275 843 c 0,43,44
 1275 1024 1275 1024 1154 1174 c 0,45,46
 1018 1339 1018 1339 789 1365 c 1,47,48
 584 1156 584 1156 506 811 c 0,49,50
 489 736 489 736 489 666 c 0,51,52
 489 470 489 470 630 315 c 1,53,-1
 557 0 l 1,54,55
 465 20 465 20 320 20 c 128,-1,56
 175 20 175 20 61 0 c 1,0,-1
EndSplineSet
Validated: 3073
EndChar

StartChar: estimated
Encoding: 8494 8494 156
Width: 1358
GlyphClass: 2
Flags: W
HStem: 0 73<529.11 879.08> 565 74<529 1125> 1057 73<737.436 1087.37>
VStem: 261 1094<409 727>
LayerCount: 2
Fore
SplineSet
679 0 m 0,0,1
 442 0 442 0 333 160 c 0,2,3
 261 266 261 266 261 409 c 0,4,5
 261 482 261 482 280 565 c 0,6,7
 336 812 336 812 521 971 c 0,8,9
 705 1130 705 1130 940 1130 c 0,10,11
 1154 1130 1154 1130 1273 988 c 0,12,13
 1355 890 1355 890 1355 727 c 0,14,15
 1355 652 1355 652 1338 565 c 1,16,-1
 511 565 l 1,17,-1
 426 194 l 1,18,19
 518 73 518 73 696 73 c 0,20,21
 950 73 950 73 1148 319 c 1,22,-1
 1210 276 l 1,23,24
 1050 103 1050 103 926 51.5 c 128,-1,25
 802 0 802 0 679 0 c 0,0,1
529 639 m 1,26,-1
 1125 639 l 1,27,-1
 1193 936 l 1,28,29
 1093 1057 1093 1057 921 1057 c 0,30,31
 746 1057 746 1057 597 935 c 1,32,-1
 529 639 l 1,26,-1
EndSplineSet
Validated: 3073
EndChar

StartChar: partialdiff
Encoding: 8706 8706 157
Width: 1147
GlyphClass: 2
Flags: W
HStem: 0 145<340 603.104> 805 160<748.074 1019> 1382 128<875.735 1053.03>
VStem: 166 217<197.159 437.296> 1088 184<967.154 1349.27>
LayerCount: 2
Fore
SplineSet
408 0 m 0,0,1
 272 0 272 0 207 91 c 0,2,3
 166 148 166 148 166 235 c 0,4,5
 166 286 166 286 180 347 c 0,6,7
 228 557 228 557 422 734 c 0,8,9
 675 965 675 965 1059 965 c 1,10,11
 1088 1092 1088 1092 1088 1185 c 0,12,13
 1088 1382 1088 1382 963 1382 c 24,14,15
 910 1382 910 1382 844 1316 c 0,16,17
 828 1300 828 1300 738 1162 c 1,18,-1
 617 1222 l 1,19,20
 725 1380 725 1380 837 1445 c 0,21,22
 950 1510 950 1510 1044 1510 c 0,23,24
 1195 1510 1195 1510 1245 1385 c 16,25,26
 1272 1317 1272 1317 1272 1218 c 0,27,28
 1272 1105 1272 1105 1237 951 c 0,29,30
 1172 664 1172 664 1032 438 c 0,31,32
 893 214 893 214 722 107 c 0,33,34
 550 0 550 0 408 0 c 0,0,1
1019 805 m 1,35,36
 950 805 950 805 882 805 c 0,37,38
 809 805 809 805 718 755 c 0,39,40
 623 703 623 703 520 581 c 128,-1,41
 417 459 417 459 389 333 c 0,42,43
 383 306 383 306 383 283 c 0,44,45
 383 233 383 233 408 196 c 0,46,47
 442 145 442 145 501 145 c 0,48,49
 566 145 566 145 630 189 c 0,50,51
 753 273 753 273 830 392 c 0,52,53
 975 613 975 613 1019 805 c 1,35,36
EndSplineSet
Validated: 3073
EndChar

StartChar: uni2206
Encoding: 8710 8710 158
Width: 1296
GlyphClass: 2
Flags: W
HStem: 0 21G<6 146.5 1125 1292> 44 98<267.511 1028.55> 1490 20G<1027.5 1113>
LayerCount: 2
Fore
SplineSet
15 0 m 1,0,-1
 6 6 l 1,1,2
 501 691 501 691 841 1418 c 1,3,4
 950 1431 950 1431 1105 1510 c 1,5,-1
 1113 1504 l 1,6,7
 1113 690 1113 690 1292 6 c 1,8,-1
 1281 0 l 1,9,10
 969 44 969 44 610 44 c 0,11,12
 278 44 278 44 15 0 c 1,0,-1
909 1247 m 1,13,14
 554 719 554 719 263 153 c 1,15,16
 391 142 391 142 647 142 c 0,17,18
 860 142 860 142 1034 165 c 1,19,20
 1034 769 1034 769 909 1247 c 1,13,14
EndSplineSet
Validated: 3073
EndChar

StartChar: product
Encoding: 8719 8719 159
Width: 1322
GlyphClass: 2
Flags: W
HStem: -380 21G<72 155 831 914> 1382 80<716.924 1236.31> 1490 20G<497 627 1382 1519>
DStem2: 72 -374 712 1370 0.242157 0.970237<550.563 1438.37>
LayerCount: 2
Fore
SplineSet
80 -380 m 1,0,-1
 72 -374 l 1,1,2
 203 2 203 2 327 540 c 0,3,4
 458 1109 458 1109 497 1504 c 1,5,-1
 509 1510 l 1,6,7
 745 1462 745 1462 993 1462 c 0,8,9
 1253 1462 1253 1462 1511 1510 c 1,10,-1
 1519 1504 l 1,11,12
 1394 1151 1394 1151 1264 592 c 0,13,14
 1138 51 1138 51 1103 -288 c 1,15,16
 989 -303 989 -303 839 -380 c 1,17,-1
 831 -374 l 1,18,19
 957 -17 957 -17 1086 540 c 0,20,21
 1201 1038 1201 1038 1242 1367 c 1,22,23
 1085 1382 1085 1382 974 1382 c 0,24,25
 870 1382 870 1382 712 1370 c 1,26,27
 598 990 598 990 505 592 c 0,28,29
 422 235 422 235 344 -288 c 1,30,31
 230 -303 230 -303 80 -380 c 1,0,-1
EndSplineSet
Validated: 3073
EndChar

StartChar: summation
Encoding: 8721 8721 160
Width: 1169
GlyphClass: 2
Flags: W
HStem: -380 21G<-36 81 817 909.5> -335 91<351.312 831.914> 1258 205<948.748 1193.42> 1490 20G<596.5 725 1247.5 1327>
LayerCount: 2
Fore
SplineSet
-28 -380 m 1,0,-1
 -36 -374 l 1,1,2
 428 120 428 120 703 551 c 1,3,4
 649 942 649 942 410 1418 c 1,5,6
 519 1431 519 1431 674 1510 c 1,7,8
 776 1463 776 1463 980 1463 c 0,9,10
 1171 1463 1171 1463 1324 1510 c 1,11,-1
 1327 1500 l 1,12,13
 1220 1368 1220 1368 1179 1258 c 1,14,15
 1016 1266 1016 1266 887 1327 c 0,16,17
 724 1404 724 1404 678 1472 c 1,18,19
 710 1064 710 1064 953 557 c 1,20,21
 632 208 632 208 347 -235 c 1,22,23
 409 -244 409 -244 517 -244 c 0,24,25
 776 -244 776 -244 1033 -128 c 1,26,-1
 1037 -138 l 1,27,28
 930 -270 930 -270 889 -380 c 1,29,30
 745 -335 745 -335 501 -335 c 0,31,32
 190 -335 190 -335 -28 -380 c 1,0,-1
EndSplineSet
Validated: 3073
EndChar

StartChar: minus
Encoding: 8722 8722 161
Width: 1266
GlyphClass: 2
Flags: W
HStem: 635 222<414.479 568.051 1042.32 1196.18> 693 106<484.28 1126.21>
LayerCount: 2
Fore
SplineSet
303 635 m 1,0,-1
 299 645 l 1,1,2
 394 763 394 763 435 857 c 1,3,4
 631 799 631 799 831 799 c 0,5,6
 1030 799 1030 799 1308 857 c 1,7,-1
 1312 847 l 1,8,9
 1216 729 1216 729 1176 635 c 1,10,11
 979 693 979 693 779.5 693 c 128,-1,12
 580 693 580 693 303 635 c 1,0,-1
EndSplineSet
Validated: 3073
EndChar

StartChar: uni2215
Encoding: 8725 8725 162
Width: 1076
GlyphClass: 2
Flags: W
LayerCount: 2
Fore
SplineSet
177 -144 m 1,0,1
 165 -150 l 1,2,3
 78 -92 78 -92 -6 -68 c 1,4,5
 375 372 375 372 711 835 c 0,6,7
 1043 1292 1043 1292 1248 1654 c 1,8,-1
 1259 1660 l 1,9,10
 1347 1602 1347 1602 1430 1578 c 1,11,12
 1118 1203 1118 1203 806 777 c 0,13,14
 437 273 437 273 177 -144 c 1,0,1
EndSplineSet
Validated: 3073
EndChar

StartChar: asteriskmath
Encoding: 8727 8727 163
Width: 1238
GlyphClass: 2
Flags: W
LayerCount: 2
Fore
SplineSet
1004 1229 m 1,0,-1
 1012 1223 l 1,1,2
 918 1013 918 1013 869 844 c 1,3,4
 1009 928 1009 928 1146 1040 c 1,5,6
 1193 968 1193 968 1296 900 c 1,7,-1
 1292 888 l 1,8,9
 1071 823 1071 823 901 746 c 1,10,11
 1035 669 1035 669 1226 604 c 1,12,-1
 1225 592 l 1,13,14
 1091 524 1091 524 1010 452 c 1,15,16
 926 563 926 563 825 646 c 1,17,18
 809 537 809 537 809 425 c 0,19,20
 809 386 809 386 811 350 c 1,21,22
 712 331 712 331 579 263 c 1,23,-1
 570 269 l 1,24,25
 664 479 664 479 712 648 c 1,26,27
 572 564 572 564 435 452 c 1,28,29
 389 524 389 524 287 592 c 1,30,-1
 289 604 l 1,31,32
 510 669 510 669 680 746 c 1,33,34
 546 823 546 823 355 888 c 1,35,-1
 358 900 l 1,36,37
 491 968 491 968 571 1040 c 1,38,39
 655 929 655 929 756 846 c 1,40,41
 773 960 773 960 773 1078 c 0,42,43
 773 1108 773 1108 772 1142 c 1,44,45
 870 1161 870 1161 1004 1229 c 1,0,-1
EndSplineSet
Validated: 3073
EndChar

StartChar: uni2218
Encoding: 8728 8728 164
Width: 875
GlyphClass: 2
Flags: W
HStem: 418 663
VStem: 315 141<649.798 841.022> 775 130<657.026 854.886>
LayerCount: 2
Fore
SplineSet
551 418 m 1,0,-1
 541 418 l 1,1,2
 453 452 453 452 386 517 c 0,3,4
 315 586 315 586 315 682 c 0,5,6
 315 714 315 714 323 750 c 0,7,8
 350 871 350 871 473 969 c 0,9,10
 551 1031 551 1031 669 1081 c 1,11,-1
 679 1081 l 1,12,13
 767 1047 767 1047 834 982 c 0,14,15
 905 913 905 913 905 817 c 0,16,17
 905 785 905 785 897 749 c 0,18,19
 870 626 870 626 748 530 c 0,20,21
 668 466 668 466 551 418 c 1,0,-1
545 942 m 1,22,23
 481 889 481 889 461 795 c 0,24,25
 456 772 456 772 456 750 c 0,26,27
 456 662 456 662 551 613 c 0,28,29
 613 582 613 582 678 559 c 1,30,31
 752 636 752 636 769 706 c 0,32,33
 775 731 775 731 775 754 c 0,34,35
 775 841 775 841 685 889 c 0,36,37
 633 917 633 917 545 942 c 1,22,23
EndSplineSet
Validated: 3073
EndChar

StartChar: uni2219
Encoding: 8729 8729 165
Width: 532
GlyphClass: 2
Flags: W
HStem: 572 351
VStem: 283 311
LayerCount: 2
Fore
SplineSet
346 835 m 1,0,1
 444 851 444 851 585 923 c 1,2,-1
 594 917 l 1,3,4
 562 835 562 835 547 775 c 0,5,6
 538 739 538 739 530 660 c 1,7,8
 432 643 432 643 292 572 c 1,9,-1
 283 578 l 1,10,11
 320 666 320 666 332 719 c 0,12,13
 341 760 341 760 346 835 c 1,0,1
EndSplineSet
Validated: 1
EndChar

StartChar: radical
Encoding: 8730 8730 166
Width: 1232
GlyphClass: 2
Flags: W
HStem: 0 21G<386 465.5> 1490 20G<1416.5 1479>
VStem: 392 121<377.862 523.814>
LayerCount: 2
Fore
SplineSet
395 0 m 1,0,-1
 386 6 l 1,1,2
 392 80 392 80 392 153 c 0,3,4
 392 460 392 460 275 758 c 1,5,6
 366 774 366 774 507 845 c 1,7,-1
 516 839 l 1,8,9
 513 787 513 787 513 737 c 0,10,11
 513 486 513 486 588 278 c 1,12,13
 922 766 922 766 1256 1427 c 1,14,15
 1362 1453 1362 1453 1471 1510 c 1,16,-1
 1479 1504 l 1,17,18
 985 819 985 819 644 92 c 1,19,20
 536 73 536 73 395 0 c 1,0,-1
EndSplineSet
Validated: 3073
EndChar

StartChar: uni221B
Encoding: 8731 8731 167
Width: 1232
GlyphClass: 2
Flags: W
HStem: 0 21G<386 465.5> 1490 20G<747 799.5 1416.5 1479>
VStem: 392 121<377.862 523.814> 834 93<1001 1119.73 1273.37 1376.07>
LayerCount: 2
Fore
SplineSet
395 0 m 1,0,-1
 386 6 l 1,1,2
 392 80 392 80 392 153 c 0,3,4
 392 460 392 460 275 758 c 1,5,6
 366 774 366 774 507 845 c 1,7,-1
 516 839 l 1,8,9
 513 787 513 787 513 737 c 0,10,11
 513 486 513 486 588 278 c 1,12,13
 922 766 922 766 1256 1427 c 1,14,15
 1362 1453 1362 1453 1471 1510 c 1,16,-1
 1479 1504 l 1,17,18
 985 819 985 819 644 92 c 1,19,20
 536 73 536 73 395 0 c 1,0,-1
773 1510 m 1,21,-1
 781 1510 l 1,22,23
 818 1495 818 1495 858 1466 c 0,24,25
 926 1416 926 1416 926 1360 c 0,26,27
 926 1348 926 1348 923 1337 c 0,28,29
 904 1268 904 1268 802 1222 c 1,30,31
 872 1205 872 1205 900 1179 c 0,32,33
 927 1154 927 1154 927 1112 c 0,34,35
 927 1095 927 1095 922 1075 c 0,36,37
 902 996 902 996 808 937 c 0,38,39
 725 885 725 885 645 857 c 1,40,-1
 636 857 l 1,41,42
 580 883 580 883 531 920 c 0,43,44
 496 947 496 947 445 1014 c 1,45,-1
 552 1064 l 1,46,47
 572 1029 572 1029 619 996 c 0,48,49
 669 961 669 961 754 943 c 1,50,51
 815 975 815 975 832 1045 c 0,52,53
 834 1053 834 1053 834 1060 c 0,54,55
 834 1097 834 1097 789 1120 c 1,56,-1
 633 1188 l 1,57,58
 816 1245 816 1245 828 1316 c 0,59,60
 829 1322 829 1322 829 1327 c 0,61,62
 829 1358 829 1358 783 1380 c 0,63,-1
 682 1426 l 1,64,65
 658 1396 658 1396 652 1370 c 0,66,67
 644 1335 644 1335 681 1316 c 1,68,-1
 581 1274 l 1,69,70
 563 1290 563 1290 563 1317 c 0,71,72
 563 1328 563 1328 566 1342 c 0,73,74
 575 1383 575 1383 663 1447 c 0,75,76
 721 1489 721 1489 773 1510 c 1,21,-1
EndSplineSet
Validated: 3073
EndChar

StartChar: infinity
Encoding: 8734 8734 168
Width: 1334
GlyphClass: 2
Flags: W
HStem: 418 663
VStem: 315 141<648.616 841.533> 775 140<647.97 857.063> 1234 130<657.502 854.886>
LayerCount: 2
Fore
SplineSet
545 942 m 1,0,1
 481 889 481 889 461 795 c 0,2,3
 456 772 456 772 456 750 c 0,4,5
 456 662 456 662 551 613 c 0,6,7
 613 582 613 582 678 559 c 1,8,9
 752 636 752 636 769 706 c 0,10,11
 775 731 775 731 775 754 c 0,12,13
 775 841 775 841 685 889 c 0,14,15
 632 917 632 917 545 942 c 1,0,1
551 418 m 1,16,-1
 541 418 l 1,17,18
 453 452 453 452 386 517 c 0,19,20
 315 586 315 586 315 682 c 0,21,22
 315 714 315 714 323 750 c 0,23,24
 350 871 350 871 473 969 c 0,25,26
 551 1031 551 1031 669 1081 c 1,27,-1
 679 1081 l 1,28,29
 766 1047 766 1047 834 982 c 0,30,31
 863 954 863 954 880 922 c 1,32,33
 903 946 903 946 932 969 c 0,34,35
 1010 1031 1010 1031 1128 1081 c 1,36,-1
 1138 1081 l 1,37,38
 1226 1047 1226 1047 1293 982 c 0,39,40
 1364 913 1364 913 1364 817 c 0,41,42
 1364 785 1364 785 1356 749 c 0,43,44
 1329 627 1329 627 1207 530 c 0,45,46
 1126 465 1126 465 1010 418 c 1,47,-1
 1000 418 l 1,48,49
 909 453 909 453 845 517 c 0,50,51
 817 545 817 545 800 576 c 1,52,53
 776 553 776 553 748 530 c 0,54,55
 671 466 671 466 551 418 c 1,16,-1
1004 942 m 1,56,57
 940 889 940 889 920 795 c 0,58,59
 915 772 915 772 915 750 c 0,60,61
 915 662 915 662 1010 613 c 0,62,63
 1072 582 1072 582 1137 559 c 1,64,65
 1211 636 1211 636 1228 706 c 0,66,67
 1234 731 1234 731 1234 754 c 0,68,69
 1234 841 1234 841 1144 889 c 0,70,71
 1091 917 1091 917 1004 942 c 1,56,57
EndSplineSet
Validated: 3073
EndChar

StartChar: approxequal
Encoding: 8776 8776 169
Width: 1236
GlyphClass: 2
Flags: W
HStem: 429 169<834.211 1043.15> 592 168<473.11 680.163> 743 169<904.922 1115.83> 906 168<545.751 752.365>
LayerCount: 2
Fore
SplineSet
330 752 m 1,0,-1
 326 762 l 1,1,2
 432 906 432 906 475 1016 c 1,3,4
 560 1074 560 1074 635 1074 c 0,5,6
 731 1074 731 1074 806 971 c 0,7,8
 849 912 849 912 936 912 c 0,9,10
 1076 912 1076 912 1327 1070 c 1,11,-1
 1331 1060 l 1,12,13
 1224 916 1224 916 1182 806 c 1,14,15
 1096 743 1096 743 1015 743 c 0,16,17
 923 743 923 743 850 850 c 0,18,19
 812 906 812 906 724 906 c 0,20,21
 591 906 591 906 330 752 c 1,0,-1
257 438 m 1,22,-1
 253 448 l 1,23,24
 360 592 360 592 402 702 c 1,25,26
 487 760 487 760 562 760 c 0,27,28
 659 760 659 760 734 657 c 0,29,30
 777 598 777 598 863 598 c 0,31,32
 1003 598 1003 598 1255 756 c 1,33,-1
 1258 746 l 1,34,35
 1152 602 1152 602 1110 492 c 1,36,37
 1023 429 1023 429 942 429 c 0,38,39
 853 429 853 429 778 536 c 0,40,41
 739 592 739 592 652 592 c 0,42,43
 519 592 519 592 257 438 c 1,22,-1
EndSplineSet
Validated: 3073
EndChar

StartChar: notequal
Encoding: 8800 8800 170
Width: 1266
GlyphClass: 2
Flags: W
HStem: 460 222<373.868 525.654 999.896 1155.52> 518 106<782 1084.72> 810 222<454.82 609.812 1085.08 1236.52> 868 106<524.833 828>
LayerCount: 2
Fore
SplineSet
366 276 m 1,0,-1
 362 286 l 1,1,2
 468 392 468 392 565 509 c 1,3,4
 427 495 427 495 262 460 c 1,5,-1
 259 470 l 1,6,7
 354 588 354 588 394 682 c 1,8,9
 527 643 527 643 661 630 c 1,10,11
 704 685 704 685 754 756 c 0,12,13
 795 814 795 814 828 868 c 1,14,15
 619 868 619 868 343 810 c 1,16,-1
 339 820 l 1,17,18
 435 938 435 938 475 1032 c 1,19,20
 672 974 672 974 871 974 c 0,21,22
 882 974 882 974 893 974 c 1,23,24
 970 1107 970 1107 1018 1227 c 1,25,26
 1072 1207 1072 1207 1143 1207 c 0,27,28
 1191 1207 1191 1207 1245 1216 c 1,29,-1
 1248 1206 l 1,30,31
 1143 1100 1143 1100 1046 983 c 1,32,33
 1183 997 1183 997 1348 1032 c 1,34,-1
 1352 1022 l 1,35,36
 1257 904 1257 904 1216 810 c 1,37,38
 1083 849 1083 849 949 862 c 1,39,40
 926 832 926 832 857 736 c 0,41,42
 818 682 818 682 782 624 c 1,43,44
 990 624 990 624 1267 682 c 1,45,-1
 1271 672 l 1,46,47
 1176 554 1176 554 1135 460 c 1,48,49
 939 518 939 518 740 518 c 0,50,51
 729 518 729 518 718 518 c 1,52,53
 641 385 641 385 592 265 c 1,54,55
 543 286 543 286 473 286 c 0,56,57
 419 286 419 286 366 276 c 1,0,-1
EndSplineSet
Validated: 3073
EndChar

StartChar: equivalence
Encoding: 8801 8801 171
Width: 1266
GlyphClass: 2
Flags: W
HStem: 285 222<333.479 487.184 961.816 1115.52> 343 106<403.339 1045.66> 635 222<414.479 568.051 1042.32 1196.18> 693 106<484.28 1126.21> 985 222<495.479 648.817 1123.32 1276.52> 1043 106<565.062 1206.95>
LayerCount: 2
Fore
SplineSet
383 985 m 1,0,-1
 380 995 l 1,1,2
 475 1113 475 1113 516 1207 c 1,3,4
 712 1149 712 1149 912 1149 c 0,5,6
 1111 1149 1111 1149 1389 1207 c 1,7,-1
 1392 1197 l 1,8,9
 1297 1079 1297 1079 1256 985 c 1,10,11
 1060 1043 1060 1043 860.5 1043 c 128,-1,12
 661 1043 661 1043 383 985 c 1,0,-1
222 285 m 1,13,-1
 218 295 l 1,14,15
 313 413 313 413 354 507 c 1,16,17
 551 449 551 449 750 449 c 0,18,19
 950 449 950 449 1227 507 c 1,20,-1
 1231 497 l 1,21,22
 1136 379 1136 379 1095 285 c 1,23,24
 898 343 898 343 699 343 c 0,25,26
 499 343 499 343 222 285 c 1,13,-1
303 635 m 1,27,-1
 299 645 l 1,28,29
 394 763 394 763 435 857 c 1,30,31
 631 799 631 799 831 799 c 0,32,33
 1030 799 1030 799 1308 857 c 1,34,-1
 1312 847 l 1,35,36
 1216 729 1216 729 1176 635 c 1,37,38
 979 693 979 693 779.5 693 c 128,-1,39
 580 693 580 693 303 635 c 1,27,-1
EndSplineSet
Validated: 3073
EndChar

StartChar: lessequal
Encoding: 8804 8804 172
Width: 1380
GlyphClass: 2
Flags: W
HStem: 84 222<287.479 449.325 970.808 1132.52> 142 106<360.63 1059.43>
LayerCount: 2
Fore
SplineSet
175 84 m 1,0,-1
 172 94 l 1,1,2
 267 212 267 212 308 306 c 1,3,4
 504 248 504 248 736 248 c 0,5,6
 967 248 967 248 1245 306 c 1,7,-1
 1248 296 l 1,8,9
 1153 178 1153 178 1112 84 c 1,10,11
 916 142 916 142 684.5 142 c 128,-1,12
 453 142 453 142 175 84 c 1,0,-1
330 781 m 1,13,14
 426 899 426 899 466 993 c 1,15,16
 901 1109 901 1109 1495 1390 c 1,17,-1
 1499 1380 l 1,18,19
 1437 1305 1437 1305 1391 1224 c 1,20,21
 1007 1115 1007 1115 621 922 c 1,22,23
 936 666 936 666 1311 595 c 1,24,-1
 1315 585 l 1,25,26
 1215 460 1215 460 1179 373 c 1,27,28
 770 710 770 710 334 771 c 1,29,-1
 330 781 l 1,13,14
EndSplineSet
Validated: 3073
EndChar

StartChar: greaterequal
Encoding: 8805 8805 173
Width: 1380
GlyphClass: 2
Flags: W
HStem: 84 222<337.479 499.325 1020.81 1182.52> 142 106<410.63 1109.43>
LayerCount: 2
Fore
SplineSet
1457 982 m 1,0,1
 1361 864 1361 864 1321 770 c 1,2,3
 886 654 886 654 292 373 c 1,4,-1
 288 383 l 1,5,6
 350 458 350 458 396 539 c 1,7,8
 780 648 780 648 1166 841 c 1,9,10
 851 1097 851 1097 476 1168 c 1,11,-1
 472 1178 l 1,12,13
 572 1303 572 1303 608 1390 c 1,14,15
 1017 1053 1017 1053 1453 992 c 1,16,-1
 1457 982 l 1,0,1
225 84 m 1,17,-1
 222 94 l 1,18,19
 317 212 317 212 358 306 c 1,20,21
 554 248 554 248 786 248 c 0,22,23
 1017 248 1017 248 1295 306 c 1,24,-1
 1298 296 l 1,25,26
 1203 178 1203 178 1162 84 c 1,27,28
 966 142 966 142 734.5 142 c 128,-1,29
 503 142 503 142 225 84 c 1,17,-1
EndSplineSet
Validated: 3073
EndChar

StartChar: lozenge
Encoding: 9674 9674 174
Width: 1369
GlyphClass: 2
Flags: W
LayerCount: 2
Fore
SplineSet
633 157 m 1,0,-1
 625 163 l 1,1,2
 522 477 522 477 314 711 c 1,3,4
 669 1026 669 1026 823 1271 c 1,5,6
 931 1284 931 1284 1087 1363 c 1,7,-1
 1095 1357 l 1,8,9
 1189 1028 1189 1028 1406 809 c 1,10,11
 1051 494 1051 494 896 249 c 1,12,13
 783 234 783 234 633 157 c 1,0,-1
892 1168 m 1,14,15
 677 996 677 996 545 812 c 1,16,17
 629 477 629 477 822 355 c 1,18,19
 1000 482 1000 482 1179 726 c 1,20,21
 1102 996 1102 996 892 1168 c 1,14,15
EndSplineSet
Validated: 3073
EndChar

StartChar: Y
Encoding: 89 89 175
Width: 1175
Flags: W
HStem: 0 21G<465 551> 1490 20G<518 604 1454.5 1517>
LayerCount: 2
Fore
SplineSet
474 0 m 1,0,-1
 465 6 l 1,1,2
 539 216 539 216 602 436 c 1,3,4
 544 941 544 941 332 1418 c 1,5,6
 440 1431 440 1431 596 1510 c 1,7,-1
 604 1504 l 1,8,9
 625 991 625 991 775 633 c 1,10,11
 1066 996 1066 996 1294 1427 c 1,12,13
 1400 1453 1400 1453 1509 1510 c 1,14,-1
 1517 1504 l 1,15,16
 1093 970 1093 970 791 466 c 1,17,18
 752 238 752 238 737 92 c 1,19,20
 628 79 628 79 474 0 c 1,0,-1
EndSplineSet
Validated: 1
EndChar

StartChar: X
Encoding: 88 88 176
Width: 1185
Flags: W
HStem: 0 21G<31 116.5 904 990.5> 1490 20G<543 629 1415.5 1500>
LayerCount: 2
Fore
SplineSet
40 0 m 1,0,-1
 31 6 l 1,1,2
 424 404 424 404 694 717 c 1,3,4
 570 1076 570 1076 357 1418 c 1,5,6
 465 1431 465 1431 621 1510 c 1,7,-1
 629 1504 l 1,8,9
 696 1164 696 1164 812 867 c 1,10,11
 1028 1112 1028 1112 1244 1420 c 1,12,13
 1339 1433 1339 1433 1492 1510 c 1,14,-1
 1500 1504 l 1,15,16
 1098 1084 1098 1084 847 779 c 1,17,18
 974 416 974 416 1176 92 c 1,19,20
 1068 79 1068 79 913 0 c 1,21,-1
 904 6 l 1,22,23
 848 280 848 280 726 627 c 1,24,25
 464 340 464 340 288 90 c 1,26,27
 193 77 193 77 40 0 c 1,0,-1
EndSplineSet
Validated: 1
EndChar

StartChar: Z
Encoding: 90 90 177
Width: 1168
Flags: W
HStem: 0 21G<81 209 903 1018> 45 95<455.61 953.541> 1374 91<649.403 1057.84> 1490 20G<584 700 1259.5 1415>
LayerCount: 2
Fore
SplineSet
90 0 m 1,0,-1
 81 6 l 1,1,2
 690 735 690 735 1061 1370 c 1,3,4
 980 1374 980 1374 897 1374 c 0,5,6
 717 1374 717 1374 461 1258 c 1,7,-1
 458 1268 l 1,8,9
 562 1394 562 1394 606 1510 c 1,10,11
 794 1465 794 1465 962 1465 c 0,12,13
 1112 1465 1112 1465 1407 1510 c 1,14,-1
 1415 1504 l 1,15,16
 786 729 786 729 450 140 c 1,17,18
 509 136 509 136 584 136 c 0,19,20
 891 136 891 136 1140 252 c 1,21,-1
 1144 242 l 1,22,23
 1040 116 1040 116 996 0 c 1,24,25
 810 45 810 45 568 45 c 0,26,27
 328 45 328 45 90 0 c 1,0,-1
EndSplineSet
Validated: 1
EndChar

StartChar: J
Encoding: 74 74 178
Width: 1169
VWidth: 0
Flags: W
HStem: 0 21G<336 556> 1490 20G<1250 1336>
LayerCount: 2
Fore
SplineSet
451 0 m 1,0,-1
 441 0 l 1,1,2
 231 100 231 100 103 260 c 0,3,4
 95 270 95 270 86 287 c 1,5,-1
 289 383 l 1,6,7
 294 376 294 376 325 336 c 0,8,9
 451 175 451 175 689 145 c 1,10,11
 837 250 837 250 947 730 c 0,12,13
 1022 1056 1022 1056 1064 1418 c 1,14,15
 1172 1431 1172 1431 1328 1510 c 1,16,-1
 1336 1504 l 1,17,18
 1213 1156 1213 1156 1125 782 c 0,19,20
 1097 663 1097 663 1082 551 c 1,21,22
 987 375 987 375 848 253 c 0,23,24
 661 89 661 89 451 0 c 1,0,-1
EndSplineSet
Validated: 1
EndChar

StartChar: U
Encoding: 85 85 179
Width: 1409
VWidth: 0
Flags: W
HStem: 0 21G<585 770> 1490 20G<691.5 779 1492 1576>
VStem: 316 214<308.29 608.769>
LayerCount: 2
Fore
SplineSet
665 0 m 1,0,-1
 655 0 l 1,1,2
 515 66 515 66 408 159 c 0,3,4
 316 239 316 239 316 384 c 0,5,6
 316 419 316 419 321 459 c 1,7,8
 363 612 363 612 390 730 c 0,9,10
 471 1079 471 1079 507 1418 c 17,11,12
 612 1430 612 1430 771 1510 c 1,13,-1
 779 1504 l 1,14,15
 662 1185 662 1185 568 782 c 0,16,17
 530 620 530 620 530 504 c 0,18,19
 530 338 530 338 608 268 c 0,20,21
 712 173 712 173 903 145 c 1,22,23
 1128 472 1128 472 1203 800 c 0,24,25
 1251 1011 1251 1011 1304 1418 c 1,26,27
 1416 1432 1416 1432 1568 1510 c 1,28,-1
 1576 1504 l 1,29,30
 1463 1194 1463 1194 1411 970 c 0,31,32
 1329 617 1329 617 1317 548 c 1,33,34
 1167 344 1167 344 1064 253 c 0,35,36
 875 88 875 88 665 0 c 1,0,-1
EndSplineSet
Validated: 1
EndChar

StartChar: K
Encoding: 75 75 180
Width: 1252
Flags: W
HStem: 0 21G<181 265> 1490 20G<699.5 782 1414.5 1497>
LayerCount: 2
Fore
SplineSet
190 0 m 1,0,-1
 181 6 l 1,1,2
 310 368 310 368 393 730 c 0,3,4
 471 1068 471 1068 511 1422 c 1,5,6
 625 1434 625 1434 774 1510 c 1,7,-1
 782 1504 l 1,8,9
 663 1169 663 1169 571 782 c 0,10,11
 546 677 546 677 534 613 c 1,12,13
 922 998 922 998 1226 1422 c 1,14,15
 1340 1434 1340 1434 1489 1510 c 1,16,-1
 1497 1504 l 1,17,18
 1134 1147 1134 1147 953 921 c 1,19,20
 982 447 982 447 1173 89 c 1,21,22
 1051 71 1051 71 909 -3 c 1,23,-1
 901 3 l 1,24,25
 892 400 892 400 760 711 c 1,26,27
 618 564 618 564 492 385 c 1,28,29
 467 230 467 230 453 92 c 1,30,31
 340 77 340 77 190 0 c 1,0,-1
EndSplineSet
Validated: 1
EndChar

StartChar: Q
Encoding: 81 81 181
Width: 1354
VWidth: 0
Flags: W
HStem: 0 21G<576 763 934 994> 1490 20G<888 1129>
VStem: 270 187<459.21 822.177> 1245 187<684.569 1051.72>
LayerCount: 2
Fore
SplineSet
765 463 m 1,0,1
 893 481 893 481 995 537 c 1,2,-1
 1004 531 l 1,3,4
 1004 414 1004 414 1045 300 c 1,5,6
 1166 437 1166 437 1227 699 c 0,7,8
 1245 775 1245 775 1245 845 c 0,9,10
 1245 1031 1245 1031 1123 1174 c 0,11,12
 986 1336 986 1336 758 1365 c 1,13,14
 558 1161 558 1161 475 811 c 0,15,16
 457 735 457 735 457 665 c 0,17,18
 457 481 457 481 580 336 c 0,19,20
 713 179 713 179 923 148 c 1,21,22
 891 323 891 323 765 463 c 1,0,1
706 0 m 1,23,-1
 696 0 l 1,24,25
 456 116 456 116 358 260 c 0,26,27
 270 389 270 389 270 562 c 0,28,29
 270 650 270 650 293 750 c 0,30,31
 361 1045 361 1045 598 1257 c 0,32,33
 779 1419 779 1419 997 1510 c 1,34,-1
 1007 1510 l 1,35,36
 1251 1388 1251 1388 1345 1250 c 0,37,38
 1432 1122 1432 1122 1432 949 c 0,39,40
 1432 859 1432 859 1409 760 c 0,41,42
 1338 461 1338 461 1071 235 c 1,43,44
 1105 153 1105 153 1173 74 c 1,45,46
 1045 56 1045 56 943 0 c 1,47,-1
 934 6 l 1,48,49
 934 63 934 63 928 118 c 1,50,51
 820 47 820 47 706 0 c 1,23,-1
EndSplineSet
Validated: 1
EndChar

StartChar: P
Encoding: 80 80 182
Width: 1331
VWidth: 0
Flags: W
HStem: 0 21G<227 311> 388 84<578.267 971.582> 1110 20G<654 737> 1332 178<652.487 1102.55>
VStem: 1262 181<838.965 1173.32>
LayerCount: 2
Fore
SplineSet
236 0 m 1,0,-1
 227 6 l 1,1,2
 340 334 340 334 394 565 c 0,3,4
 448 797 448 797 466 1038 c 1,5,6
 579 1053 579 1053 729 1130 c 1,7,-1
 737 1124 l 1,8,9
 628 850 628 850 575 627 c 0,10,11
 562 572 562 572 553 523 c 1,12,13
 680 472 680 472 791 472 c 0,14,15
 986 472 986 472 1123 637 c 0,16,17
 1214 747 1214 747 1251 912 c 0,18,19
 1262 961 1262 961 1262 1006 c 0,20,21
 1262 1128 1262 1128 1181 1227 c 0,22,23
 1095 1332 1095 1332 885 1332 c 0,24,25
 652 1332 652 1332 394 1163 c 1,26,-1
 391 1173 l 1,27,28
 498 1305 498 1305 539 1415 c 1,29,30
 713 1510 713 1510 926 1510 c 0,31,32
 1221 1510 1221 1510 1352 1346 c 0,33,34
 1443 1232 1443 1232 1443 1076 c 0,35,36
 1443 1007 1443 1007 1425 928 c 0,37,38
 1374 705 1374 705 1198 551 c 0,39,40
 1012 388 1012 388 772 388 c 0,41,42
 668 388 668 388 535 430 c 1,43,44
 507 258 507 258 499 92 c 1,45,46
 386 77 386 77 236 0 c 1,0,-1
EndSplineSet
Validated: 1
EndChar

StartChar: D
Encoding: 68 68 183
Width: 1413
VWidth: 0
Flags: W
HStem: 0 91<696 902.486> 1110 20G<654 737> 1332 178<651.343 1091.05>
VStem: 1309 182<675.137 1102.66>
LayerCount: 2
Fore
SplineSet
236 0 m 1,0,-1
 227 6 l 1,1,2
 340 334 340 334 394 565 c 0,3,4
 448 797 448 797 466 1038 c 1,5,6
 579 1053 579 1053 729 1130 c 1,7,-1
 737 1124 l 1,8,9
 624 840 624 840 575 627 c 0,10,11
 517 374 517 374 502 139 c 1,12,13
 616 91 616 91 718 91 c 0,14,15
 955 91 955 91 1114 328 c 0,16,17
 1234 507 1234 507 1290 741 c 0,18,19
 1309 821 1309 821 1309 895 c 0,20,21
 1309 1055 1309 1055 1221 1178 c 0,22,23
 1112 1332 1112 1332 885 1332 c 0,24,25
 650 1332 650 1332 394 1163 c 1,26,-1
 391 1173 l 1,27,28
 498 1305 498 1305 539 1415 c 1,29,30
 710 1510 710 1510 926 1510 c 0,31,32
 1223 1510 1223 1510 1371 1328 c 0,33,34
 1491 1180 1491 1180 1491 962 c 0,35,36
 1491 860 1491 860 1464 739 c 0,37,38
 1410 505 1410 505 1256 312 c 0,39,40
 1007 0 1007 0 696 0 c 1,41,-1
 499 92 l 1,42,43
 386 77 386 77 236 0 c 1,0,-1
EndSplineSet
Validated: 1
EndChar

StartChar: R
Encoding: 82 82 184
Width: 1372
VWidth: 0
Flags: W
HStem: 0 21G<227 311 991 1071> 388 84<576.672 826.429> 1110 20G<654 737> 1332 178<651.988 1102.55>
VStem: 1262 181<839.613 1173.32>
LayerCount: 2
Fore
SplineSet
236 0 m 1,0,1
 227 6 l 1,2,3
 340 334 340 334 394 565 c 0,4,5
 448 797 448 797 466 1038 c 1,6,7
 579 1053 579 1053 729 1130 c 1,8,-1
 737 1124 l 1,9,10
 628 850 628 850 575 627 c 0,11,12
 562 572 562 572 553 523 c 1,13,14
 680 472 680 472 791 472 c 0,15,16
 986 472 986 472 1123 637 c 0,17,18
 1214 747 1214 747 1251 912 c 0,19,20
 1262 961 1262 961 1262 1006 c 0,21,22
 1262 1128 1262 1128 1181 1227 c 0,23,24
 1095 1332 1095 1332 885 1332 c 0,25,26
 650 1332 650 1332 394 1163 c 1,27,-1
 391 1173 l 1,28,29
 498 1305 498 1305 539 1415 c 1,30,31
 713 1510 713 1510 926 1510 c 0,32,33
 1221 1510 1221 1510 1352 1346 c 0,34,35
 1443 1232 1443 1232 1443 1076 c 0,36,37
 1443 1007 1443 1007 1425 928 c 0,38,39
 1375 709 1375 709 1198 551 c 0,40,41
 1100 464 1100 464 984 424 c 1,42,43
 1100 244 1100 244 1263 92 c 1,44,45
 1142 74 1142 74 1000 0 c 1,46,-1
 991 6 l 1,47,48
 928 212 928 212 799 388 c 1,49,50
 668 388 668 388 535 430 c 1,51,52
 507 258 507 258 499 92 c 1,53,54
 386 77 386 77 236 0 c 1,0,1
EndSplineSet
Validated: 1
EndChar

StartChar: S
Encoding: 83 83 185
Width: 1179
VWidth: 0
Flags: W
HStem: 0 21G<481.5 716> 1490 20G<797.5 1039.5>
VStem: 364 159<988 1145.17> 1000 184<409.034 580.371>
DStem2: 638 954 555 758 0.916819 -0.399302<-131.495 498.761>
LayerCount: 2
Fore
SplineSet
613 0 m 1,0,-1
 603 0 l 1,1,2
 360 119 360 119 265 260 c 0,3,4
 226 318 226 318 207 377 c 1,5,-1
 405 465 l 1,6,7
 428 407 428 407 487 336 c 0,8,9
 622 173 622 173 851 145 c 1,10,11
 957 267 957 267 993 415 c 0,12,13
 1000 444 1000 444 1000 469 c 0,14,15
 1000 585 1000 585 870 634 c 0,16,17
 854 640 854 640 555 758 c 0,18,19
 364 833 364 833 364 988 c 0,20,21
 364 1020 364 1020 372 1056 c 0,22,23
 395 1159 395 1159 505 1257 c 0,24,25
 691 1422 691 1422 904 1510 c 1,26,-1
 914 1510 l 1,27,28
 1165 1385 1165 1385 1252 1250 c 0,29,30
 1261 1236 1261 1236 1269 1222 c 1,31,-1
 1073 1117 l 1,32,33
 1056 1144 1056 1144 1030 1174 c 0,34,35
 890 1336 890 1336 666 1370 c 1,36,37
 553 1251 553 1251 529 1151 c 0,38,39
 523 1126 523 1126 523 1104 c 0,40,41
 523 1004 523 1004 638 954 c 0,42,43
 837 867 837 867 987 802 c 0,44,45
 1184 717 1184 717 1184 566 c 0,46,47
 1184 537 1184 537 1176 505 c 0,48,49
 1147 373 1147 373 1010 253 c 0,50,51
 819 86 819 86 613 0 c 1,0,-1
EndSplineSet
Validated: 1
EndChar

StartChar: two
Encoding: 50 50 186
Width: 1228
VWidth: 0
Flags: W
HStem: 0 21G<121 249 923 1038> 45 117<341.992 1010.17> 1490 20G<844.5 1088.5>
VStem: 399 176<928.049 1131.57> 1142 200<911.793 1158.05>
LayerCount: 2
Fore
SplineSet
130 0 m 1,0,-1
 121 6 l 1,1,2
 256 322 256 322 612 565 c 0,3,4
 658 597 658 597 977 790 c 0,5,6
 1113 872 1113 872 1138 999 c 0,7,8
 1142 1019 1142 1019 1142 1038 c 0,9,10
 1142 1105 1142 1105 1087 1173 c 0,11,12
 950 1337 950 1337 712 1365 c 1,13,14
 609 1284 609 1284 579 1141 c 0,15,16
 575 1122 575 1122 575 1104 c 0,17,18
 575 1021 575 1021 674 974 c 1,19,-1
 447 840 l 1,20,21
 399 885 399 885 399 966 c 0,22,23
 399 1005 399 1005 410 1052 c 0,24,25
 433 1151 433 1151 552 1257 c 0,26,27
 738 1423 738 1423 951 1510 c 1,28,-1
 961 1510 l 1,29,30
 1216 1381 1216 1381 1299 1250 c 0,31,32
 1342 1182 1342 1182 1342 1096 c 0,33,34
 1342 1050 1342 1050 1330 1001 c 0,35,36
 1270 757 1270 757 982 627 c 0,37,38
 783 537 783 537 680 478 c 0,39,40
 462 353 462 353 336 198 c 1,41,42
 424 162 424 162 659 162 c 0,43,44
 969 162 969 162 1160 252 c 1,45,-1
 1164 242 l 1,46,47
 1060 116 1060 116 1016 0 c 1,48,49
 830 45 830 45 588 45 c 0,50,51
 368 45 368 45 130 0 c 1,0,-1
EndSplineSet
Validated: 1
EndChar

StartChar: three
Encoding: 51 51 187
Width: 1179
Flags: W
HStem: 0 21G<479.5 719.5> 1490 20G<813 1002>
VStem: 439 151<1059 1202.5> 999 184<407.117 578.231> 1026 187<1087.06 1236.92>
LayerCount: 2
Fore
SplineSet
613 0 m 1,0,-1
 603 0 l 1,1,2
 356 121 356 121 265 260 c 0,3,4
 227 318 227 318 207 377 c 1,5,-1
 405 465 l 1,6,7
 428 407 428 407 487 336 c 0,8,9
 622 173 622 173 847 145 c 1,10,11
 962 272 962 272 993 415 c 0,12,13
 999 443 999 443 999 467 c 0,14,15
 999 579 999 579 870 634 c 2,16,-1
 598 750 l 1,17,-1
 813 878 l 1,18,19
 999 997 999 997 1022 1104 c 0,20,21
 1026 1123 1026 1123 1026 1140 c 0,22,23
 1026 1201 1026 1201 971 1247 c 0,24,25
 848 1346 848 1346 682 1368 c 1,26,27
 610 1273 610 1273 593 1204 c 0,28,29
 590 1192 590 1192 590 1179 c 0,30,31
 590 1129 590 1129 641 1087 c 9,32,-1
 459 992 l 17,33,34
 439 1015 439 1015 439 1059 c 0,35,36
 439 1086 439 1086 447 1122 c 8,37,38
 464 1200 464 1200 558 1288 c 0,39,40
 722 1441 722 1441 904 1510 c 1,41,-1
 914 1510 l 1,42,43
 1090 1438 1090 1438 1163 1341 c 0,44,45
 1213 1275 1213 1275 1213 1211 c 0,46,47
 1213 1193 1213 1193 1209 1174 c 0,48,49
 1185 1059 1185 1059 1029 962 c 0,50,51
 931 901 931 901 852 861 c 1,52,-1
 987 802 l 2,53,54
 1183 716 1183 716 1183 565 c 0,55,56
 1183 537 1183 537 1176 505 c 0,57,58
 1147 374 1147 374 1011 253 c 0,59,60
 826 88 826 88 613 0 c 1,0,-1
EndSplineSet
Validated: 1
EndChar

StartChar: five
Encoding: 53 53 188
Width: 1179
Flags: W
HStem: 0 21G<479.5 718> 1490 20G<751 880 1307.5 1387>
VStem: 999 184<408.846 577.643>
DStem2: 651 955 393 838 0.919444 -0.393221<-14.2199 466.911>
LayerCount: 2
Fore
SplineSet
613 0 m 1,0,-1
 603 0 l 1,1,2
 356 121 356 121 265 260 c 0,3,4
 227 318 227 318 207 377 c 1,5,-1
 405 465 l 1,6,7
 428 407 428 407 487 336 c 0,8,9
 622 173 622 173 847 145 c 1,10,11
 961 270 961 270 993 415 c 0,12,13
 999 442 999 442 999 467 c 0,14,15
 999 579 999 579 870 634 c 2,16,-1
 393 838 l 1,17,18
 512 1060 512 1060 543 1213 c 0,19,20
 565 1322 565 1322 565 1418 c 1,21,22
 673 1431 673 1431 829 1510 c 1,23,24
 931 1463 931 1463 1105 1463 c 0,25,26
 1231 1463 1231 1463 1384 1510 c 1,27,-1
 1387 1500 l 1,28,29
 1280 1368 1280 1368 1239 1258 c 1,30,31
 1115 1273 1115 1273 1012 1327 c 0,32,33
 905 1383 905 1383 828 1478 c 1,34,35
 715 1276 715 1276 668 1074 c 0,36,37
 656 1023 656 1023 651 955 c 1,38,-1
 987 802 l 2,39,40
 1183 713 1183 713 1183 564 c 0,41,42
 1183 535 1183 535 1176 505 c 0,43,44
 1145 372 1145 372 1010 253 c 0,45,46
 823 88 823 88 613 0 c 1,0,-1
EndSplineSet
Validated: 1
EndChar

StartChar: cent
Encoding: 162 162 189
Width: 1007
Flags: W
VStem: 214 169<343.723 656.721> 386 197<-136.626 -59.1406>
LayerCount: 2
Fore
SplineSet
583 -123 m 1,0,1
 506 -144 506 -144 395 -200 c 1,2,-1
 386 -194 l 1,3,4
 427 -73 427 -73 463 44 c 1,5,6
 358 101 358 101 304 170 c 0,7,8
 214 285 214 285 214 434 c 0,9,10
 214 496 214 496 231 569 c 0,11,12
 275 760 275 760 432 908 c 0,13,14
 562 1030 562 1030 709 1099 c 1,15,16
 723 1190 723 1190 726 1250 c 1,17,18
 802 1271 802 1271 913 1327 c 1,19,-1
 922 1321 l 1,20,21
 882 1212 882 1212 847 1103 c 1,22,23
 968 1047 968 1047 1036 961 c 0,24,25
 1070 918 1070 918 1084 884 c 1,26,-1
 915 785 l 1,27,28
 902 808 902 808 879 834 c 0,29,30
 843 875 843 875 787 909 c 1,31,32
 744 762 744 762 710 615 c 0,33,34
 658 392 658 392 624 186 c 1,35,36
 694 157 694 157 785 142 c 1,37,38
 824 194 824 194 836 251 c 128,-1,39
 848 308 848 308 848 342 c 1,40,-1
 975 293 l 1,41,42
 946 258 946 258 908 222 c 0,43,44
 767 87 767 87 599 16 c 1,45,46
 589 -56 589 -56 583 -123 c 1,0,1
522 243 m 1,47,48
 563 393 563 393 591 514 c 0,49,50
 647 757 647 757 685 956 c 1,51,52
 625 976 625 976 555 988 c 1,53,54
 439 805 439 805 396 616 c 0,55,56
 383 559 383 559 383 509 c 0,57,58
 383 385 383 385 461 297 c 0,59,60
 491 264 491 264 522 243 c 1,47,48
EndSplineSet
Validated: 1
EndChar

StartChar: paragraph
Encoding: 182 182 190
Width: 1042
Flags: W
HStem: 0 21G<638 668> 1490 20G<696 806 1153 1239>
LayerCount: 2
Fore
SplineSet
647 0 m 1,0,-1
 638 6 l 1,1,2
 768 364 768 364 864 778 c 1,3,-1
 619 645 l 1,4,-1
 609 645 l 1,5,6
 431 680 431 680 371 794 c 0,7,8
 335 863 335 863 335 954 c 0,9,10
 335 1018 335 1018 352 1090 c 0,11,12
 389 1256 389 1256 540 1385 c 0,13,14
 632 1463 632 1463 760 1510 c 1,15,-1
 770 1510 l 1,16,17
 842 1489 842 1489 895 1455 c 0,18,19
 942 1425 942 1425 966 1402 c 1,20,-1
 967 1418 l 1,21,22
 1075 1431 1075 1431 1231 1510 c 1,23,-1
 1239 1504 l 1,24,25
 1115 1157 1115 1157 1028 782 c 0,26,27
 947 433 947 433 910 92 c 1,28,29
 853 78 853 78 807 59 c 1,30,-1
 1110 1373 l 1,31,-1
 1050 1373 l 1,32,-1
 742 37 l 1,33,34
 689 21 689 21 647 0 c 1,0,-1
EndSplineSet
Validated: 1
EndChar

StartChar: uni00B5
Encoding: 181 181 191
Width: 1213
Flags: W
HStem: -380 21G<64 147> 0 21G<571.5 709.5 812 896> 1110 20G<581 664 1239 1322>
LayerCount: 2
Fore
SplineSet
662 0 m 1,0,-1
 652 0 l 1,1,2
 491 62 491 62 404 168 c 1,3,4
 359 -63 359 -63 336 -288 c 1,5,6
 222 -303 222 -303 72 -380 c 1,7,-1
 64 -374 l 1,8,9
 193 -8 193 -8 275 350 c 0,10,11
 351 681 351 681 393 1038 c 1,12,13
 506 1053 506 1053 656 1130 c 1,14,-1
 664 1124 l 1,15,16
 551 800 551 800 504 593 c 0,17,18
 491 536 491 536 491 485 c 0,19,20
 491 373 491 373 560 296 c 0,21,22
 663 182 663 182 865 145 c 1,23,24
 938 342 938 342 975 503 c 0,25,26
 1039 781 1039 781 1051 1038 c 1,27,28
 1164 1053 1164 1053 1314 1130 c 1,29,-1
 1322 1124 l 1,30,31
 1204 779 1204 779 1155 565 c 0,32,33
 1102 333 1102 333 1084 92 c 1,34,35
 971 77 971 77 821 0 c 1,36,-1
 812 6 l 1,37,38
 831 52 831 52 847 97 c 1,39,40
 757 36 757 36 662 0 c 1,0,-1
EndSplineSet
Validated: 1
EndChar

StartChar: M
Encoding: 77 77 192
Width: 1705
Flags: W
HStem: 0 21G<51 107 675 752 1411 1484.5> 1490 20G<671 757 1699 1783>
VStem: 1538 128<547.934 860.077>
LayerCount: 2
Fore
SplineSet
60 0 m 1,0,1
 51 6 l 1,2,3
 362 686 362 686 546 1268 c 1,4,5
 521 1364 521 1364 485 1418 c 1,6,7
 593 1431 593 1431 749 1510 c 1,8,-1
 757 1504 l 1,9,10
 754 1414 754 1414 754 1328 c 0,11,12
 754 701 754 701 887 297 c 1,13,14
 1214 774 1214 774 1530 1352 c 1,15,16
 1523 1392 1523 1392 1511 1418 c 1,17,18
 1623 1432 1623 1432 1775 1510 c 1,19,-1
 1783 1504 l 1,20,21
 1666 939 1666 939 1666 402 c 0,22,23
 1666 246 1666 246 1676 92 c 1,24,25
 1556 75 1556 75 1413 0 c 1,26,27
 1409 3 1409 3 1404 6 c 1,28,29
 1538 461 1538 461 1538 1011 c 0,30,31
 1538 1077 1538 1077 1536 1144 c 1,32,33
 1199 666 1199 666 947 92 c 1,34,35
 820 72 820 72 684 0 c 1,36,-1
 675 6 l 1,37,38
 678 91 678 91 678 175 c 0,39,40
 678 626 678 626 582 1066 c 1,41,42
 339 482 339 482 246 76 c 1,43,44
 154 49 154 49 60 0 c 1,0,1
EndSplineSet
Validated: 1
EndChar

StartChar: B
Encoding: 66 66 193
Width: 1385
VWidth: 0
Flags: W
HStem: 0 91<696 943.115> 722 172<888.021 1151.78> 1110 20G<654 737> 1332 178<659.639 1046.96>
VStem: 1106 156<1078.19 1275.79> 1221 165<378.633 656.057>
LayerCount: 2
Fore
SplineSet
499 92 m 1,0,1
 386 77 386 77 236 0 c 1,2,-1
 227 6 l 1,3,4
 340 334 340 334 394 565 c 0,5,6
 448 797 448 797 466 1038 c 1,7,8
 579 1053 579 1053 729 1130 c 1,9,-1
 737 1124 l 1,10,11
 624 840 624 840 575 627 c 0,12,13
 517 374 517 374 502 139 c 1,14,15
 610 91 610 91 718 91 c 0,16,17
 908 91 908 91 1028 184 c 24,18,19
 1180 302 1180 302 1213 457 c 0,20,21
 1221 495 1221 495 1221 529 c 0,22,23
 1221 605 1221 605 1176 657 c 0,24,25
 1118 722 1118 722 981 722 c 0,26,27
 850 722 850 722 682 609 c 1,28,-1
 678 619 l 1,29,30
 785 751 785 751 826 861 c 1,31,32
 1062 955 1062 955 1098 1106 c 0,33,34
 1106 1140 1106 1140 1106 1170 c 0,35,36
 1106 1224 1106 1224 1078 1259 c 0,37,38
 1020 1332 1020 1332 885 1332 c 0,39,40
 655 1332 655 1332 394 1163 c 1,41,-1
 391 1173 l 1,42,43
 498 1305 498 1305 539 1415 c 1,44,45
 725 1510 725 1510 926 1510 c 0,46,47
 1107 1510 1107 1510 1202 1401 c 0,48,49
 1262 1332 1262 1332 1262 1239 c 0,50,51
 1262 1203 1262 1203 1253 1164 c 0,52,53
 1233 1078 1233 1078 1164 1006 c 0,54,55
 1068 906 1068 906 953 889 c 1,56,57
 989 894 989 894 1021 894 c 0,58,59
 1237 894 1237 894 1333 753 c 0,60,61
 1386 675 1386 675 1386 574 c 0,62,63
 1386 526 1386 526 1374 472 c 0,64,65
 1328 282 1328 282 1151 140 c 0,66,67
 977 0 977 0 696 0 c 1,68,-1
 499 92 l 1,0,1
EndSplineSet
Validated: 1
EndChar

StartChar: F
Encoding: 70 70 194
Width: 1031
Flags: W
HStem: 0 21G<181 265> 690 93<571 883.344> 1490 20G<696 825 1247.5 1327>
LayerCount: 2
Fore
SplineSet
190 0 m 1,0,-1
 181 6 l 1,1,2
 312 376 312 376 393 730 c 0,3,4
 469 1063 469 1063 510 1418 c 1,5,6
 618 1431 618 1431 774 1510 c 1,7,8
 876 1463 876 1463 1030 1463 c 0,9,10
 1171 1463 1171 1463 1324 1510 c 1,11,-1
 1327 1500 l 1,12,13
 1220 1368 1220 1368 1179 1258 c 1,14,15
 1045 1267 1045 1267 937 1327 c 0,16,17
 831 1386 831 1386 773 1478 c 1,18,19
 654 1140 654 1140 571 783 c 1,20,21
 821 783 821 783 1075 898 c 1,22,-1
 1079 888 l 1,23,24
 972 756 972 756 931 646 c 1,25,26
 765 690 765 690 550 690 c 1,27,28
 484 385 484 385 453 92 c 1,29,30
 340 77 340 77 190 0 c 1,0,-1
EndSplineSet
Validated: 1
EndChar

StartChar: dollar
Encoding: 36 36 195
Width: 1179
Flags: W
VStem: 364 159<989 1142.99> 1000 184<410.381 579.268>
DStem2: 638 954 555 758 0.916819 -0.399302<-131.364 122.25 254.356 494.46>
LayerCount: 2
Fore
SplineSet
474 -150 m 1,0,-1
 466 -144 l 1,1,2
 496 -51 496 -51 526 42 c 1,3,4
 339 145 339 145 265 260 c 0,5,6
 228 317 228 317 207 377 c 1,7,-1
 405 465 l 1,8,9
 428 407 428 407 487 336 c 0,10,11
 530 284 530 284 586 244 c 1,12,13
 651 471 651 471 704 699 c 1,14,-1
 555 758 l 2,15,16
 364 832 364 832 364 989 c 0,17,18
 364 1021 364 1021 372 1056 c 0,19,20
 396 1161 396 1161 505 1257 c 0,21,22
 671 1404 671 1404 851 1486 c 1,23,24
 858 1535 858 1535 864 1583 c 1,25,26
 941 1604 941 1604 1052 1660 c 1,27,-1
 1061 1654 l 1,28,29
 1028 1560 1028 1560 998 1463 c 1,30,31
 1173 1365 1173 1365 1252 1250 c 0,32,33
 1261 1237 1261 1237 1269 1222 c 1,34,-1
 1073 1117 l 1,35,36
 1055 1145 1055 1145 1030 1174 c 0,37,38
 988 1222 988 1222 938 1260 c 1,39,40
 883 1070 883 1070 835 868 c 1,41,-1
 987 802 l 2,42,43
 1184 717 1184 717 1184 566 c 0,44,45
 1184 537 1184 537 1176 505 c 0,46,47
 1148 378 1148 378 1011 253 c 0,48,49
 854 110 854 110 675 28 c 1,50,51
 669 -23 669 -23 662 -74 c 1,52,53
 585 -94 585 -94 474 -150 c 1,0,-1
750 905 m 1,54,55
 795 1116 795 1116 828 1324 c 1,56,57
 753 1357 753 1357 666 1370 c 1,58,59
 553 1251 553 1251 529 1151 c 0,60,61
 523 1126 523 1126 523 1104 c 0,62,63
 523 1004 523 1004 638 954 c 2,64,-1
 750 905 l 1,54,55
790 666 m 1,65,66
 737 422 737 422 699 183 c 1,67,68
 770 155 770 155 851 145 c 1,69,70
 957 267 957 267 993 415 c 0,71,72
 1000 444 1000 444 1000 469 c 0,73,74
 1000 582 1000 582 870 634 c 2,75,-1
 790 666 l 1,65,66
EndSplineSet
Validated: 1
EndChar

StartChar: Agrave
Encoding: 192 192 196
Width: 1285
Flags: W
HStem: 0 21G<6 69 1029 1115.5> 496 81<503.113 1019> 1490 20G<1027.5 1113>
LayerCount: 2
Fore
SplineSet
15 0 m 1,0,1
 6 6 l 1,2,3
 501 691 501 691 841 1418 c 1,4,5
 950 1431 950 1431 1105 1510 c 1,6,-1
 1113 1504 l 1,7,8
 1112 1462 1112 1462 1112 1420 c 0,9,10
 1112 642 1112 642 1301 92 c 1,11,12
 1193 79 1193 79 1038 0 c 1,13,-1
 1029 6 l 1,14,15
 1038 106 1038 106 1038 220 c 0,16,17
 1038 344 1038 344 1027 486 c 1,18,19
 939 496 939 496 730 496 c 24,20,21
 559 496 559 496 433 476 c 1,22,23
 340 303 340 303 229 83 c 1,24,25
 123 57 123 57 15 0 c 1,0,1
909 1247 m 1,26,27
 679 911 679 911 499 588 c 1,28,29
 598 577 598 577 744 577 c 0,30,31
 924 577 924 577 1019 586 c 1,32,33
 996 962 996 962 909 1247 c 1,26,27
954 1880 m 1,34,-1
 963 1874 l 1,35,36
 979 1700 979 1700 1097 1595 c 1,37,-1
 1095 1585 l 1,38,39
 1016 1562 1016 1562 960 1530 c 1,40,-1
 952 1536 l 1,41,42
 877 1698 877 1698 730 1778 c 1,43,-1
 738 1788 l 1,44,45
 805 1799 805 1799 954 1880 c 1,34,-1
EndSplineSet
Validated: 1
EndChar

StartChar: Aacute
Encoding: 193 193 197
Width: 1285
Flags: W
HStem: 0 21G<6 69 1029 1115.5> 496 81<503.113 1019> 1490 20G<1027.5 1113>
LayerCount: 2
Fore
SplineSet
15 0 m 1,0,1
 6 6 l 1,2,3
 501 691 501 691 841 1418 c 1,4,5
 950 1431 950 1431 1105 1510 c 1,6,-1
 1113 1504 l 1,7,8
 1112 1462 1112 1462 1112 1420 c 0,9,10
 1112 642 1112 642 1301 92 c 1,11,12
 1193 79 1193 79 1038 0 c 1,13,-1
 1029 6 l 1,14,15
 1038 106 1038 106 1038 220 c 0,16,17
 1038 344 1038 344 1027 486 c 1,18,19
 939 496 939 496 730 496 c 24,20,21
 559 496 559 496 433 476 c 1,22,23
 340 303 340 303 229 83 c 1,24,25
 123 57 123 57 15 0 c 1,0,1
909 1247 m 1,26,27
 679 911 679 911 499 588 c 1,28,29
 598 577 598 577 744 577 c 0,30,31
 924 577 924 577 1019 586 c 1,32,33
 996 962 996 962 909 1247 c 1,26,27
1219 1880 m 1,34,35
 1330 1799 1330 1799 1393 1788 c 1,36,-1
 1395 1778 l 1,37,38
 1212 1698 1212 1698 1063 1536 c 1,39,-1
 1051 1530 l 1,40,41
 1011 1562 1011 1562 942 1585 c 1,42,-1
 944 1595 l 1,43,44
 1110 1700 1110 1700 1208 1874 c 1,45,-1
 1219 1880 l 1,34,35
EndSplineSet
Validated: 1
EndChar

StartChar: Acircumflex
Encoding: 194 194 198
Width: 1285
Flags: W
HStem: 0 21G<6 69 1029 1115.5> 496 81<503.113 1019> 1490 20G<1027.5 1113>
VStem: 1058 129<1654.98 1741>
LayerCount: 2
Fore
SplineSet
15 0 m 1,0,1
 6 6 l 1,2,3
 501 691 501 691 841 1418 c 1,4,5
 950 1431 950 1431 1105 1510 c 1,6,-1
 1113 1504 l 1,7,8
 1112 1462 1112 1462 1112 1420 c 0,9,10
 1112 642 1112 642 1301 92 c 1,11,12
 1193 79 1193 79 1038 0 c 1,13,-1
 1029 6 l 1,14,15
 1038 106 1038 106 1038 220 c 0,16,17
 1038 344 1038 344 1027 486 c 1,18,19
 939 496 939 496 730 496 c 24,20,21
 559 496 559 496 433 476 c 1,22,23
 340 303 340 303 229 83 c 1,24,25
 123 57 123 57 15 0 c 1,0,1
909 1247 m 1,26,27
 679 911 679 911 499 588 c 1,28,29
 598 577 598 577 744 577 c 0,30,31
 924 577 924 577 1019 586 c 1,32,33
 996 962 996 962 909 1247 c 1,26,27
1187 1880 m 1,34,-1
 1196 1874 l 1,35,36
 1187 1835 1187 1835 1187 1798 c 0,37,38
 1187 1680 1187 1680 1285 1595 c 1,39,-1
 1283 1585 l 1,40,41
 1204 1562 1204 1562 1148 1530 c 1,42,-1
 1140 1536 l 1,43,44
 1064 1619 1064 1619 1058 1741 c 1,45,46
 1002 1619 1002 1619 884 1536 c 1,47,-1
 872 1530 l 1,48,49
 832 1562 832 1562 763 1585 c 1,50,-1
 765 1595 l 1,51,52
 913 1671 913 1671 956 1791 c 1,53,54
 1023 1804 1023 1804 1187 1880 c 1,34,-1
EndSplineSet
Validated: 1
EndChar

StartChar: Atilde
Encoding: 195 195 199
Width: 1285
Flags: W
HStem: 0 21G<6 69 1029 1115.5> 496 81<503.113 1019> 1490 20G<1027.5 1113> 1557 150<1083.91 1221.21> 1730 150<899.453 1036.88>
LayerCount: 2
Fore
SplineSet
15 0 m 1,0,1
 6 6 l 1,2,3
 501 691 501 691 841 1418 c 1,4,5
 950 1431 950 1431 1105 1510 c 1,6,-1
 1113 1504 l 1,7,8
 1112 1462 1112 1462 1112 1420 c 0,9,10
 1112 642 1112 642 1301 92 c 1,11,12
 1193 79 1193 79 1038 0 c 1,13,-1
 1029 6 l 1,14,15
 1038 106 1038 106 1038 220 c 0,16,17
 1038 344 1038 344 1027 486 c 1,18,19
 939 496 939 496 730 496 c 24,20,21
 559 496 559 496 433 476 c 1,22,23
 340 303 340 303 229 83 c 1,24,25
 123 57 123 57 15 0 c 1,0,1
909 1247 m 1,26,27
 679 911 679 911 499 588 c 1,28,29
 598 577 598 577 744 577 c 0,30,31
 924 577 924 577 1019 586 c 1,32,33
 996 962 996 962 909 1247 c 1,26,27
1378 1880 m 1,34,-1
 1387 1873 l 1,35,36
 1275 1729 1275 1729 1233 1616 c 1,37,38
 1194 1557 1194 1557 1136 1557 c 128,-1,39
 1078 1557 1078 1557 1055 1639 c 0,40,41
 1029 1730 1029 1730 974 1730 c 0,42,43
 949 1730 949 1730 917 1704 c 0,44,45
 774 1586 774 1586 743 1557 c 1,46,-1
 734 1564 l 1,47,48
 846 1708 846 1708 888 1821 c 1,49,50
 927 1880 927 1880 985 1880 c 128,-1,51
 1043 1880 1043 1880 1066 1798 c 0,52,53
 1091 1707 1091 1707 1147 1707 c 0,54,55
 1170 1707 1170 1707 1204 1733 c 0,56,57
 1313 1816 1313 1816 1378 1880 c 1,34,-1
EndSplineSet
Validated: 1
EndChar

StartChar: Adieresis
Encoding: 196 196 200
Width: 1285
Flags: W
HStem: 0 21G<6 69 1029 1115.5> 496 81<503.113 1019> 1490 20G<1027.5 1113>
LayerCount: 2
Fore
SplineSet
15 0 m 1,0,1
 6 6 l 1,2,3
 501 691 501 691 841 1418 c 1,4,5
 950 1431 950 1431 1105 1510 c 1,6,-1
 1113 1504 l 1,7,8
 1112 1462 1112 1462 1112 1420 c 0,9,10
 1112 642 1112 642 1301 92 c 1,11,12
 1193 79 1193 79 1038 0 c 1,13,-1
 1029 6 l 1,14,15
 1038 106 1038 106 1038 220 c 0,16,17
 1038 344 1038 344 1027 486 c 1,18,19
 939 496 939 496 730 496 c 24,20,21
 559 496 559 496 433 476 c 1,22,23
 340 303 340 303 229 83 c 1,24,25
 123 57 123 57 15 0 c 1,0,1
909 1247 m 1,26,27
 679 911 679 911 499 588 c 1,28,29
 598 577 598 577 744 577 c 0,30,31
 924 577 924 577 1019 586 c 1,32,33
 996 962 996 962 909 1247 c 1,26,27
1327 1860 m 1,34,-1
 1336 1854 l 1,35,36
 1314 1808 1314 1808 1294 1732 c 0,37,38
 1282 1686 1282 1686 1282 1637 c 1,39,40
 1186 1609 1186 1609 1084 1549 c 1,41,-1
 1075 1555 l 1,42,43
 1105 1615 1105 1615 1118 1674 c 0,44,45
 1128 1719 1128 1719 1128 1772 c 1,46,47
 1218 1796 1218 1796 1327 1860 c 1,34,-1
1024 1860 m 1,48,-1
 1033 1854 l 1,49,50
 1011 1808 1011 1808 991 1732 c 0,51,52
 979 1686 979 1686 979 1637 c 1,53,54
 883 1609 883 1609 781 1549 c 1,55,-1
 772 1555 l 1,56,57
 802 1615 802 1615 815 1674 c 0,58,59
 825 1719 825 1719 825 1772 c 1,60,61
 915 1796 915 1796 1024 1860 c 1,48,-1
EndSplineSet
Validated: 1
EndChar

StartChar: Aring
Encoding: 197 197 201
Width: 1285
Flags: W
HStem: 0 21G<6 69 1029 1115.5> 496 81<503.113 1019> 1490 20G<1027.5 1113>
VStem: 865 81<1649.72 1780.46> 1117 85<1632.08 1765.15>
LayerCount: 2
Fore
SplineSet
15 0 m 1,0,1
 6 6 l 1,2,3
 501 691 501 691 841 1418 c 1,4,5
 950 1431 950 1431 1105 1510 c 1,6,-1
 1113 1504 l 1,7,8
 1112 1462 1112 1462 1112 1420 c 0,9,10
 1112 642 1112 642 1301 92 c 1,11,12
 1193 79 1193 79 1038 0 c 1,13,-1
 1029 6 l 1,14,15
 1038 106 1038 106 1038 220 c 0,16,17
 1038 344 1038 344 1027 486 c 1,18,19
 939 496 939 496 730 496 c 24,20,21
 559 496 559 496 433 476 c 1,22,23
 340 303 340 303 229 83 c 1,24,25
 123 57 123 57 15 0 c 1,0,1
909 1247 m 1,26,27
 679 911 679 911 499 588 c 1,28,29
 598 577 598 577 744 577 c 0,30,31
 924 577 924 577 1019 586 c 1,32,33
 996 962 996 962 909 1247 c 1,26,27
988 1795 m 1,34,35
 955 1759 955 1759 948 1725 c 0,36,37
 946 1715 946 1715 946 1705 c 0,38,39
 946 1672 946 1672 977 1649 c 0,40,41
 1012 1625 1012 1625 1076 1618 c 1,42,43
 1107 1652 1107 1652 1115 1688 c 0,44,45
 1117 1697 1117 1697 1117 1705 c 0,46,47
 1117 1739 1117 1739 1084 1766 c 0,48,49
 1053 1791 1053 1791 988 1795 c 1,34,35
1073 1880 m 1,50,51
 1142 1861 1142 1861 1177 1812 c 0,52,53
 1202 1777 1202 1777 1202 1736 c 0,54,55
 1202 1720 1202 1720 1198 1703 c 0,56,57
 1185 1647 1185 1647 1125 1597 c 0,58,59
 1067 1549 1067 1549 987 1536 c 1,60,61
 930 1553 930 1553 892 1601 c 0,62,63
 865 1635 865 1635 865 1679 c 0,64,65
 865 1698 865 1698 870 1718 c 0,66,67
 884 1775 884 1775 958 1827 c 0,68,69
 996 1854 996 1854 1073 1880 c 1,50,51
EndSplineSet
Validated: 1
EndChar

StartChar: AE
Encoding: 198 198 202
Width: 1812
Flags: W
HStem: 0 21G<6 89 894 1011.5 1597.5 1690> 45 91<1178.57 1619.91> 690 94<858.002 1096 1284 1598.06> 1490 20G<1409 1538 1960.5 2040>
VStem: 1096 167<517.5 690> 1118 166<784 957.688>
LayerCount: 2
Fore
SplineSet
903 0 m 1,0,-1
 894 6 l 1,1,2
 1014 344 1014 344 1096 690 c 1,3,4
 944 689 944 689 773 684 c 1,5,6
 512 387 512 387 319 94 c 1,7,8
 163 79 163 79 15 0 c 1,9,-1
 6 6 l 1,10,11
 579 567 579 567 1223 1418 c 1,12,13
 1331 1431 1331 1431 1487 1510 c 1,14,15
 1589 1463 1589 1463 1743 1463 c 0,16,17
 1884 1463 1884 1463 2037 1510 c 1,18,-1
 2040 1500 l 1,19,20
 1933 1368 1933 1368 1892 1258 c 1,21,22
 1758 1267 1758 1267 1650 1327 c 0,23,24
 1544 1386 1544 1386 1486 1478 c 1,25,26
 1365 1133 1365 1133 1284 783 c 1,27,28
 1534 783 1534 783 1788 898 c 1,29,-1
 1792 888 l 1,30,31
 1685 756 1685 756 1644 646 c 1,32,33
 1479 690 1479 690 1263 690 c 1,34,35
 1203 411 1203 411 1172 145 c 1,36,37
 1234 136 1234 136 1347 136 c 0,38,39
 1556 136 1556 136 1814 252 c 1,40,-1
 1818 242 l 1,41,42
 1710 110 1710 110 1670 0 c 1,43,44
 1525 45 1525 45 1331 45 c 0,45,46
 1120 45 1120 45 903 0 c 1,0,-1
1118 784 m 1,47,48
 1167 1000 1167 1000 1200 1234 c 1,49,-1
 854 797 l 1,50,51
 982 784 982 784 1118 784 c 1,47,48
EndSplineSet
Validated: 3073
EndChar

StartChar: Amacron
Encoding: 256 256 203
Width: 1285
Flags: W
HStem: 0 21G<6 69 1029 1115.5> 496 81<503.113 1019> 1490 20G<1027.5 1113> 1611 166<843.268 1029.57 1034.08 1070.46 1075.8 1262.19> 1638 112<869.927 1234.61>
LayerCount: 2
Fore
SplineSet
15 0 m 1,0,1
 6 6 l 1,2,3
 501 691 501 691 841 1418 c 1,4,5
 950 1431 950 1431 1105 1510 c 1,6,-1
 1113 1504 l 1,7,8
 1112 1462 1112 1462 1112 1420 c 0,9,10
 1112 642 1112 642 1301 92 c 1,11,12
 1193 79 1193 79 1038 0 c 1,13,-1
 1029 6 l 1,14,15
 1038 106 1038 106 1038 220 c 0,16,17
 1038 344 1038 344 1027 486 c 1,18,19
 939 496 939 496 730 496 c 24,20,21
 559 496 559 496 433 476 c 1,22,23
 340 303 340 303 229 83 c 1,24,25
 123 57 123 57 15 0 c 1,0,1
909 1247 m 1,26,27
 679 911 679 911 499 588 c 1,28,29
 598 577 598 577 744 577 c 0,30,31
 924 577 924 577 1019 586 c 1,32,33
 996 962 996 962 909 1247 c 1,26,27
1337 1777 m 1,34,-1
 1341 1767 l 1,35,36
 1280 1695 1280 1695 1239 1611 c 1,37,38
 1098 1638 1098 1638 1032 1638 c 0,39,40
 955 1638 955 1638 769 1611 c 1,41,-1
 765 1621 l 1,42,43
 826 1695 826 1695 866 1777 c 1,44,45
 992 1750 992 1750 1073 1750 c 0,46,47
 1162 1750 1162 1750 1337 1777 c 1,34,-1
EndSplineSet
Validated: 1
EndChar

StartChar: Abreve
Encoding: 258 258 204
Width: 1285
Flags: W
HStem: 0 21G<6 69 1029 1115.5> 496 81<503.113 1019> 1490 20G<1027.5 1113> 1596 136<957.289 1164.94>
LayerCount: 2
Fore
SplineSet
15 0 m 1,0,1
 6 6 l 1,2,3
 501 691 501 691 841 1418 c 1,4,5
 950 1431 950 1431 1105 1510 c 1,6,-1
 1113 1504 l 1,7,8
 1112 1462 1112 1462 1112 1420 c 0,9,10
 1112 642 1112 642 1301 92 c 1,11,12
 1193 79 1193 79 1038 0 c 1,13,-1
 1029 6 l 1,14,15
 1038 106 1038 106 1038 220 c 0,16,17
 1038 344 1038 344 1027 486 c 1,18,19
 939 496 939 496 730 496 c 24,20,21
 559 496 559 496 433 476 c 1,22,23
 340 303 340 303 229 83 c 1,24,25
 123 57 123 57 15 0 c 1,0,1
909 1247 m 1,26,27
 679 911 679 911 499 588 c 1,28,29
 598 577 598 577 744 577 c 0,30,31
 924 577 924 577 1019 586 c 1,32,33
 996 962 996 962 909 1247 c 1,26,27
863 1859 m 1,34,-1
 875 1865 l 1,35,36
 976 1732 976 1732 1056 1732 c 0,37,38
 1144 1732 1144 1732 1317 1865 c 1,39,-1
 1325 1859 l 1,40,41
 1214 1596 1214 1596 1022 1596 c 0,42,43
 858 1596 858 1596 858 1786 c 0,44,45
 858 1819 858 1819 863 1859 c 1,34,-1
EndSplineSet
Validated: 1
EndChar

StartChar: Aogonek
Encoding: 260 260 205
Width: 1285
Flags: W
HStem: -380 9<1097.38 1102> 0 21G<6 69> 496 81<503.113 1019> 1490 20G<1027.5 1113>
VStem: 791 162<-285.634 -76.6523>
LayerCount: 2
Fore
SplineSet
15 0 m 1,0,-1
 6 6 l 1,1,2
 501 691 501 691 841 1418 c 1,3,4
 950 1431 950 1431 1105 1510 c 1,5,6
 1113 1504 l 1,7,8
 1112 1462 1112 1462 1112 1420 c 0,9,10
 1112 642 1112 642 1301 92 c 1,11,12
 1193 79 1193 79 1038 0 c 1,13,14
 972 -67 972 -67 957 -137 c 0,15,16
 953 -156 953 -156 953 -174 c 0,17,18
 953 -281 953 -281 1102 -371 c 1,19,-1
 1096 -380 l 1,20,21
 994 -348 994 -348 864 -348 c 1,22,23
 791 -295 791 -295 791 -213 c 0,24,25
 791 -189 791 -189 797 -163 c 0,26,27
 832 -10 832 -10 1030 48 c 1,28,29
 1038 148 1038 148 1038 220 c 0,30,31
 1038 344 1038 344 1027 486 c 1,32,33
 939 496 939 496 730 496 c 24,34,35
 559 496 559 496 433 476 c 1,36,37
 340 303 340 303 229 83 c 1,38,39
 123 57 123 57 15 0 c 1,0,-1
909 1247 m 1,40,41
 679 911 679 911 499 588 c 1,42,43
 598 577 598 577 744 577 c 0,44,45
 924 577 924 577 1019 586 c 1,46,47
 996 962 996 962 909 1247 c 1,40,41
EndSplineSet
Validated: 1
EndChar

StartChar: Ccedilla
Encoding: 199 199 206
Width: 1287
VWidth: 0
Flags: W
HStem: -380 9<414 421.014> 1490 20G<888 1126.5>
VStem: 270 187<459.425 822.239> 672 149<-218.062 -7.65625>
LayerCount: 2
Fore
SplineSet
623 38 m 1,0,1
 440 139 440 139 358 260 c 0,2,3
 270 390 270 390 270 562 c 0,4,5
 270 650 270 650 293 750 c 0,6,7
 361 1045 361 1045 598 1257 c 0,8,9
 779 1419 779 1419 997 1510 c 1,10,-1
 1007 1510 l 1,11,12
 1246 1391 1246 1391 1345 1250 c 0,13,14
 1352 1240 1352 1240 1361 1223 c 1,15,-1
 1158 1127 l 1,16,17
 1151 1139 1151 1139 1123 1174 c 0,18,19
 994 1335 994 1335 758 1365 c 1,20,21
 559 1165 559 1165 475 811 c 0,22,23
 457 735 457 735 457 665 c 0,24,25
 457 481 457 481 580 336 c 0,26,27
 720 172 720 172 944 145 c 1,28,29
 1044 235 1044 235 1075 401 c 0,30,31
 1093 497 1093 497 1093 552 c 1,32,-1
 1299 484 l 1,33,34
 1220 355 1220 355 1104 252 c 0,35,36
 931 99 931 99 746 17 c 1,37,38
 821 -30 821 -30 821 -113 c 0,39,40
 821 -136 821 -136 815 -163 c 0,41,42
 789 -279 789 -279 664 -348 c 1,43,44
 534 -348 534 -348 416 -380 c 1,45,-1
 414 -371 l 1,46,47
 640 -266 640 -266 667 -138 c 0,48,49
 672 -114 672 -114 672 -90 c 0,50,51
 672 -21 672 -21 623 38 c 1,0,1
EndSplineSet
Validated: 3073
EndChar

StartChar: Cacute
Encoding: 262 262 207
Width: 1287
VWidth: 0
Flags: W
HStem: 0 21G<576 809> 1490 20G<888 1126.5>
VStem: 270 187<458.969 822.239>
LayerCount: 2
Fore
SplineSet
706 0 m 1,0,1
 696 0 l 1,2,3
 456 116 456 116 358 260 c 0,4,5
 270 389 270 389 270 562 c 0,6,7
 270 650 270 650 293 750 c 0,8,9
 361 1045 361 1045 598 1257 c 0,10,11
 779 1419 779 1419 997 1510 c 1,12,-1
 1007 1510 l 1,13,14
 1246 1391 1246 1391 1345 1250 c 0,15,16
 1352 1240 1352 1240 1361 1223 c 1,17,-1
 1158 1127 l 1,18,19
 1151 1139 1151 1139 1123 1174 c 0,20,21
 994 1335 994 1335 758 1365 c 1,22,23
 559 1165 559 1165 475 811 c 0,24,25
 457 735 457 735 457 665 c 0,26,27
 457 480 457 480 580 336 c 8,28,29
 719 172 719 172 944 145 c 1,30,31
 1044 235 1044 235 1075 401 c 0,32,33
 1093 497 1093 497 1093 552 c 9,34,-1
 1299 484 l 17,35,36
 1219 354 1219 354 1104 252 c 0,37,38
 912 83 912 83 706 0 c 1,0,1
1219 1880 m 1,39,40
 1330 1799 1330 1799 1393 1788 c 1,41,-1
 1395 1778 l 1,42,43
 1212 1698 1212 1698 1063 1536 c 1,44,-1
 1051 1530 l 1,45,46
 1011 1562 1011 1562 942 1585 c 1,47,-1
 944 1595 l 1,48,49
 1110 1700 1110 1700 1208 1874 c 1,50,-1
 1219 1880 l 1,39,40
EndSplineSet
Validated: 3073
EndChar

StartChar: Ccircumflex
Encoding: 264 264 208
Width: 1287
VWidth: 0
Flags: W
HStem: 0 21G<576 809> 1490 20G<888 1126.5>
VStem: 270 187<458.969 822.239> 1058 129<1654.98 1741>
LayerCount: 2
Fore
SplineSet
1187 1880 m 1,0,-1
 1196 1874 l 1,1,2
 1187 1835 1187 1835 1187 1798 c 0,3,4
 1187 1680 1187 1680 1285 1595 c 1,5,-1
 1283 1585 l 1,6,7
 1204 1562 1204 1562 1148 1530 c 1,8,-1
 1140 1536 l 1,9,10
 1064 1619 1064 1619 1058 1741 c 1,11,12
 1002 1619 1002 1619 884 1536 c 1,13,-1
 872 1530 l 1,14,15
 832 1562 832 1562 763 1585 c 1,16,-1
 765 1595 l 1,17,18
 913 1671 913 1671 956 1791 c 1,19,20
 1023 1804 1023 1804 1187 1880 c 1,0,-1
706 0 m 1,21,-1
 696 0 l 1,22,23
 456 116 456 116 358 260 c 0,24,25
 270 389 270 389 270 562 c 0,26,27
 270 650 270 650 293 750 c 0,28,29
 361 1045 361 1045 598 1257 c 0,30,31
 779 1419 779 1419 997 1510 c 1,32,-1
 1007 1510 l 1,33,34
 1246 1391 1246 1391 1345 1250 c 0,35,36
 1352 1240 1352 1240 1361 1223 c 1,37,-1
 1158 1127 l 1,38,39
 1151 1139 1151 1139 1123 1174 c 0,40,41
 994 1335 994 1335 758 1365 c 1,42,43
 559 1165 559 1165 475 811 c 0,44,45
 457 735 457 735 457 665 c 0,46,47
 457 480 457 480 580 336 c 8,48,49
 719 172 719 172 944 145 c 1,50,51
 1044 235 1044 235 1075 401 c 0,52,53
 1093 497 1093 497 1093 552 c 9,54,-1
 1299 484 l 17,55,56
 1219 354 1219 354 1104 252 c 0,57,58
 912 83 912 83 706 0 c 1,21,-1
EndSplineSet
Validated: 3073
EndChar

StartChar: Cdotaccent
Encoding: 266 266 209
Width: 1287
VWidth: 0
Flags: W
HStem: 0 21G<576 809> 1490 20G<888 1126.5>
VStem: 270 187<458.969 822.239>
LayerCount: 2
Fore
SplineSet
706 0 m 1,0,1
 696 0 l 1,2,3
 456 116 456 116 358 260 c 0,4,5
 270 389 270 389 270 562 c 0,6,7
 270 650 270 650 293 750 c 0,8,9
 361 1045 361 1045 598 1257 c 0,10,11
 779 1419 779 1419 997 1510 c 1,12,-1
 1007 1510 l 1,13,14
 1246 1391 1246 1391 1345 1250 c 0,15,16
 1352 1240 1352 1240 1361 1223 c 1,17,-1
 1158 1127 l 1,18,19
 1151 1139 1151 1139 1123 1174 c 0,20,21
 994 1335 994 1335 758 1365 c 1,22,23
 559 1165 559 1165 475 811 c 0,24,25
 457 735 457 735 457 665 c 0,26,27
 457 480 457 480 580 336 c 8,28,29
 719 172 719 172 944 145 c 1,30,31
 1044 235 1044 235 1075 401 c 0,32,33
 1093 497 1093 497 1093 552 c 9,34,-1
 1299 484 l 17,35,36
 1219 354 1219 354 1104 252 c 0,37,38
 912 83 912 83 706 0 c 1,0,1
1192 1880 m 1,39,-1
 1201 1874 l 1,40,41
 1169 1792 1169 1792 1154 1732 c 0,42,43
 1145 1696 1145 1696 1137 1617 c 1,44,45
 1039 1600 1039 1600 899 1529 c 1,46,-1
 890 1535 l 1,47,48
 928 1626 928 1626 939 1675 c 0,49,50
 948 1716 948 1716 953 1792 c 1,51,52
 1051 1808 1051 1808 1192 1880 c 1,39,-1
EndSplineSet
Validated: 3073
EndChar

StartChar: Ccaron
Encoding: 268 268 210
Width: 1287
VWidth: 0
Flags: W
HStem: 0 21G<576 809> 1490 20G<888 1126.5>
VStem: 270 187<458.969 822.239> 913 129<1669 1755.02>
LayerCount: 2
Fore
SplineSet
952 1880 m 1,0,-1
 960 1874 l 1,1,2
 1036 1791 1036 1791 1042 1669 c 1,3,4
 1098 1791 1098 1791 1216 1874 c 1,5,-1
 1228 1880 l 1,6,7
 1268 1848 1268 1848 1337 1825 c 1,8,-1
 1335 1815 l 1,9,10
 1187 1739 1187 1739 1144 1619 c 1,11,12
 1077 1606 1077 1606 913 1530 c 1,13,-1
 904 1536 l 1,14,15
 913 1575 913 1575 913 1612 c 0,16,17
 913 1730 913 1730 815 1815 c 1,18,-1
 817 1825 l 1,19,20
 896 1848 896 1848 952 1880 c 1,0,-1
706 0 m 1,21,-1
 696 0 l 1,22,23
 456 116 456 116 358 260 c 0,24,25
 270 389 270 389 270 562 c 0,26,27
 270 650 270 650 293 750 c 0,28,29
 361 1045 361 1045 598 1257 c 0,30,31
 779 1419 779 1419 997 1510 c 1,32,-1
 1007 1510 l 1,33,34
 1246 1391 1246 1391 1345 1250 c 0,35,36
 1352 1240 1352 1240 1361 1223 c 1,37,-1
 1158 1127 l 1,38,39
 1151 1139 1151 1139 1123 1174 c 0,40,41
 994 1335 994 1335 758 1365 c 1,42,43
 559 1165 559 1165 475 811 c 0,44,45
 457 735 457 735 457 665 c 0,46,47
 457 480 457 480 580 336 c 8,48,49
 719 172 719 172 944 145 c 1,50,51
 1044 235 1044 235 1075 401 c 0,52,53
 1093 497 1093 497 1093 552 c 9,54,-1
 1299 484 l 17,55,56
 1219 354 1219 354 1104 252 c 0,57,58
 912 83 912 83 706 0 c 1,21,-1
EndSplineSet
Validated: 3073
EndChar

